<?xml version="1.0" encoding="utf-8"?>
<!-- Generator: Adobe Illustrator 18.1.1, SVG Export Plug-In . SVG Version: 6.00 Build 0)  -->
<!DOCTYPE svg PUBLIC "-//W3C//DTD SVG 1.1//EN" "http://www.w3.org/Graphics/SVG/1.1/DTD/svg11.dtd">
<svg version="1.1" id="Layer_1" xmlns="http://www.w3.org/2000/svg" xmlns:xlink="http://www.w3.org/1999/xlink" x="0px" y="0px"
	 viewBox="0 0 117 50" enable-background="new 0 0 117 50" xml:space="preserve">
<g id="ToyBox_Media_Logo_Dark_Full_Color">
	<g>
		<path fill="#404041" d="M98.2,19.4L91.3,8.4h8.9l3.4,6.3l3.5-6.3h8.9l-7.1,11.1l7.4,11.5h-8.9l-3.8-6.9L99.8,31h-8.9L98.2,19.4z"
			/>
		<g>
			<defs>
				<path id="SVGID_1_" d="M98.2,19.4L91.2,8.3h8.9l3.4,6.4l3.5-6.4h8.9l-7.1,11.1l7.4,11.6h-8.9l-3.8-6.9L99.8,31l-8.9,0L98.2,19.4
					z"/>
			</defs>
			<clipPath id="SVGID_2_">
				<use xlink:href="#SVGID_1_"  overflow="visible"/>
			</clipPath>
			<polygon opacity="0.35" clip-path="url(#SVGID_2_)" fill="#231F20" points="98.5,31.4 83.2,33.7 67.1,29.3 81.6,2.4 96,8.4 			
				"/>
		</g>
		<g id="Box_1_">
			<polygon fill="#149B9E" points="96,31 81.4,33.4 81.4,2 96,8.4 			"/>
			<polygon fill="#27BDBE" points="66.9,31 81.4,33.4 81.4,2 66.9,8.4 			"/>
		</g>
		<g>
			<path fill="#404041" d="M112.6,49.4l-1-2.1h-0.1c-0.7,0.9-1.5,1.5-2.2,1.8c-0.7,0.3-1.7,0.5-2.9,0.5c-1.5,0-2.6-0.4-3.4-1.3
				c-0.8-0.9-1.3-2.1-1.3-3.7c0-1.7,0.6-2.9,1.7-3.7c1.1-0.8,2.8-1.3,5-1.4l2.6-0.1v-0.2c0-1.3-0.6-1.9-1.9-1.9
				c-1.1,0-2.6,0.4-4.3,1.1l-1.5-3.5c1.8-0.9,4.1-1.4,6.8-1.4c2,0,3.5,0.5,4.6,1.5c1.1,1,1.6,2.4,1.6,4.1v10.2H112.6z M108.6,45.9
				c0.6,0,1.2-0.2,1.7-0.6c0.5-0.4,0.7-0.9,0.7-1.6v-1.2l-1.2,0.1c-1.8,0.1-2.6,0.7-2.6,1.9C107.1,45.4,107.6,45.9,108.6,45.9z"/>
		</g>
		<g id="i_shadow_1_">
			<defs>
				<path id="SVGID_3_" d="M112.6,49.4l-1-2.1h-0.1c-0.7,0.9-1.5,1.5-2.2,1.8c-0.7,0.3-1.7,0.5-2.9,0.5c-1.5,0-2.6-0.4-3.4-1.3
					c-0.8-0.9-1.3-2.1-1.3-3.7c0-1.7,0.6-2.9,1.7-3.7c1.1-0.8,2.8-1.3,5-1.4l2.6-0.1v-0.2c0-1.3-0.6-1.9-1.9-1.9
					c-1.1,0-2.6,0.4-4.3,1.1l-1.5-3.5c1.8-0.9,4.1-1.4,6.8-1.4c2,0,3.5,0.5,4.6,1.5c1.1,1,1.6,2.4,1.6,4.1v10.2H112.6z M108.6,45.9
					c0.6,0,1.2-0.2,1.7-0.6c0.5-0.4,0.7-0.9,0.7-1.6v-1.2l-1.2,0.1c-1.8,0.1-2.6,0.7-2.6,1.9C107.1,45.4,107.6,45.9,108.6,45.9z"/>
			</defs>
			<clipPath id="SVGID_4_">
				<use xlink:href="#SVGID_3_"  overflow="visible"/>
			</clipPath>
			<path id="i_shadow_2_" opacity="0.35" clip-path="url(#SVGID_4_)" fill="#231F20" d="M103.2,49.7h-5.6l-1.1-15h5.3L103.2,49.7z"
				/>
		</g>
		<g>
			<path id="i_Dot_2_" fill="#404041" d="M101.7,30.9c0,1.4-1.2,2.5-2.9,2.5c-1.7,0-2.9-1.1-2.9-2.5s0.5-2.7,2.9-2.7
				C100.9,28.2,101.7,29.6,101.7,30.9z"/>
			<path id="i_2_" fill="#404041" d="M101.7,49.7h-5.3v-15h5.3V49.7z"/>
		</g>
		<g id="d_shadow_part_2_1_">
			<defs>
				<path id="i_Dot_1_" d="M101.7,30.3c0,1.4-1.2,2.5-2.9,2.5c-1.7,0-2.9-1.1-2.9-2.5c0-1.4,0.5-2.7,2.9-2.7
					C100.9,27.6,101.7,29,101.7,30.3z"/>
			</defs>
			<clipPath id="i_Dot_7_">
				<use xlink:href="#i_Dot_1_"  overflow="visible"/>
			</clipPath>
			<g id="d_shadow_2_" opacity="0.35" clip-path="url(#i_Dot_7_)">
				<path fill="#231F20" d="M88.4,49.4c-1.1,0-2.1-0.3-3-0.9c-0.9-0.6-1.6-1.6-2.1-2.8c-0.5-1.2-0.9-2.6-1-4.3
					c-0.2-2.5,0.2-4.5,1.1-5.9c0.9-1.4,2.3-2.1,4-2.1c0.9,0,1.6,0.2,2.3,0.5c0.7,0.3,1.3,0.9,1.9,1.8h0.1c-0.3-1.2-0.4-2.4-0.5-3.6
					L91,27.9h5.4l1.7,21.3h-4.3l-1.3-2h-0.2C91.6,48.7,90.3,49.4,88.4,49.4z M90.3,45.2c0.9,0,1.4-0.3,1.8-0.8
					c0.3-0.5,0.4-1.4,0.4-2.5l0-0.4c-0.1-1.4-0.4-2.3-0.8-2.9c-0.4-0.6-1.1-0.9-1.9-0.9c-0.7,0-1.2,0.3-1.6,1
					c-0.3,0.7-0.5,1.6-0.4,2.8c0.1,1.2,0.3,2.1,0.8,2.7C89,44.9,89.6,45.2,90.3,45.2z"/>
			</g>
		</g>
		<g id="d_shadow_part_1_1_">
			<defs>
				<path id="i_1_" d="M101.7,49.7h-5.3v-15h5.3V49.7z"/>
			</defs>
			<clipPath id="i_7_">
				<use xlink:href="#i_1_"  overflow="visible"/>
			</clipPath>
			<g id="d_shadow_1_" opacity="0.35" clip-path="url(#i_7_)">
				<path fill="#231F20" d="M88.4,50c-1.1,0-2.1-0.3-3-0.9c-0.9-0.6-1.6-1.6-2.1-2.8c-0.5-1.2-0.9-2.6-1-4.3
					c-0.2-2.5,0.2-4.5,1.1-5.9c0.9-1.4,2.3-2.1,4-2.1c0.9,0,1.6,0.2,2.3,0.5c0.7,0.3,1.3,0.9,1.9,1.8h0.1c-0.3-1.2-0.4-2.4-0.5-3.6
					L91,28.4h5.4l1.7,21.3h-4.3l-1.3-2h-0.2C91.6,49.3,90.3,50,88.4,50z M90.3,45.8c0.9,0,1.4-0.3,1.8-0.8c0.3-0.5,0.4-1.4,0.4-2.5
					l0-0.4c-0.1-1.4-0.4-2.3-0.8-2.9c-0.4-0.6-1.1-0.9-1.9-0.9c-0.7,0-1.2,0.3-1.6,1c-0.3,0.7-0.5,1.6-0.4,2.8
					c0.1,1.2,0.3,2.1,0.8,2.7C89,45.5,89.6,45.8,90.3,45.8z"/>
			</g>
		</g>
		<g id="d_2_">
			<path fill="#404041" d="M86.9,50c-1.1,0-2.1-0.3-2.9-0.9c-0.8-0.6-1.5-1.6-1.9-2.8c-0.5-1.2-0.7-2.6-0.7-4.3
				c0-2.5,0.5-4.5,1.5-5.9c1-1.4,2.4-2.1,4.2-2.1c0.9,0,1.9,0.2,2.5,0.5c0.7,0.3,0.9,0.6,1.3,1.1h0.1l0-7.1h5.4v21.3h-4l-1.1-2H91
				C90.1,49.3,88.7,50,86.9,50z M89.1,45.8c0.9,0,1.5-0.3,1.8-0.8c0.4-0.5,0.5-1.4,0.6-2.5v-0.4c0-1.4-0.2-2.3-0.6-2.9
				c-0.4-0.6-1-0.9-1.8-0.9c-0.7,0-1.2,0.3-1.6,1c-0.4,0.7-0.6,1.6-0.6,2.8c0,1.2,0.2,2.1,0.6,2.7C87.8,45.5,88.4,45.8,89.1,45.8z"
				/>
		</g>
		<g id="e_shadow_1_">
			<defs>
				<path id="SVGID_5_" d="M86.9,50c-1.1,0-2.1-0.3-2.9-0.9c-0.8-0.6-1.5-1.6-1.9-2.8c-0.5-1.2-0.7-2.6-0.7-4.3
					c0-2.5,0.5-4.5,1.5-5.9c1-1.4,2.4-2.1,4.2-2.1c0.9,0,1.9,0.2,2.5,0.5c0.7,0.3,0.9,0.6,1.3,1.1h0.1l0-7.1h5.4v21.3h-4l-1.1-2H91
					C90.1,49.3,88.7,50,86.9,50z M89.1,45.8c0.9,0,1.5-0.3,1.8-0.8c0.4-0.5,0.5-1.4,0.6-2.5v-0.4c0-1.4-0.2-2.3-0.6-2.9
					c-0.4-0.6-1-0.9-1.8-0.9c-0.7,0-1.2,0.3-1.6,1c-0.4,0.7-0.6,1.6-0.6,2.8c0,1.2,0.2,2.1,0.6,2.7C87.8,45.5,88.4,45.8,89.1,45.8z"
					/>
			</defs>
			<clipPath id="SVGID_6_">
				<use xlink:href="#SVGID_5_"  overflow="visible"/>
			</clipPath>
			<g opacity="0.35" clip-path="url(#SVGID_6_)">
				<path fill="#231F20" d="M76.9,49.8c-2.6,0-4.6-0.7-6.2-2.1c-1.5-1.4-2.4-3.3-2.6-5.9c-0.2-2.6,0.3-4.6,1.6-6
					c1.2-1.4,3.1-2.1,5.5-2.1c2.3,0,4.4,0.6,5.8,1.8c1.4,1.2,2.1,3,2.3,5.3l0.2,2.4h-9.8c0.1,0.9,0.5,1.5,1.1,2
					c0.6,0.5,1.5,0.7,2.5,0.7c0.9,0,1.8-0.1,2.6-0.3c0.8-0.2,1.8-0.5,2.7-0.9l0.3,3.8c-0.8,0.4-1.9,0.7-2.8,0.9
					C79.2,49.7,78.1,49.8,76.9,49.8z M75.7,37.4c-0.6,0-1.1,0.2-1.5,0.6s-0.6,1-0.6,1.9h4.6c-0.1-0.7-0.3-1.3-0.8-1.8
					C76.9,37.6,76.4,37.4,75.7,37.4z"/>
			</g>
		</g>
		<g id="e_1_">
			<path fill="#404041" d="M75.4,49.8c-2.6,0-4.6-0.7-6-2.1c-1.4-1.4-2.1-3.3-2.1-5.9c0-2.6,0.7-4.6,2-6c1.3-1.4,3.2-2.1,5.7-2.1
				c2.3,0,4.1,0.6,5.4,1.8c1.3,1.2,1.9,3,1.9,5.3v2.4h-9.6c0,0.9,0.4,1.5,1,2C74.2,45.7,75,46,76,46c0.9,0,1.8-0.1,2.6-0.3
				c0.8-0.2,1.6-0.5,2.6-0.9v3.8c-0.8,0.4-1.7,0.7-2.6,0.9C77.7,49.7,76.6,49.8,75.4,49.8z M75.1,37.4c-0.6,0-1.2,0.2-1.6,0.6
				c-0.4,0.4-0.7,1-0.7,1.9h4.6c0-0.7-0.2-1.3-0.6-1.8C76.3,37.6,75.8,37.4,75.1,37.4z"/>
		</g>
		<g id="m_shadow_1_">
			<defs>
				<path id="SVGID_7_" d="M75.4,49.8c-2.6,0-4.6-0.7-6-2.1c-1.4-1.4-2.1-3.3-2.1-5.9c0-2.6,0.7-4.6,2-6c1.3-1.4,3.2-2.1,5.7-2.1
					c2.3,0,4.1,0.6,5.4,1.8c1.3,1.2,1.9,3,1.9,5.3v2.4h-9.6c0,0.9,0.4,1.5,1,2C74.2,45.7,75,46,76,46c0.9,0,1.8-0.1,2.6-0.3
					c0.8-0.2,1.6-0.5,2.6-0.9v3.8c-0.8,0.4-1.7,0.7-2.6,0.9C77.7,49.7,76.6,49.8,75.4,49.8z M75.1,37.4c-0.6,0-1.2,0.2-1.6,0.6
					c-0.4,0.4-0.7,1-0.7,1.9h4.6c0-0.7-0.2-1.3-0.6-1.8C76.3,37.6,75.8,37.4,75.1,37.4z"/>
			</defs>
			<clipPath id="SVGID_8_">
				<use xlink:href="#SVGID_7_"  overflow="visible"/>
			</clipPath>
			<g opacity="0.35" clip-path="url(#SVGID_8_)">
				<path fill="#231F20" d="M63.9,49.5l-0.6-8.4c-0.1-1-0.3-1.8-0.6-2.4C62.4,38.2,62,38,61.3,38c-0.8,0-1.4,0.4-1.7,1.1
					c-0.3,0.7-0.4,1.8-0.3,3.3l0.5,7.2h-5.4l-0.6-8.4c-0.1-1-0.3-1.8-0.6-2.4c-0.3-0.5-0.8-0.8-1.4-0.8c-0.8,0-1.4,0.4-1.8,1.1
					c-0.3,0.7-0.4,2-0.3,3.7l0.5,6.8h-5.3L43.8,34h4l0.8,1.9H49c0.4-0.7,0.9-1.3,1.7-1.6c0.8-0.4,1.6-0.6,2.6-0.6
					c2.2,0,3.9,0.7,4.8,2h0.4c0.4-0.6,1-1.1,1.7-1.5c0.8-0.4,1.6-0.5,2.5-0.5c1.8,0,3.2,0.5,4.2,1.4c0.9,0.9,1.7,2.4,1.8,4.3
					l0.9,10.1H63.9z"/>
			</g>
		</g>
		<g id="m_1_">
			<path fill="#404041" d="M62.7,49.5v-8.4c0-1-0.1-1.8-0.4-2.4C62,38.2,61.5,38,60.9,38c-0.8,0-1.4,0.4-1.8,1.1
				c-0.4,0.7-0.6,1.8-0.6,3.3v7.2h-5.4v-8.4c0-1-0.1-1.8-0.4-2.4C52.5,38.2,52,38,51.4,38c-0.8,0-1.5,0.4-1.8,1.1
				c-0.4,0.7-0.6,2-0.6,3.7v6.8h-5.3V34h4l0.7,1.9h0.3c0.4-0.7,1-1.3,1.8-1.6c0.8-0.4,1.7-0.6,2.7-0.6c2.2,0,3.8,0.7,4.7,2h0.4
				c0.4-0.6,1-1.1,1.8-1.5c0.8-0.4,1.6-0.5,2.6-0.5c1.8,0,3.2,0.5,4.1,1.4c0.9,0.9,1.3,2.4,1.3,4.3v10.1H62.7z"/>
		</g>
		<g id="y_shadow_on_m_1_">
			<defs>
				<path id="SVGID_9_" d="M62.7,49.5v-8.4c0-1-0.1-1.8-0.4-2.4C62,38.2,61.5,38,60.9,38c-0.8,0-1.4,0.4-1.8,1.1
					c-0.4,0.7-0.6,1.8-0.6,3.3v7.2h-5.4v-8.4c0-1-0.1-1.8-0.4-2.4C52.5,38.2,52,38,51.4,38c-0.8,0-1.5,0.4-1.8,1.1
					c-0.4,0.7-0.6,2-0.6,3.7v6.8h-5.3V34h4l0.7,1.9h0.3c0.4-0.7,1-1.3,1.8-1.6c0.8-0.4,1.7-0.6,2.7-0.6c2.2,0,3.8,0.7,4.7,2h0.4
					c0.4-0.6,1-1.1,1.8-1.5c0.8-0.4,1.6-0.5,2.6-0.5c1.8,0,3.2,0.5,4.1,1.4c0.9,0.9,1.3,2.4,1.3,4.3v10.1H62.7z"/>
			</defs>
			<clipPath id="SVGID_10_">
				<use xlink:href="#SVGID_9_"  overflow="visible"/>
			</clipPath>
			<g id="y_shadow_2_" opacity="0.35" clip-path="url(#SVGID_10_)">
				<path fill="#231F20" d="M31.1,8.4h8.2l4.7,13c0.2,0.7,0.4,1.5,0.6,2.5h0.2c0-0.9,0.1-1.7,0.3-2.4l3-13h8l-7.3,24
					c-0.9,3.1-2.2,5.2-3.8,6.5c-1.6,1.3-3.7,1.9-6.4,1.9c-1,0-2.1-0.1-3.2-0.3l-0.4-6.1c0.7,0.2,1.5,0.2,2.4,0.2
					c0.7,0,1.3-0.1,1.8-0.4c0.5-0.3,0.9-0.6,1.3-1.1c0.4-0.5,0.7-1.3,1.1-2.4L31.1,8.4z"/>
			</g>
		</g>
		<g id="b_shadow_1_">
			<defs>
				<polygon id="SVGID_11_" points="66.9,31 81.4,33.4 81.4,2 66.9,8.4 				"/>
			</defs>
			<clipPath id="SVGID_12_">
				<use xlink:href="#SVGID_11_"  overflow="visible"/>
			</clipPath>
			<g id="b_2_" opacity="0.35" clip-path="url(#SVGID_12_)">
				<path fill="#231F20" d="M66.8,7.6c2.4,0,4.3,1,5.8,3.1c1.5,2.1,3,5,3.3,8.8c0.3,3.8-0.2,6.8-1.5,9c-1.3,2.2-3.6,3.4-5.9,3.4
					c-0.8,0-2-0.1-2.6-0.3c-0.7-0.2-1.2-0.5-1.8-0.8c-0.5-0.3-1.1-0.9-1.8-1.7h-0.5l-1.1,2.4h-6L53.2,0h7.4l0.6,11
					c0.7-1.2,1.5-2.1,2.4-2.6C64.5,7.9,65.6,7.6,66.8,7.6z M64.2,13.9c-1.1,0-1.8,0.4-2.2,1.2c-0.4,0.8-0.6,2-0.5,3.7l0.1,1.1
					c0.1,1.9,0.4,3.3,1,4.2c0.5,0.8,1.4,1.3,2.5,1.3c0.9,0,1.6-0.5,2-1.5c0.4-1,0.6-2.4,0.5-4.3C67.2,15.7,66.1,13.9,64.2,13.9z"/>
			</g>
		</g>
		<g id="b_1_">
			<path fill="#404041" d="M66.6,7.6c2.5,0,4.4,1,5.9,3.1c1.4,2.1,2.2,4.9,2.2,8.6c0,3.7-0.7,6.5-2.2,8.6c-1.5,2.1-3.3,3.2-5.7,3.2
				c-0.8,0-2-0.1-2.6-0.3c-0.7-0.2-1.2-0.4-1.7-0.7c-0.5-0.3-1.1-0.9-1.8-1.6h-0.5l-1.2,2.2h-6.1V0h7.8v10.9c0.8-1.2,1.6-2,2.6-2.5
				C64.2,7.8,65.3,7.6,66.6,7.6z M63.7,13.7c-1.1,0-1.9,0.4-2.4,1.1c-0.5,0.8-0.8,1.9-0.8,3.6v1.1c0,1.8,0.3,3.2,0.8,4
				c0.5,0.8,1.3,1.2,2.5,1.2c0.9,0,1.6-0.5,2.1-1.4c0.5-0.9,0.7-2.3,0.7-4.1C66.6,15.5,65.7,13.7,63.7,13.7z"/>
		</g>
		<g id="y_shadow_1_">
			<defs>
				<path id="SVGID_13_" d="M66.6,7.6c2.5,0,4.4,1,5.9,3.1c1.4,2.1,2.2,4.9,2.2,8.6c0,3.7-0.7,6.5-2.2,8.6c-1.5,2.1-3.5,3.1-6.1,3.1
					c-0.8,0-1.6-0.1-2.2-0.3c-0.7-0.2-1.2-0.4-1.7-0.7c-0.5-0.3-1.1-0.9-1.8-1.6h-0.5l-1.2,2.2h-6.1V0h7.8v10.9
					c0.8-1.2,1.6-2,2.6-2.5C64.2,7.8,65.3,7.6,66.6,7.6z M63.7,13.7c-1.1,0-1.9,0.4-2.4,1.1c-0.5,0.8-0.8,1.9-0.8,3.6v1.1
					c0,1.8,0.3,3.2,0.8,4c0.5,0.8,1.3,1.2,2.5,1.2c0.9,0,1.6-0.5,2.1-1.4c0.5-0.9,0.7-2.3,0.7-4.1C66.6,15.5,65.7,13.7,63.7,13.7z"
					/>
			</defs>
			<clipPath id="SVGID_14_">
				<use xlink:href="#SVGID_13_"  overflow="visible"/>
			</clipPath>
			<g opacity="0.35" clip-path="url(#SVGID_14_)">
				<path fill="#231F20" d="M31.1,7.8h8.2l4.7,13c0.2,0.7,0.4,1.5,0.6,2.5h0.2c0-0.9,0.1-1.7,0.3-2.4l3-13h8l-7.3,24
					c-0.9,3.1-2.2,5.2-3.8,6.5c-1.6,1.3-3.7,1.9-6.4,1.9c-1,0-2.1-0.1-3.2-0.3l-0.4-6.1c0.7,0.2,1.5,0.2,2.4,0.2
					c0.7,0,1.3-0.1,1.8-0.4c0.5-0.3,0.9-0.6,1.3-1.1c0.4-0.5,0.7-1.3,1.1-2.4L31.1,7.8z"/>
			</g>
		</g>
		<g id="y_1_">
			<path fill="#404041" d="M31.1,7.8h8.2l4.4,13.6h0.2L48,7.8h8l-8.9,24c-1.1,3.1-2.6,5.2-4.2,6.5c-1.7,1.3-3.8,1.9-6.5,1.9
				c-1,0-2.1-0.1-3.2-0.3v-6.1c0.7,0.2,1.5,0.2,2.4,0.2c0.7,0,1.3-0.1,1.8-0.4c0.5-0.3,1-0.6,1.4-1.1c0.4-0.5,0.8-1.3,1.2-2.4
				L31.1,7.8z"/>
		</g>
		<g id="o_shadow_1_">
			<defs>
				<path id="SVGID_15_" d="M31.1,7.8h8.2l3.8,13c0.2,0.7,0.3,1.5,0.4,2.5h0.2c0.1-0.9,0.3-1.7,0.5-2.4l3.9-13h8l-8.9,24
					c-1.1,3.1-2.6,5.2-4.2,6.5c-1.7,1.3-3.8,1.9-6.5,1.9c-1,0-2.1-0.1-3.2-0.3v-6.1c0.7,0.2,1.5,0.2,2.4,0.2c0.7,0,1.3-0.1,1.8-0.4
					c0.5-0.3,1-0.6,1.4-1.1c0.4-0.5,0.8-1.3,1.2-2.4L31.1,7.8z"/>
			</defs>
			<clipPath id="SVGID_16_">
				<use xlink:href="#SVGID_15_"  overflow="visible"/>
			</clipPath>
			<g id="o_3_" opacity="0.35" clip-path="url(#SVGID_16_)">
				<path fill="#231F20" d="M37.8,19.2c0.3,3.7-0.5,6.6-2.4,8.6c-1.8,2.1-4.6,3.1-8.1,3.1c-3.4,0-6.2-1.1-8.4-3.2
					c-2.2-2.1-3.4-5-3.6-8.6c-0.3-3.7,0.5-6.5,2.4-8.6c1.8-2,4.6-3.1,8.2-3.1C28,7.6,30,8,31.7,9c1.8,0.9,3.2,2.3,4.2,4.1
					C37,14.8,37.6,16.9,37.8,19.2z M23.1,19.2c0.1,1.9,0.5,3.4,1.1,4.4c0.6,1,1.5,1.5,2.7,1.5c1.2,0,2-0.5,2.5-1.5
					c0.4-1,0.6-2.5,0.4-4.4c-0.1-1.9-0.5-3.4-1.1-4.4c-0.6-1-1.5-1.5-2.7-1.5c-1.2,0-2,0.5-2.5,1.5C23.2,15.8,23,17.3,23.1,19.2z"/>
			</g>
		</g>
		<g id="o_2_">
			<path fill="#404041" d="M36.5,19.7c-0.1,3.7-1.2,6.6-3.2,8.6c-2,2-4.8,3-8.4,2.9c-3.4-0.1-6.1-1.2-8.1-3.4c-2-2.2-2.9-5-2.8-8.7
				c0.1-3.7,1.2-6.5,3.2-8.5c2-2,4.9-2.9,8.4-2.8c2.2,0.1,4.2,0.6,5.8,1.6c1.7,1,3,2.4,3.8,4.2C36.2,15.3,36.6,17.3,36.5,19.7z
				 M21.9,19.3c0,1.9,0.2,3.4,0.7,4.5c0.5,1,1.4,1.6,2.6,1.6c1.2,0,2.1-0.5,2.6-1.5c0.5-1,0.8-2.5,0.9-4.4c0-1.9-0.2-3.4-0.6-4.4
				c-0.5-1-1.3-1.5-2.6-1.5c-1.2,0-2.1,0.4-2.6,1.4C22.2,15.9,21.9,17.4,21.9,19.3z"/>
		</g>
		<g id="t_shadow_1_">
			<defs>
				<path id="SVGID_17_" d="M36.5,19.7c-0.1,3.7-1.2,6.6-3.2,8.6c-2,2-4.8,3-8.4,2.9c-3.4-0.1-6.1-1.2-8.1-3.4c-2-2.2-2.9-5-2.8-8.7
					c0.1-3.7,1.2-6.5,3.2-8.5c2-2,4.9-2.9,8.4-2.8c2.2,0.1,4.2,0.6,5.8,1.6c1.7,1,3,2.4,3.8,4.2C36.2,15.3,36.6,17.3,36.5,19.7z
					 M21.9,19.3c0,1.9,0.2,3.4,0.7,4.5c0.5,1,1.4,1.6,2.6,1.6c1.2,0,2.1-0.5,2.6-1.5c0.5-1,0.8-2.5,0.9-4.4c0-1.9-0.2-3.4-0.6-4.4
					c-0.5-1-1.3-1.5-2.6-1.5c-1.2,0-2.1,0.4-2.6,1.4C22.2,15.9,21.9,17.4,21.9,19.3z"/>
			</defs>
			<clipPath id="SVGID_18_">
				<use xlink:href="#SVGID_17_"  overflow="visible"/>
			</clipPath>
			<g id="t_Shadow_1_" opacity="0.35" clip-path="url(#SVGID_18_)">
				<path fill="#231F20" d="M14.2,24.7c1.1,0,2.3-0.2,3.7-0.7l0.3,5.7c-1,0.4-2,0.7-3,0.9c-0.9,0.2-2.1,0.2-3.3,0.2
					c-2.6-0.1-4.5-0.8-5.7-2.1c-1.2-1.3-1.9-3.3-2-6l-0.4-9.3L1,13.4l-0.1-3.2l3.4-2.4L6,3.1l5.1,0.1l0.2,4.5l5.5,0.1l0.3,5.9
					l-5.5-0.1l0.4,8.8C12,23.9,12.8,24.7,14.2,24.7z"/>
			</g>
		</g>
		<g id="t_1_">
			<path fill="#404041" d="M12.7,24.8c1.1,0,2.3-0.3,3.8-0.8v5.7c-1.1,0.5-2.1,0.8-3,1c-1,0.2-2.1,0.3-3.3,0.3
				c-2.6,0-4.5-0.6-5.7-1.9c-1.2-1.3-1.7-3.3-1.7-5.9v-9.3H0v-3.2l3.5-2.5l2-4.7h5.1V8h5.5v5.8h-5.5v8.8
				C10.6,24.1,11.3,24.8,12.7,24.8z"/>
		</g>
	</g>
</g>
<g id="ToyBox_Media_Logo_Dark_Full_Color_1_" display="none">
	<g display="inline">
		<path fill="#27BDBE" d="M98.2,19.4L91.3,8.4h8.9l3.4,6.3l3.5-6.3h8.9l-7.1,11.1l7.4,11.5h-8.9l-3.8-6.9L99.8,31h-8.9L98.2,19.4z"
			/>
		<g>
			<defs>
				<path id="SVGID_19_" d="M98.2,19.4L91.2,8.3h8.9l3.4,6.4l3.5-6.4h8.9l-7.1,11.1l7.4,11.6h-8.9l-3.8-6.9L99.8,31l-8.9,0
					L98.2,19.4z"/>
			</defs>
			<clipPath id="SVGID_20_">
				<use xlink:href="#SVGID_19_"  overflow="visible"/>
			</clipPath>
			<polygon opacity="0.35" clip-path="url(#SVGID_20_)" fill="#231F20" points="98.5,31.4 83.2,33.7 67.1,29.3 81.6,2.4 96,8.4 			
				"/>
		</g>
		<g id="Box_2_">
			<polygon fill="#149B9E" points="96,31 81.4,33.4 81.4,2 96,8.4 			"/>
			<polygon fill="#27BDBE" points="66.9,31 81.4,33.4 81.4,2 66.9,8.4 			"/>
		</g>
		<g>
			<path fill="#27BDBE" d="M112.6,49.4l-1-2.1h-0.1c-0.7,0.9-1.5,1.5-2.2,1.8c-0.7,0.3-1.7,0.5-2.9,0.5c-1.5,0-2.6-0.4-3.4-1.3
				c-0.8-0.9-1.3-2.1-1.3-3.7c0-1.7,0.6-2.9,1.7-3.7c1.1-0.8,2.8-1.3,5-1.4l2.6-0.1v-0.2c0-1.3-0.6-1.9-1.9-1.9
				c-1.1,0-2.6,0.4-4.3,1.1l-1.5-3.5c1.8-0.9,4.1-1.4,6.8-1.4c2,0,3.5,0.5,4.6,1.5c1.1,1,1.6,2.4,1.6,4.1v10.2H112.6z M108.6,45.9
				c0.6,0,1.2-0.2,1.7-0.6c0.5-0.4,0.7-0.9,0.7-1.6v-1.2l-1.2,0.1c-1.8,0.1-2.6,0.7-2.6,1.9C107.1,45.4,107.6,45.9,108.6,45.9z"/>
		</g>
		<g id="i_shadow_5_">
			<defs>
				<path id="SVGID_21_" d="M112.6,49.4l-1-2.1h-0.1c-0.7,0.9-1.5,1.5-2.2,1.8c-0.7,0.3-1.7,0.5-2.9,0.5c-1.5,0-2.6-0.4-3.4-1.3
					c-0.8-0.9-1.3-2.1-1.3-3.7c0-1.7,0.6-2.9,1.7-3.7c1.1-0.8,2.8-1.3,5-1.4l2.6-0.1v-0.2c0-1.3-0.6-1.9-1.9-1.9
					c-1.1,0-2.6,0.4-4.3,1.1l-1.5-3.5c1.8-0.9,4.1-1.4,6.8-1.4c2,0,3.5,0.5,4.6,1.5c1.1,1,1.6,2.4,1.6,4.1v10.2H112.6z M108.6,45.9
					c0.6,0,1.2-0.2,1.7-0.6c0.5-0.4,0.7-0.9,0.7-1.6v-1.2l-1.2,0.1c-1.8,0.1-2.6,0.7-2.6,1.9C107.1,45.4,107.6,45.9,108.6,45.9z"/>
			</defs>
			<clipPath id="SVGID_22_">
				<use xlink:href="#SVGID_21_"  overflow="visible"/>
			</clipPath>
			<path id="i_shadow_6_" opacity="0.35" clip-path="url(#SVGID_22_)" fill="#231F20" d="M103.2,49.7h-5.6l-1.1-15h5.3L103.2,49.7z"
				/>
		</g>
		<g>
			<path id="i_Dot_6_" fill="#27BDBE" d="M101.7,30.9c0,1.4-1.2,2.5-2.9,2.5c-1.7,0-2.9-1.1-2.9-2.5s0.5-2.7,2.9-2.7
				C100.9,28.2,101.7,29.6,101.7,30.9z"/>
			<path id="i_6_" fill="#27BDBE" d="M101.7,49.7h-5.3v-15h5.3V49.7z"/>
		</g>
		<g id="d_shadow_part_2_3_">
			<defs>
				<path id="i_Dot_5_" d="M101.7,30.3c0,1.4-1.2,2.5-2.9,2.5c-1.7,0-2.9-1.1-2.9-2.5c0-1.4,0.5-2.7,2.9-2.7
					C100.9,27.6,101.7,29,101.7,30.3z"/>
			</defs>
			<clipPath id="i_Dot_8_">
				<use xlink:href="#i_Dot_5_"  overflow="visible"/>
			</clipPath>
			<g id="d_shadow_6_" opacity="0.35" clip-path="url(#i_Dot_8_)">
				<path fill="#231F20" d="M88.4,49.4c-1.1,0-2.1-0.3-3-0.9c-0.9-0.6-1.6-1.6-2.1-2.8c-0.5-1.2-0.9-2.6-1-4.3
					c-0.2-2.5,0.2-4.5,1.1-5.9c0.9-1.4,2.3-2.1,4-2.1c0.9,0,1.6,0.2,2.3,0.5c0.7,0.3,1.3,0.9,1.9,1.8h0.1c-0.3-1.2-0.4-2.4-0.5-3.6
					L91,27.9h5.4l1.7,21.3h-4.3l-1.3-2h-0.2C91.6,48.7,90.3,49.4,88.4,49.4z M90.3,45.2c0.9,0,1.4-0.3,1.8-0.8
					c0.3-0.5,0.4-1.4,0.4-2.5l0-0.4c-0.1-1.4-0.4-2.3-0.8-2.9c-0.4-0.6-1.1-0.9-1.9-0.9c-0.7,0-1.2,0.3-1.6,1
					c-0.3,0.7-0.5,1.6-0.4,2.8c0.1,1.2,0.3,2.1,0.8,2.7C89,44.9,89.6,45.2,90.3,45.2z"/>
			</g>
		</g>
		<g id="d_shadow_part_1_3_">
			<defs>
				<path id="i_5_" d="M101.7,49.7h-5.3v-15h5.3V49.7z"/>
			</defs>
			<clipPath id="i_8_">
				<use xlink:href="#i_5_"  overflow="visible"/>
			</clipPath>
			<g id="d_shadow_5_" opacity="0.35" clip-path="url(#i_8_)">
				<path fill="#231F20" d="M88.4,50c-1.1,0-2.1-0.3-3-0.9c-0.9-0.6-1.6-1.6-2.1-2.8c-0.5-1.2-0.9-2.6-1-4.3
					c-0.2-2.5,0.2-4.5,1.1-5.9c0.9-1.4,2.3-2.1,4-2.1c0.9,0,1.6,0.2,2.3,0.5c0.7,0.3,1.3,0.9,1.9,1.8h0.1c-0.3-1.2-0.4-2.4-0.5-3.6
					L91,28.4h5.4l1.7,21.3h-4.3l-1.3-2h-0.2C91.6,49.3,90.3,50,88.4,50z M90.3,45.8c0.9,0,1.4-0.3,1.8-0.8c0.3-0.5,0.4-1.4,0.4-2.5
					l0-0.4c-0.1-1.4-0.4-2.3-0.8-2.9c-0.4-0.6-1.1-0.9-1.9-0.9c-0.7,0-1.2,0.3-1.6,1c-0.3,0.7-0.5,1.6-0.4,2.8
					c0.1,1.2,0.3,2.1,0.8,2.7C89,45.5,89.6,45.8,90.3,45.8z"/>
			</g>
		</g>
		<g id="d_6_">
			<path fill="#27BDBE" d="M86.9,50c-1.1,0-2.1-0.3-2.9-0.9c-0.8-0.6-1.5-1.6-1.9-2.8c-0.5-1.2-0.7-2.6-0.7-4.3
				c0-2.5,0.5-4.5,1.5-5.9c1-1.4,2.4-2.1,4.2-2.1c0.9,0,1.9,0.2,2.5,0.5c0.7,0.3,0.9,0.6,1.3,1.1h0.1l0-7.1h5.4v21.3h-4l-1.1-2H91
				C90.1,49.3,88.7,50,86.9,50z M89.1,45.8c0.9,0,1.5-0.3,1.8-0.8c0.4-0.5,0.5-1.4,0.6-2.5v-0.4c0-1.4-0.2-2.3-0.6-2.9
				c-0.4-0.6-1-0.9-1.8-0.9c-0.7,0-1.2,0.3-1.6,1c-0.4,0.7-0.6,1.6-0.6,2.8c0,1.2,0.2,2.1,0.6,2.7C87.8,45.5,88.4,45.8,89.1,45.8z"
				/>
		</g>
		<g id="e_shadow_3_">
			<defs>
				<path id="SVGID_23_" d="M86.9,50c-1.1,0-2.1-0.3-2.9-0.9c-0.8-0.6-1.5-1.6-1.9-2.8c-0.5-1.2-0.7-2.6-0.7-4.3
					c0-2.5,0.5-4.5,1.5-5.9c1-1.4,2.4-2.1,4.2-2.1c0.9,0,1.9,0.2,2.5,0.5c0.7,0.3,0.9,0.6,1.3,1.1h0.1l0-7.1h5.4v21.3h-4l-1.1-2H91
					C90.1,49.3,88.7,50,86.9,50z M89.1,45.8c0.9,0,1.5-0.3,1.8-0.8c0.4-0.5,0.5-1.4,0.6-2.5v-0.4c0-1.4-0.2-2.3-0.6-2.9
					c-0.4-0.6-1-0.9-1.8-0.9c-0.7,0-1.2,0.3-1.6,1c-0.4,0.7-0.6,1.6-0.6,2.8c0,1.2,0.2,2.1,0.6,2.7C87.8,45.5,88.4,45.8,89.1,45.8z"
					/>
			</defs>
			<clipPath id="SVGID_24_">
				<use xlink:href="#SVGID_23_"  overflow="visible"/>
			</clipPath>
			<g opacity="0.35" clip-path="url(#SVGID_24_)">
				<path fill="#231F20" d="M76.9,49.8c-2.6,0-4.6-0.7-6.2-2.1c-1.5-1.4-2.4-3.3-2.6-5.9c-0.2-2.6,0.3-4.6,1.6-6
					c1.2-1.4,3.1-2.1,5.5-2.1c2.3,0,4.4,0.6,5.8,1.8c1.4,1.2,2.1,3,2.3,5.3l0.2,2.4h-9.8c0.1,0.9,0.5,1.5,1.1,2
					c0.6,0.5,1.5,0.7,2.5,0.7c0.9,0,1.8-0.1,2.6-0.3c0.8-0.2,1.8-0.5,2.7-0.9l0.3,3.8c-0.8,0.4-1.9,0.7-2.8,0.9
					C79.2,49.7,78.1,49.8,76.9,49.8z M75.7,37.4c-0.6,0-1.1,0.2-1.5,0.6s-0.6,1-0.6,1.9h4.6c-0.1-0.7-0.3-1.3-0.8-1.8
					C76.9,37.6,76.4,37.4,75.7,37.4z"/>
			</g>
		</g>
		<g id="e_3_">
			<path fill="#27BDBE" d="M75.4,49.8c-2.6,0-4.6-0.7-6-2.1c-1.4-1.4-2.1-3.3-2.1-5.9c0-2.6,0.7-4.6,2-6c1.3-1.4,3.2-2.1,5.7-2.1
				c2.3,0,4.1,0.6,5.4,1.8c1.3,1.2,1.9,3,1.9,5.3v2.4h-9.6c0,0.9,0.4,1.5,1,2C74.2,45.7,75,46,76,46c0.9,0,1.8-0.1,2.6-0.3
				c0.8-0.2,1.6-0.5,2.6-0.9v3.8c-0.8,0.4-1.7,0.7-2.6,0.9C77.7,49.7,76.6,49.8,75.4,49.8z M75.1,37.4c-0.6,0-1.2,0.2-1.6,0.6
				c-0.4,0.4-0.7,1-0.7,1.9h4.6c0-0.7-0.2-1.3-0.6-1.8C76.3,37.6,75.8,37.4,75.1,37.4z"/>
		</g>
		<g id="m_shadow_3_">
			<defs>
				<path id="SVGID_25_" d="M75.4,49.8c-2.6,0-4.6-0.7-6-2.1c-1.4-1.4-2.1-3.3-2.1-5.9c0-2.6,0.7-4.6,2-6c1.3-1.4,3.2-2.1,5.7-2.1
					c2.3,0,4.1,0.6,5.4,1.8c1.3,1.2,1.9,3,1.9,5.3v2.4h-9.6c0,0.9,0.4,1.5,1,2C74.2,45.7,75,46,76,46c0.9,0,1.8-0.1,2.6-0.3
					c0.8-0.2,1.6-0.5,2.6-0.9v3.8c-0.8,0.4-1.7,0.7-2.6,0.9C77.7,49.7,76.6,49.8,75.4,49.8z M75.1,37.4c-0.6,0-1.2,0.2-1.6,0.6
					c-0.4,0.4-0.7,1-0.7,1.9h4.6c0-0.7-0.2-1.3-0.6-1.8C76.3,37.6,75.8,37.4,75.1,37.4z"/>
			</defs>
			<clipPath id="SVGID_26_">
				<use xlink:href="#SVGID_25_"  overflow="visible"/>
			</clipPath>
			<g opacity="0.35" clip-path="url(#SVGID_26_)">
				<path fill="#231F20" d="M63.9,49.5l-0.6-8.4c-0.1-1-0.3-1.8-0.6-2.4C62.4,38.2,62,38,61.3,38c-0.8,0-1.4,0.4-1.7,1.1
					c-0.3,0.7-0.4,1.8-0.3,3.3l0.5,7.2h-5.4l-0.6-8.4c-0.1-1-0.3-1.8-0.6-2.4c-0.3-0.5-0.8-0.8-1.4-0.8c-0.8,0-1.4,0.4-1.8,1.1
					c-0.3,0.7-0.4,2-0.3,3.7l0.5,6.8h-5.3L43.8,34h4l0.8,1.9H49c0.4-0.7,0.9-1.3,1.7-1.6c0.8-0.4,1.6-0.6,2.6-0.6
					c2.2,0,3.9,0.7,4.8,2h0.4c0.4-0.6,1-1.1,1.7-1.5c0.8-0.4,1.6-0.5,2.5-0.5c1.8,0,3.2,0.5,4.2,1.4c0.9,0.9,1.7,2.4,1.8,4.3
					l0.9,10.1H63.9z"/>
			</g>
		</g>
		<g id="m_3_">
			<path fill="#27BDBE" d="M62.7,49.5v-8.4c0-1-0.1-1.8-0.4-2.4C62,38.2,61.5,38,60.9,38c-0.8,0-1.4,0.4-1.8,1.1
				c-0.4,0.7-0.6,1.8-0.6,3.3v7.2h-5.4v-8.4c0-1-0.1-1.8-0.4-2.4C52.5,38.2,52,38,51.4,38c-0.8,0-1.5,0.4-1.8,1.1
				c-0.4,0.7-0.6,2-0.6,3.7v6.8h-5.3V34h4l0.7,1.9h0.3c0.4-0.7,1-1.3,1.8-1.6c0.8-0.4,1.7-0.6,2.7-0.6c2.2,0,3.8,0.7,4.7,2h0.4
				c0.4-0.6,1-1.1,1.8-1.5c0.8-0.4,1.6-0.5,2.6-0.5c1.8,0,3.2,0.5,4.1,1.4c0.9,0.9,1.3,2.4,1.3,4.3v10.1H62.7z"/>
		</g>
		<g id="y_shadow_on_m_3_">
			<defs>
				<path id="SVGID_27_" d="M62.7,49.5v-8.4c0-1-0.1-1.8-0.4-2.4C62,38.2,61.5,38,60.9,38c-0.8,0-1.4,0.4-1.8,1.1
					c-0.4,0.7-0.6,1.8-0.6,3.3v7.2h-5.4v-8.4c0-1-0.1-1.8-0.4-2.4C52.5,38.2,52,38,51.4,38c-0.8,0-1.5,0.4-1.8,1.1
					c-0.4,0.7-0.6,2-0.6,3.7v6.8h-5.3V34h4l0.7,1.9h0.3c0.4-0.7,1-1.3,1.8-1.6c0.8-0.4,1.7-0.6,2.7-0.6c2.2,0,3.8,0.7,4.7,2h0.4
					c0.4-0.6,1-1.1,1.8-1.5c0.8-0.4,1.6-0.5,2.6-0.5c1.8,0,3.2,0.5,4.1,1.4c0.9,0.9,1.3,2.4,1.3,4.3v10.1H62.7z"/>
			</defs>
			<clipPath id="SVGID_28_">
				<use xlink:href="#SVGID_27_"  overflow="visible"/>
			</clipPath>
			<g id="y_shadow_6_" opacity="0.35" clip-path="url(#SVGID_28_)">
				<path fill="#231F20" d="M31.1,8.4h8.2l4.7,13c0.2,0.7,0.4,1.5,0.6,2.5h0.2c0-0.9,0.1-1.7,0.3-2.4l3-13h8l-7.3,24
					c-0.9,3.1-2.2,5.2-3.8,6.5c-1.6,1.3-3.7,1.9-6.4,1.9c-1,0-2.1-0.1-3.2-0.3l-0.4-6.1c0.7,0.2,1.5,0.2,2.4,0.2
					c0.7,0,1.3-0.1,1.8-0.4c0.5-0.3,0.9-0.6,1.3-1.1c0.4-0.5,0.7-1.3,1.1-2.4L31.1,8.4z"/>
			</g>
		</g>
		<g id="b_shadow_3_">
			<defs>
				<polygon id="SVGID_29_" points="66.9,31 81.4,33.4 81.4,2 66.9,8.4 				"/>
			</defs>
			<clipPath id="SVGID_30_">
				<use xlink:href="#SVGID_29_"  overflow="visible"/>
			</clipPath>
			<g id="b_6_" opacity="0.35" clip-path="url(#SVGID_30_)">
				<path fill="#231F20" d="M66.8,7.6c2.4,0,4.3,1,5.8,3.1c1.5,2.1,3,5,3.3,8.8c0.3,3.8-0.2,6.8-1.5,9c-1.3,2.2-3.6,3.4-5.9,3.4
					c-0.8,0-2-0.1-2.6-0.3c-0.7-0.2-1.2-0.5-1.8-0.8c-0.5-0.3-1.1-0.9-1.8-1.7h-0.5l-1.1,2.4h-6L53.2,0h7.4l0.6,11
					c0.7-1.2,1.5-2.1,2.4-2.6C64.5,7.9,65.6,7.6,66.8,7.6z M64.2,13.9c-1.1,0-1.8,0.4-2.2,1.2c-0.4,0.8-0.6,2-0.5,3.7l0.1,1.1
					c0.1,1.9,0.4,3.3,1,4.2c0.5,0.8,1.4,1.3,2.5,1.3c0.9,0,1.6-0.5,2-1.5c0.4-1,0.6-2.4,0.5-4.3C67.2,15.7,66.1,13.9,64.2,13.9z"/>
			</g>
		</g>
		<g id="b_5_">
			<path fill="#27BDBE" d="M66.6,7.6c2.5,0,4.4,1,5.9,3.1c1.4,2.1,2.2,4.9,2.2,8.6c0,3.7-0.7,6.5-2.2,8.6c-1.5,2.1-3.3,3.2-5.7,3.2
				c-0.8,0-2-0.1-2.6-0.3c-0.7-0.2-1.2-0.4-1.7-0.7c-0.5-0.3-1.1-0.9-1.8-1.6h-0.5l-1.2,2.2h-6.1V0h7.8v10.9c0.8-1.2,1.6-2,2.6-2.5
				C64.2,7.8,65.3,7.6,66.6,7.6z M63.7,13.7c-1.1,0-1.9,0.4-2.4,1.1c-0.5,0.8-0.8,1.9-0.8,3.6v1.1c0,1.8,0.3,3.2,0.8,4
				c0.5,0.8,1.3,1.2,2.5,1.2c0.9,0,1.6-0.5,2.1-1.4c0.5-0.9,0.7-2.3,0.7-4.1C66.6,15.5,65.7,13.7,63.7,13.7z"/>
		</g>
		<g id="y_shadow_5_">
			<defs>
				<path id="SVGID_31_" d="M66.6,7.6c2.5,0,4.4,1,5.9,3.1c1.4,2.1,2.2,4.9,2.2,8.6c0,3.7-0.7,6.5-2.2,8.6c-1.5,2.1-3.5,3.1-6.1,3.1
					c-0.8,0-1.6-0.1-2.2-0.3c-0.7-0.2-1.2-0.4-1.7-0.7c-0.5-0.3-1.1-0.9-1.8-1.6h-0.5l-1.2,2.2h-6.1V0h7.8v10.9
					c0.8-1.2,1.6-2,2.6-2.5C64.2,7.8,65.3,7.6,66.6,7.6z M63.7,13.7c-1.1,0-1.9,0.4-2.4,1.1c-0.5,0.8-0.8,1.9-0.8,3.6v1.1
					c0,1.8,0.3,3.2,0.8,4c0.5,0.8,1.3,1.2,2.5,1.2c0.9,0,1.6-0.5,2.1-1.4c0.5-0.9,0.7-2.3,0.7-4.1C66.6,15.5,65.7,13.7,63.7,13.7z"
					/>
			</defs>
			<clipPath id="SVGID_32_">
				<use xlink:href="#SVGID_31_"  overflow="visible"/>
			</clipPath>
			<g opacity="0.35" clip-path="url(#SVGID_32_)">
				<path fill="#231F20" d="M31.1,7.8h8.2l4.7,13c0.2,0.7,0.4,1.5,0.6,2.5h0.2c0-0.9,0.1-1.7,0.3-2.4l3-13h8l-7.3,24
					c-0.9,3.1-2.2,5.2-3.8,6.5c-1.6,1.3-3.7,1.9-6.4,1.9c-1,0-2.1-0.1-3.2-0.3l-0.4-6.1c0.7,0.2,1.5,0.2,2.4,0.2
					c0.7,0,1.3-0.1,1.8-0.4c0.5-0.3,0.9-0.6,1.3-1.1c0.4-0.5,0.7-1.3,1.1-2.4L31.1,7.8z"/>
			</g>
		</g>
		<g id="y_3_">
			<path fill="#27BDBE" d="M31.1,7.8h8.2l4.4,13.6h0.2L48,7.8h8l-8.9,24c-1.1,3.1-2.6,5.2-4.2,6.5c-1.7,1.3-3.8,1.9-6.5,1.9
				c-1,0-2.1-0.1-3.2-0.3v-6.1c0.7,0.2,1.5,0.2,2.4,0.2c0.7,0,1.3-0.1,1.8-0.4c0.5-0.3,1-0.6,1.4-1.1c0.4-0.5,0.8-1.3,1.2-2.4
				L31.1,7.8z"/>
		</g>
		<g id="o_shadow_3_">
			<defs>
				<path id="SVGID_33_" d="M31.1,7.8h8.2l3.8,13c0.2,0.7,0.3,1.5,0.4,2.5h0.2c0.1-0.9,0.3-1.7,0.5-2.4l3.9-13h8l-8.9,24
					c-1.1,3.1-2.6,5.2-4.2,6.5c-1.7,1.3-3.8,1.9-6.5,1.9c-1,0-2.1-0.1-3.2-0.3v-6.1c0.7,0.2,1.5,0.2,2.4,0.2c0.7,0,1.3-0.1,1.8-0.4
					c0.5-0.3,1-0.6,1.4-1.1c0.4-0.5,0.8-1.3,1.2-2.4L31.1,7.8z"/>
			</defs>
			<clipPath id="SVGID_34_">
				<use xlink:href="#SVGID_33_"  overflow="visible"/>
			</clipPath>
			<g id="o_9_" opacity="0.35" clip-path="url(#SVGID_34_)">
				<path fill="#231F20" d="M37.8,19.2c0.3,3.7-0.5,6.6-2.4,8.6c-1.8,2.1-4.6,3.1-8.1,3.1c-3.4,0-6.2-1.1-8.4-3.2
					c-2.2-2.1-3.4-5-3.6-8.6c-0.3-3.7,0.5-6.5,2.4-8.6c1.8-2,4.6-3.1,8.2-3.1C28,7.6,30,8,31.7,9c1.8,0.9,3.2,2.3,4.2,4.1
					C37,14.8,37.6,16.9,37.8,19.2z M23.1,19.2c0.1,1.9,0.5,3.4,1.1,4.4c0.6,1,1.5,1.5,2.7,1.5c1.2,0,2-0.5,2.5-1.5
					c0.4-1,0.6-2.5,0.4-4.4c-0.1-1.9-0.5-3.4-1.1-4.4c-0.6-1-1.5-1.5-2.7-1.5c-1.2,0-2,0.5-2.5,1.5C23.2,15.8,23,17.3,23.1,19.2z"/>
			</g>
		</g>
		<g id="o_8_">
			<path fill="#27BDBE" d="M36.5,19.7c-0.1,3.7-1.2,6.6-3.2,8.6c-2,2-4.8,3-8.4,2.9c-3.4-0.1-6.1-1.2-8.1-3.4c-2-2.2-2.9-5-2.8-8.7
				c0.1-3.7,1.2-6.5,3.2-8.5c2-2,4.9-2.9,8.4-2.8c2.2,0.1,4.2,0.6,5.8,1.6c1.7,1,3,2.4,3.8,4.2C36.2,15.3,36.6,17.3,36.5,19.7z
				 M21.9,19.3c0,1.9,0.2,3.4,0.7,4.5c0.5,1,1.4,1.6,2.6,1.6c1.2,0,2.1-0.5,2.6-1.5c0.5-1,0.8-2.5,0.9-4.4c0-1.9-0.2-3.4-0.6-4.4
				c-0.5-1-1.3-1.5-2.6-1.5c-1.2,0-2.1,0.4-2.6,1.4C22.2,15.9,21.9,17.4,21.9,19.3z"/>
		</g>
		<g id="t_shadow_3_">
			<defs>
				<path id="SVGID_35_" d="M36.5,19.7c-0.1,3.7-1.2,6.6-3.2,8.6c-2,2-4.8,3-8.4,2.9c-3.4-0.1-6.1-1.2-8.1-3.4c-2-2.2-2.9-5-2.8-8.7
					c0.1-3.7,1.2-6.5,3.2-8.5c2-2,4.9-2.9,8.4-2.8c2.2,0.1,4.2,0.6,5.8,1.6c1.7,1,3,2.4,3.8,4.2C36.2,15.3,36.6,17.3,36.5,19.7z
					 M21.9,19.3c0,1.9,0.2,3.4,0.7,4.5c0.5,1,1.4,1.6,2.6,1.6c1.2,0,2.1-0.5,2.6-1.5c0.5-1,0.8-2.5,0.9-4.4c0-1.9-0.2-3.4-0.6-4.4
					c-0.5-1-1.3-1.5-2.6-1.5c-1.2,0-2.1,0.4-2.6,1.4C22.2,15.9,21.9,17.4,21.9,19.3z"/>
			</defs>
			<clipPath id="SVGID_36_">
				<use xlink:href="#SVGID_35_"  overflow="visible"/>
			</clipPath>
			<g id="t_Shadow_3_" opacity="0.35" clip-path="url(#SVGID_36_)">
				<path fill="#231F20" d="M14.2,24.7c1.1,0,2.3-0.2,3.7-0.7l0.3,5.7c-1,0.4-2,0.7-3,0.9c-0.9,0.2-2.1,0.2-3.3,0.2
					c-2.6-0.1-4.5-0.8-5.7-2.1c-1.2-1.3-1.9-3.3-2-6l-0.4-9.3L1,13.4l-0.1-3.2l3.4-2.4L6,3.1l5.1,0.1l0.2,4.5l5.5,0.1l0.3,5.9
					l-5.5-0.1l0.4,8.8C12,23.9,12.8,24.7,14.2,24.7z"/>
			</g>
		</g>
		<g id="t_3_">
			<path fill="#27BDBE" d="M12.7,24.8c1.1,0,2.3-0.3,3.8-0.8v5.7c-1.1,0.5-2.1,0.8-3,1c-1,0.2-2.1,0.3-3.3,0.3
				c-2.6,0-4.5-0.6-5.7-1.9c-1.2-1.3-1.7-3.3-1.7-5.9v-9.3H0v-3.2l3.5-2.5l2-4.7h5.1V8h5.5v5.8h-5.5v8.8
				C10.6,24.1,11.3,24.8,12.7,24.8z"/>
		</g>
	</g>
</g>
</svg>
