<?xml version="1.0" standalone="no"?>
<!DOCTYPE svg PUBLIC "-//W3C//DTD SVG 1.1//EN" "http://www.w3.org/Graphics/SVG/1.1/DTD/svg11.dtd">
<svg xmlns="http://www.w3.org/2000/svg">
<metadata>Generated by Fontastic.me</metadata>
<defs>
<font id="hody-icons" horiz-adv-x="512">
<font-face font-family="hody-icons" units-per-em="512" ascent="480" descent="-32"/>
<missing-glyph horiz-adv-x="512" />

<glyph glyph-name="add" unicode="&#57344;" d="M384 248l-120 0 0-120-16 0 0 120-120 0 0 16 120 0 0 120 16 0 0-120 120 0z"/>
<glyph glyph-name="add-circle" unicode="&#57345;" d="M256 464c-115 0-208-93-208-208 0-115 93-208 208-208 115 0 208 93 208 208 0 115-93 208-208 208z m0-399c-105 0-191 86-191 191 0 105 86 191 191 191 105 0 191-86 191-191 0-105-86-191-191-191z m8 319l-16 0 0-120-120 0 0-16 120 0 0-120 16 0 0 120 120 0 0 16-120 0z"/>
<glyph glyph-name="alarm" unicode="&#57346;" d="M438 320c13 14 20 32 20 52 0 44-35 79-80 82-2 0-3 0-5 0-21 0-39-7-54-18l54-53-11-10c-25 19-57 32-91 35l0 0c0 9-7 16-15 16-9 0-16-7-16-16l0 0c-34-3-65-16-90-35l-11 10 54 53c-15 11-33 18-54 18-1 0-3 0-4 0-45-3-81-38-81-82 0-20 8-38 20-52l54 52 9-9c-35-32-57-78-57-130 0-43 16-84 43-114l-36-45 12-10 35 43c32-30 75-49 122-49l0 0c0 0 0 0 0 0 47 0 90 19 122 49l35-43 13 10-37 45c27 30 43 71 43 114 0 51-22 98-57 130l9 9z m-362 24c-4 9-6 19-6 28 0 35 28 65 65 67 13 1 23-1 32-6z m340-109c0-87-72-157-160-157-88 0-160 70-160 157 0 88 72 159 160 159 88 0 160-71 160-159z m-71 198c9 5 19 7 32 6 37-2 65-32 65-67 0-10-2-19-6-28z m-89-81l0-128-96 0 0-16 112 0 0 144z"/>
<glyph glyph-name="albums" unicode="&#57347;" d="M464 368l0-288-416 0 0 288 416 0m16 16l-448 0 0-320 448 0z m-408 32l368 0 0-16-368 0z m32 32l304 0 0-16-304 0z"/>
<glyph glyph-name="alert" unicode="&#57348;" d="M256 464c-115 0-208-93-208-208 0-115 93-208 208-208 115 0 208 93 208 208 0 115-93 208-208 208z m0-399c-105 0-191 86-191 191 0 105 86 191 191 191 105 0 191-86 191-191 0-105-86-191-191-191z m0 114c-9 0-16-7-16-16 0-9 7-16 16-16 9 0 16 7 16 16 0 9-7 16-16 16z m-12 100l0 89 24 0 0-89-6-71-12 0z"/>
<glyph glyph-name="american-football" unicode="&#57349;" d="M379 379c-73 72-190 85-262 85-39 0-65-4-65-4 0 0-30-215 81-327 73-72 190-85 262-85 39 0 65 4 65 4 0 0 30 215-81 327z m-314 68c11 1 29 2 52 2l0 0 0 0c27 0 53-2 78-5l-127-127c-1 8-2 15-3 23-4 47-2 88 0 107z m79-303c-24 24-43 55-56 92-7 20-13 41-17 63l142 142c11-2 21-4 31-7 52-13 94-36 124-66 24-24 43-55 56-92 7-20 13-41 17-63l-142-142c-10 2-21 4-31 7-52 13-94 36-124 66z m303-79c-11-1-29-2-52-2-27 0-53 2-78 5l127 127c1-8 2-15 3-23 4-47 2-88 0-107z m-140 129l23-22-29-29 12-11 67 67-11 12-29-29-22 23 29 28-12 12-28-29-23 23 29 28-12 12-28-29-23 23 29 28-12 12-28-29-23 23 29 28-12 12-28-29-23 22 29 29-12 11-67-67 11-12 29 29 22-23-29-28 12-12 28 29 23-23-29-28 12-12 28 29 23-23-29-28 12-12 28 29 23-23-29-28 12-12z"/>
<glyph glyph-name="analytics" unicode="&#57350;" d="M403 403c-81 81-213 81-294 0-81-81-81-213 0-294 81-81 213-81 294 0 81 81 81 213 0 294z m-282-12c75 74 196 74 270 0 38-38 56-88 56-138-3 4-24 35-53 35-28 0-42-26-52-43-1-3-3-5-4-7-11-20-27-31-43-30-13 1-25 12-32 29-10 23-30 47-54 50-12 2-29-1-45-21-4-4-7-10-12-16-10-16-26-40-38-42-21-3-37 13-40 15-2 2-4 4-7 8-7 56 11 116 54 160z m270-270c-74-74-195-74-270 0-24 24-40 53-49 84 7-5 20-13 36-13 3 0 5 0 8 1 19 3 36 28 50 48 4 6 7 11 10 15 10 12 20 17 31 16 13-2 31-17 41-41 10-23 26-37 46-39 22-1 43 13 58 37 2 3 3 5 4 8 9 16 20 35 38 35 11 0 21-7 27-13 8-8 9-9 13-15 4-5 7-9 10-17-5-39-23-76-53-106z"/>
<glyph glyph-name="aperture" unicode="&#57351;" d="M256 464c-115 0-208-93-208-208 0-66 30-124 78-162l-1-1 8-5c35-25 77-40 123-40 115 0 208 93 208 208 0 115-93 208-208 208z m177-133c10-24 15-49 15-75 0-5 0-11-1-16l-162 0 94 163c4-3 9-7 13-11 17-18 31-38 41-61z m-196-76l10 17 19 0 9-16-9-16-20 0z m94 178c12-5 24-12 35-20l-82-141-95 164c22 8 44 12 67 12 26 0 51-5 75-15z m-211-41c16 16 34 28 54 38l82-142-189 0c2 15 6 29 12 43 10 23 24 43 41 61z m0-272c-17 18-31 38-41 61-10 24-15 49-15 75 0 5 0 11 1 16l164 0-95-164c-5 4-9 8-14 12z m61-41c-12 5-24 12-34 19l81 141 94-163c-21-8-43-12-66-12-26 0-51 5-75 15z m211 41c-16-16-35-29-55-38l-82 142 190 0c-2-15-6-29-12-43-10-23-24-43-41-61z"/>
<glyph glyph-name="apps" unicode="&#57353;" d="M154 432c3 0 6-3 6-6l0-52c0-3-3-6-6-6l-52 0c-3 0-6 3-6 6l0 52c0 3 3 6 6 6l52 0m0 16l-52 0c-12 0-22-10-22-22l0-52c0-12 10-22 22-22l52 0c12 0 22 10 22 22l0 52c0 12-10 22-22 22z m128-16c3 0 6-3 6-6l0-52c0-3-3-6-6-6l-52 0c-3 0-6 3-6 6l0 52c0 3 3 6 6 6l52 0m0 16l-52 0c-12 0-22-10-22-22l0-52c0-12 10-22 22-22l52 0c12 0 22 10 22 22l0 52c0 12-10 22-22 22z m128-16c3 0 6-3 6-6l0-52c0-3-3-6-6-6l-52 0c-3 0-6 3-6 6l0 52c0 3 3 6 6 6l52 0m0 16l-52 0c-12 0-22-10-22-22l0-52c0-12 10-22 22-22l52 0c12 0 22 10 22 22l0 52c0 12-10 22-22 22z m-256-160c3 0 6-3 6-6l0-52c0-3-3-6-6-6l-52 0c-3 0-6 3-6 6l0 52c0 3 3 6 6 6l52 0m0 16l-52 0c-12 0-22-10-22-22l0-52c0-12 10-22 22-22l52 0c12 0 22 10 22 22l0 52c0 12-10 22-22 22z m128-16c3 0 6-3 6-6l0-52c0-3-3-6-6-6l-52 0c-3 0-6 3-6 6l0 52c0 3 3 6 6 6l52 0m0 16l-52 0c-12 0-22-10-22-22l0-52c0-12 10-22 22-22l52 0c12 0 22 10 22 22l0 52c0 12-10 22-22 22z m128-16c3 0 6-3 6-6l0-52c0-3-3-6-6-6l-52 0c-3 0-6 3-6 6l0 52c0 3 3 6 6 6l52 0m0 16l-52 0c-12 0-22-10-22-22l0-52c0-12 10-22 22-22l52 0c12 0 22 10 22 22l0 52c0 12-10 22-22 22z m-256-160c3 0 6-3 6-6l0-52c0-3-3-6-6-6l-52 0c-3 0-6 3-6 6l0 52c0 3 3 6 6 6l52 0m0 16l-52 0c-12 0-22-10-22-22l0-52c0-12 10-22 22-22l52 0c12 0 22 10 22 22l0 52c0 12-10 22-22 22z m128-16c3 0 6-3 6-6l0-52c0-3-3-6-6-6l-52 0c-3 0-6 3-6 6l0 52c0 3 3 6 6 6l52 0m0 16l-52 0c-12 0-22-10-22-22l0-52c0-12 10-22 22-22l52 0c12 0 22 10 22 22l0 52c0 12-10 22-22 22z m128-16c3 0 6-3 6-6l0-52c0-3-3-6-6-6l-52 0c-3 0-6 3-6 6l0 52c0 3 3 6 6 6l52 0m0 16l-52 0c-12 0-22-10-22-22l0-52c0-12 10-22 22-22l52 0c12 0 22 10 22 22l0 52c0 12-10 22-22 22z"/>
<glyph glyph-name="appstore" unicode="&#57354;" d="M256 464c-115 0-208-93-208-208 0-115 93-208 208-208 115 0 208 93 208 208 0 115-93 208-208 208z m0-399c-105 0-191 86-191 191 0 105 86 191 191 191 105 0 191-86 191-191 0-105-86-191-191-191z m-117 95l35 29-25 16z m203 54c-7-3-15-14-4-29 9-11 18-8 27-25 5 4 9 22 7 36-2 15-12 26-30 18z m-90 108c1 3 0 7-2 8l-16 9c-2 1-6 0-7-2l-38-65-18-32-17-29 25-15 25 44 19 32z m-21-50l-19-32 89 0-18 32z m120-32l33 0 0 32-51 0z m-170 32l-53 0 0-32 35 0z m144 0l-60 106c-2 3-6 3-8 2l-15-9c-3-1-4-5-2-8l51-91 18-32 1 0 0 0 24 15z m18-32l-5 9-14-9-10-6 13-23 24 15z"/>
<glyph glyph-name="archive" unicode="&#57355;" d="M288 272c9 0 16-7 16-16 0-9-7-16-16-16l-64 0c-9 0-16 7-16 16 0 9 7 16 16 16l63 0m1 16l-64 0c-18 0-32-14-32-32 0-18 14-32 32-32l64 0c18 0 32 14 32 32 0 18-14 32-32 32z m128 112l-320 0 0-80 16 0 0-208 288 0 0 208 16 0z m-32-272l-256 0 0 192 256 0z m16 208l-288 0 0 48 288 0z"/>
<glyph glyph-name="arrow-dropdown" unicode="&#57358;" d="M349 304l13-14-106-114-106 114 13 14 93-100z m-93 160c-115 0-208-93-208-208 0-115 93-208 208-208 115 0 208 93 208 208 0 115-93 208-208 208z m0-17c105 0 191-86 191-191 0-105-86-191-191-191-105 0-191 86-191 191 0 105 86 191 191 191z"/>
<glyph glyph-name="arrow-dropdown-circle" unicode="&#57359;" d="M256 464c-115 0-208-93-208-208 0-115 93-208 208-208 115 0 208 93 208 208 0 115-93 208-208 208z m0-260l93 100 13-14-106-114-106 114 13 14z"/>
<glyph glyph-name="arrow-dropleft" unicode="&#57360;" d="M304 349l-14 13-114-106 114-106 14 13-100 93z m-48 115c-115 0-208-93-208-208 0-115 93-208 208-208 115 0 208 93 208 208 0 115-93 208-208 208z m0-399c-105 0-191 86-191 191 0 105 86 191 191 191 105 0 191-86 191-191 0-105-86-191-191-191z"/>
<glyph glyph-name="arrow-dropleft-circle" unicode="&#57361;" d="M256 464c-115 0-208-93-208-208 0-115 93-208 208-208 115 0 208 93 208 208 0 115-93 208-208 208z m48-301l-14-13-114 106 114 106 14-13-100-93z"/>
<glyph glyph-name="arrow-dropright" unicode="&#57362;" d="M208 349l14 13 114-106-114-106-14 13 100 93z m-160-93c0-115 93-208 208-208 115 0 208 93 208 208 0 115-93 208-208 208-115 0-208-93-208-208z m17 0c0 105 86 191 191 191 105 0 191-86 191-191 0-105-86-191-191-191-105 0-191 86-191 191z"/>
<glyph glyph-name="arrow-dropright-circle" unicode="&#57363;" d="M48 256c0-115 93-208 208-208 115 0 208 93 208 208 0 115-93 208-208 208-115 0-208-93-208-208z m260 0l-100 93 14 13 114-106-114-106-14 13z"/>
<glyph glyph-name="arrow-dropup" unicode="&#57364;" d="M163 208l-13 14 106 114 106-114-13-14-93 100z m93-160c115 0 208 93 208 208 0 115-93 208-208 208-115 0-208-93-208-208 0-115 93-208 208-208z m0 17c-105 0-191 86-191 191 0 105 86 191 191 191 105 0 191-86 191-191 0-105-86-191-191-191z"/>
<glyph glyph-name="arrow-dropup-circle" unicode="&#57365;" d="M256 48c115 0 208 93 208 208 0 115-93 208-208 208-115 0-208-93-208-208 0-115 93-208 208-208z m0 260l-93-100-13 14 106 114 106-114-13-14z"/>
<glyph glyph-name="arrow-round-back" unicode="&#57367;" d="M376 264l-221 0 67 74c3 4 3 8 0 12-3 3-9 3-12 0l-80-88c0-1 0-1 0-1 0 0 0 0 0 0 0 0-1 0-1-1 0 0 0 0 0 0 0 0 0 0 0 0 0 0 0 0 0-1 0 0 0 0 0 0 0 0-1 0-1 0 0 0 0-1 0-1 0 0 0 0 0 0 0 0 0 0 0-1 0 0 0 0 0 0 0 0 0 0 0 0 0-1 0-1 0-2 0 0 0 0 0 0 0 0 0 0 0-1 0 0 0 0 0 0 0 0 0 0 0 0 0 0 0-1 0-1 0 0 1 0 1 0 0 0 0 0 0 0 0-1 0-1 0-1 0 0 0 0 0 0 0 0 0 0 0 0 0-1 1-1 1-1 0 0 0 0 0 0 0 0 0-1 0-1l80-88c2-1 4-2 6-2 2 0 4 1 6 2 3 3 3 8 0 12l-67 74 221 0c4 0 8 4 8 8 0 4-4 8-8 8z"/>
<glyph glyph-name="arrow-round-down" unicode="&#57368;" d="M248 376l0-221-74 67c-4 2-8 3-12 0-3-3-3-9 0-12l88-80c1 0 1 0 1 0 0 0 0 0 0 0 0-1 0-1 1-1 0 0 0 0 0 0 0 0 0 0 0 0 0 0 0 0 1 0 0 0 0 0 0-1 0 0 0 0 0 0 0 0 1 0 1 0 0 0 0 0 0 0 0 0 0 0 1 0 0 0 0 0 0 0 0 0 0 0 0 0 1 0 1 0 2 0 0 0 0 0 0 0 0 0 0 0 1 0 0 0 0 0 0 0 0 0 0 0 0 0 0 0 1 0 1 0 0 0 0 0 0 0 0 0 0 1 0 1 1 0 1 0 1 0 0 0 0 0 0 0 0 0 0 0 0 0 1 0 1 0 1 1 0 0 0 0 0 0 0 0 1 0 1 0l88 80c1 2 2 4 2 6 0 2-1 4-2 6-3 3-8 3-12 0l-74-67 0 221c0 4-4 8-8 8-4 0-8-4-8-8z"/>
<glyph glyph-name="arrow-round-forward" unicode="&#57369;" d="M136 248l221 0-67-74c-2-4-3-9 0-12 3-3 9-3 12 0l80 88c0 0 0 1 0 1 0 0 0 0 0 0 1 0 1 0 1 1 0 0 0 0 0 0 0 0 0 0 0 0 0 0 0 0 0 1 0 0 0 0 1 0 0 0 0 0 0 0 0 0 0 1 0 1 0 0 0 0 0 0 0 0 0 0 0 0 0 1 0 1 0 1 0 0 0 0 0 0 0 1 0 1 0 2 0 0 0 0 0 0 0 0 0 0 0 0 0 1 0 1 0 1 0 0 0 0 0 0 0 0 0 1 0 1 0 0 0 0 0 0 0 0-1 0-1 0 0 0 0 1 0 1 0 0 0 0 0 0 0 0 0 0 0 0 0 0 0 1-1 1 0 0 0 0 0 0 0 0 0 0 0 1l-80 88c-2 1-4 2-6 2-2 0-4-1-6-2-3-3-3-8 0-12l67-74-221 0c-4 0-8-4-8-8 0-4 4-8 8-8z"/>
<glyph glyph-name="arrow-round-up" unicode="&#57370;" d="M264 136l0 221 74-67c4-3 9-3 12 0 3 3 3 9 0 12l-88 80c0 0-1 0-1 0 0 0 0 0 0 0 0 0 0 1-1 1 0 0 0 0 0 0 0 0 0 0 0 0 0 0 0 0-1 0 0 0 0 0 0 0 0 0 0 1 0 1 0 0-1 0-1 0 0 0 0 0 0 0 0 0 0 0 0 0-1 0-1 0-1 0 0 0 0 0 0 0-1 0-1 0-2 0 0 0 0 0 0 0 0 0 0 0 0 0-1 0-1 0-1 0 0 0 0 0 0 0 0 0-1 0-1 0 0 0 0-1 0-1 0 0 0 0 0 0 0 0-1 0-1 0 0 0 0 0 0 0 0 0 0 0 0 0 0 0-1-1-1-1 0 0 0 0 0 0 0 0 0 0-1 0l-88-80c-1-2-2-4-2-6 0-2 1-4 2-6 3-3 8-3 12 0l74 67 0-221c0-4 4-8 8-8 4 0 8 4 8 8z"/>
<glyph glyph-name="at" unicode="&#57372;" d="M434 167c-33-63-98-103-169-103-50 0-97 20-132 56-34 36-53 84-53 136 0 52 19 100 53 136 35 36 82 56 132 56 51 0 94-19 121-54 27-34 35-78 23-125-10-45-33-66-50-75-18-10-42-14-52-5-1 1-1 1-1 1-2 2-3 6-3 9 0 3 1 6 1 10 1 4 2 9 4 13l38 117-21 0-10-27c-5 13-11 21-18 26-8 6-16 8-25 8-14 0-27-3-39-10-11-7-21-16-30-27-8-11-14-24-19-38-5-14-7-28-7-42 0-8 1-15 4-22 2-7 6-14 10-19 5-5 10-10 17-13 6-3 14-5 22-5 10 0 20 3 29 9 8 6 16 12 22 18l1 0c1-9 5-16 10-20 2-2 6-5 11-6l0 0c21-8 42-3 64 9 19 11 46 34 58 85 12 52 3 101-26 139-30 39-78 60-134 60-55 0-106-22-143-61-37-39-58-91-58-147 0-56 21-108 58-147 37-39 88-61 143-61 77 0 147 43 183 112z m-150 59c-7-10-14-18-22-25-8-7-17-10-27-10-9 0-17 3-24 10-6 8-9 17-9 30 0 9 1 20 4 31 4 11 8 21 15 31 6 9 13 17 22 24 8 6 18 9 28 9 4 0 8-1 12-3 4-2 7-5 10-9 3-4 6-8 8-12 1-5 2-9 2-14 0-9-1-20-5-31-3-11-8-22-14-31z"/>
<glyph glyph-name="attach" unicode="&#57373;" d="M344 320c-5 0-9-3-9-8l0-157c0-19-7-38-21-52-14-15-33-23-52-23l-12 0c-39 0-74 36-74 75l0 221c0 31 25 55 56 55 31 0 55-24 55-55l0-214c0-17-14-34-31-34-17 0-32 16-32 34l0 118c0 5-4 8-8 8-5 0-9-3-9-8l0-118c0-29 22-50 49-50 27 0 48 20 48 50l0 214c0 40-32 72-72 72-40 0-72-32-72-72l0-221c0-23 10-47 27-64 18-18 40-27 63-27l12 0c48 0 90 41 90 91l0 157c0 5-4 8-8 8z"/>
<glyph glyph-name="backspace" unicode="&#57374;" d="M395 416l-165 0c-47 0-73-35-102-64-29-28-72-74-72-74-5-6-8-13-8-21 0-8 3-15 8-21 0 0 34-38 72-76 38-37 57-64 102-64l165 0c39 0 69 32 69 71l0 180c0 38-30 69-69 69z m53-249c0-15-5-28-15-39-11-10-24-16-38-16l-165 0c-33 0-48 16-76 45l-86 90c-2 2-4 5-4 10 0 5 2 8 4 10l83 86c12 13 24 25 37 34 14 9 27 13 42 13l165 0c14 0 28-5 38-15 10-10 15-24 15-38z m-132 89l64 63-15 15-63-64-63 64-15-15 63-63-63-63 15-15 63 63 63-63 15 14z"/>
<glyph glyph-name="barcode" unicode="&#57375;" d="M48 128l80 0 0 16-64 0 0 224 64 0 0 16-80 0z m336 256l0-16 64 0 0-224-64 0 0-16 80 0 0 256z m-272-64l16 0 0-128-16 0z m272 0l16 0 0-128-16 0z m-64 32l16 0 0-192-16 0z m-144 0l16 0 0-192-16 0z m71-16l16 0 0-160-16 0z"/>
<glyph glyph-name="baseball" unicode="&#57376;" d="M463 233c0 1 0 2 0 3 0 0 0 0 0 0 1 7 1 13 1 20 0 115-93 208-208 208-8 0-16 0-24-1 0 0 0 0 0 0 0 0 0 0 0 0-97-11-174-89-183-187 0 0 0 0 0 0 0 0 0-1 0-2 0-2 0-3-1-5 0 0 0-1 0-1 0-1 0-2 0-3 0-1 0-1 0-1 0-3 0-5 0-8 0-115 93-208 208-208 3 0 5 0 8 0 0 0 0 0 1 0 1 0 2 0 3 0 1 0 1 0 1 0 2 1 4 1 5 1 1 0 2 0 2 0 0 0 0 0 0 0 98 9 176 86 187 183 0 0 0 0 0 0 0 0 0 0 0 1z m-16 23c0-3 0-5-1-8-10 1-20 2-30 4l6 19-15 5-7-20c-7 2-15 4-22 7-5 2-10 5-15 7l12 17-14 9-12-18c-12 7-24 16-34 25l15 15-12 12-14-15c-10 10-18 21-26 33l19 13-9 13-17-12c-3 5-5 10-8 16-2 7-5 14-7 21l21 7-5 15-20-6c-2 10-3 21-4 31 3 1 5 1 8 1 105 0 191-86 191-191z m-382 0c0 1 0 3 0 4 9-1 18-2 27-3l-7-23 15-5 8 24c8-2 15-5 23-8 5-2 10-4 15-7l-14-20 14-9 14 21c12-7 23-15 34-25l-17-17 11-11 17 17c10-11 19-23 26-35l-21-14 9-13 20 13c2-5 4-10 6-14 3-8 6-16 8-24l-23-7 5-16 22 7c1-8 2-17 3-26-1 0-3 0-4 0-105 0-191 86-191 191z m211-190c-1 10-2 20-4 30l24 8-5 15-23-7c-4 14-9 28-16 42l20 13-9 14-19-13c-8 13-17 25-28 37l17 17-11 11-17-17c-11 11-23 20-36 28l13 18-14 9-13-19c-14 7-28 12-42 16l7 22-15 5-8-23c-10 2-20 3-31 4 10 88 79 158 166 169 1-12 2-23 5-35l-26-8 5-16 25 8c4-14 9-28 16-41l-22-15 9-13 21 14c8-12 17-24 27-36l-19-19 11-11 19 19c12-11 24-20 37-28l-14-21 13-9 15 23c13-7 27-13 41-17l-8-25 15-5 9 27c11-3 23-4 34-5-11-87-81-156-169-166z"/>
<glyph glyph-name="basket" unicode="&#57377;" d="M400 288l0 96c0 35-29 64-64 64l-160 0c-35 0-64-29-64-64l0-96-80 0 53-194c4-17 20-30 39-30l264 0c19 0 35 12 40 29l52 195z m59-16l0 0-13-48-78 0 0 48z m-389-64l74 0 0-64-56 0z m90 0l88 0 0-64-88 0z m192 16l-88 0 0 48 88 0z m-104 0l-88 0 0 48 88 0z m0-96l0-48-88 0 0 48z m16 0l88 0 0-48-88 0z m0 16l0 64 88 0 0-64z m104 64l74 0-17-64-57 0z m-240 176c0 13 5 25 14 34 9 9 21 14 34 14l160 0c13 0 25-5 34-14 9-9 14-21 14-34l0-96-256 0z m16-112l0-48-78 0-13 48z m-44-174l-8 30 52 0 0-48-20 0c-11 0-21 7-24 18z m312 0c-3-11-13-18-24-18l-20 0 0 48 52 0z"/>
<glyph glyph-name="basketball" unicode="&#57378;" d="M256 464c-115 0-208-93-208-208 0-115 93-208 208-208 115 0 208 93 208 208 0 115-93 208-208 208z m191-208c0 0 0 0 0 0-23 2-44 7-65 16-18 7-34 17-49 29 20 30 38 61 52 95 38-35 62-85 62-140z m-74 151c-1-1-1-2-1-2-14-33-31-64-52-93-1 1-3 3-4 4-19 19-34 41-45 66-8 21-14 42-15 65 0 0 0 0 0 0 44 0 84-15 117-40z m-133 39c4-58 31-110 71-147-9-13-20-25-30-37-48 50-105 90-169 119 32 36 77 61 128 65z m41-208c36-41 65-86 87-136-26-19-56-31-88-35-3 48-20 92-47 127 16 14 33 28 48 44z m-19 4c-13-13-26-25-40-36-38 43-94 71-155 74 4 32 16 62 35 88 59-26 112-62 158-108 3-3 7-7 10-10-3-3-5-5-8-8z m-196 22c25-1 49-7 71-16 25-11 47-26 66-45 2-2 5-4 7-7-32-24-66-44-102-60-27 33-43 75-43 120 0 3 0 5 1 8z m53-141c36 17 70 37 101 61 11-14 21-30 28-47 9-23 15-47 16-71-3-1-5-1-8-1-54 0-102 23-137 58z m262-11c-23 51-53 97-89 138 11 12 21 25 31 38 34-27 77-45 123-48-4-51-29-96-65-128z"/>
<glyph glyph-name="battery-charging" unicode="&#57379;" d="M384 368l-304 0c-18 0-32-14-32-32l0-160c0-18 14-32 32-32l304 0c18 0 32 14 32 32l0 160c0 18-14 32-32 32z m16-192c0-9-7-16-16-16l-304 0c-9 0-16 7-16 16l0 160c0 9 7 16 16 16l304 0c9 0 16-7 16-16z m-30 160l-276 0c-9 0-14-5-14-14l0-132c0-9 5-14 14-14l276 0c9 0 14 5 14 14l0 132c0 9-5 14-14 14z m-151-132l8 43-27 0 45 61-8-43 27 0z m213 107l0-110c19 11 32 31 32 55 0 24-13 44-32 55z"/>
<glyph glyph-name="battery-dead" unicode="&#57380;" d="M384 368l-304 0c-18 0-32-14-32-32l0-160c0-18 14-32 32-32l304 0c18 0 32 14 32 32l0 160c0 18-14 32-32 32z m16-192c0-9-7-16-16-16l-304 0c-9 0-16 7-16 16l0 160c0 9 7 16 16 16l304 0c9 0 16-7 16-16z m32 135l0-110c19 11 32 31 32 55 0 24-13 44-32 55z"/>
<glyph glyph-name="battery-full" unicode="&#57381;" d="M384 368l-304 0c-18 0-32-14-32-32l0-160c0-18 14-32 32-32l304 0c18 0 32 14 32 32l0 160c0 18-14 32-32 32z m16-192c0-9-7-16-16-16l-304 0c-9 0-16 7-16 16l0 160c0 9 7 16 16 16l304 0c9 0 16-7 16-16z m-30 160l-276 0c-9 0-14-5-14-14l0-132c0-9 5-14 14-14l276 0c9 0 14 5 14 14l0 132c0 9-5 14-14 14z m62-25l0-110c19 11 32 31 32 55 0 24-13 44-32 55z"/>
<glyph glyph-name="beaker" unicode="&#57382;" d="M445 464l-317 0c-54 0-64-28-64-40 30-4 32-4 32-36 0-16 0-276 0-276 0-35 29-64 64-64l208 0c35 0 63 29 63 65l0 310c2 17 13 31 14 33 1 2 3 4 3 6 0 1 0 2-3 2z m-30-41l0-311c0-13-5-24-14-33-9-10-20-15-33-15l-208 0c-26 0-48 22-48 48l0 275c0 17 0 31-8 41-5 5-11 6-18 8 6 5 18 12 43 12l293 0c0 0-7-6-7-25z m-32-87l0-208c0-10-2-18-5-22-6-6-14-10-21-10l-187 0c-8 0-15 3-19 8-4 5-7 14-7 25l0 207 239 0m16 16l-271 0 0-223c0-28 14-49 42-49l187 0c12 0 24 7 32 15 8 8 10 21 10 33z"/>
<glyph glyph-name="beer" unicode="&#57383;" d="M384 394c0 20-17 38-38 38l-11 1c-6 27-32 47-59 47-27 0-41-12-52-29-8 10-21 15-35 15-18 0-34-11-42-26l-24 0c-25 0-43-20-43-45l0-4c0-29 16-21 16-40 0-18 0-107 0-107 0-13-11-19-11-35 0-9 8-17 17-17l10 0 0 176 272 0c0 0 0 5 0 26z m-16-10l-257 0c0 0-8 0-11 0-3 0-4 4-4 7l0 4c0 8 3 16 8 21 5 6 12 8 19 8l35 0 4 10c5 10 15 17 27 17 9 0 19-5 26-11l11-10 8 10c11 15 26 24 42 24 10 0 20-3 28-10 8-6 13-15 16-25l2-11c0 0 10 0 24-2 14-2 22-10 22-22z m-60-96c0-11-9-20-20-20-11 0-20 9-20 20 0 11 9 20 20 20 11 0 20-9 20-20z m-36-48c0-9-7-16-16-16-9 0-16 7-16 16 0 9 7 16 16 16 9 0 16-7 16-16z m16-80c0-7-5-12-12-12-7 0-12 5-12 12 0 7 5 12 12 12 7 0 12-5 12-12z m-192-112l304 0 0-16-304 0z m320 256l-48 0 0 48-240 0 0-272-16-16 272 0-16 16 0 64 48 0c9 0 16 7 16 16l0 128c0 9-7 16-16 16z m-64-224l-208 0 0 256 208 0z m64 80l-48 0 0 128 48 0z"/>
<glyph glyph-name="bicycle" unicode="&#57384;" d="M125 251c-51 0-93-42-93-94 0-51 42-93 93-93 52 0 94 42 94 93 0 52-42 94-94 94z m55-148c-15-15-34-23-55-23-20 0-40 8-54 23-15 14-23 34-23 54 0 21 8 40 23 55 14 15 34 23 54 23 21 0 40-9 55-23 15-15 23-34 23-55 0-20-8-40-23-54z m140 281c18 0 32 14 32 32 0 18-14 32-32 32-18 0-32-14-32-32 0-18 14-32 32-32z m67-133c-52 0-94-42-94-94 0-51 42-93 94-93 51 0 93 42 93 93 0 52-42 94-93 94z m54-148c-14-15-34-23-54-23-21 0-40 8-55 23-15 14-23 34-23 54 0 21 9 40 23 55 15 15 34 23 55 23 20 0 40-9 54-23 15-15 23-34 23-55 0-20-8-40-23-54z m-73 217l-48 0-29 60c-6 9-16 16-28 16-8 0-16-4-22-9l-72-69c-5-6-9-14-9-23 0-17 13-23 19-27 45-26 61-29 61-42 0-13 0-66 0-66 0-9 7-16 16-16 9 0 16 7 16 16 0 0 0 77 0 90 0 13-30 24-48 38l49 51c18-28 27-51 38-51 10 0 57 0 57 0 9 0 16 7 16 16 0 9-7 16-16 16z"/>
<glyph glyph-name="bluetooth" unicode="&#57385;" d="M286 256l98 87-128 137-16 0 0-180-89 77-23-25 112-96-112-96 23-26 89 79 0-181 16 0 0 0 128 136z m52-89l-66-70 0 128z m-66 119l0 129 66-71z"/>
<glyph glyph-name="boat" unicode="&#57386;" d="M256 64c-30 0-70 7-96 16 0 0-35-23-80-32 32 0 53 9 80 16 23-9 67-16 96-16 29 0 74 6 96 16 27-7 47-16 80-16-44 9-80 32-80 32-26-9-66-16-96-16z m190 185l-31 14-23 122 0 0c-6 27-18 47-40 47l-35 0-8 32-106 0-9-32-34 0c-23 0-35-21-40-47l-23-122-30-14c-7-3-11-9-11-16 0-3 1-5 1-7l55-146c28 0 57 19 57 19 20-10 61-19 87-19 27 0 67 9 87 19 0 0 30-19 57-19l55 146c1 2 1 4 1 7 0 7-4 13-10 16z m-231 199l82 0 4-16-90 0z m-79-66c4 21 11 34 24 34l192 0c13 0 20-13 24-34l21-111-36 17 0 0c9 0 17 5 15 16l-15 80c-3 11-7 16-16 16l-178 0c-8 0-13-5-16-16l-15-80c-1-8 6-16 15-16l1 0-37-17z m120-46l-70-32-33 0 14 77c0 1 1 2 1 3l176 0c0-1 1-2 1-4l15-76-34 0z m-88-219l-8-5c-6-3-21-12-37-15l-51 136c0 1 1 1 1 1l175 82 0-220c-24 2-56 9-72 17z m221-20c-16 3-31 12-37 15l-8 5-8-4c-16-8-48-15-72-17l0 220 175-82c0 0 1 0 1-1z m-77 149c0 12-5 22-12 22-7 0-12-10-12-22 0-12 5-22 12-22 7 0 12 10 12 22z m-88 0c0 12-5 22-12 22-7 0-12-10-12-22 0-12 5-22 12-22 7 0 12 10 12 22z"/>
<glyph glyph-name="body" unicode="&#57387;" d="M256 464c18 0 32-14 32-32 0-18-14-32-32-32-18 0-32 14-32 32 0 18 14 32 32 32m0 16c-27 0-48-21-48-48 0-26 21-48 48-48 27 0 48 22 48 48 0 27-21 48-48 48z m168-112l-336 0c-13 0-24-11-24-24 0-13 11-24 24-24l100 0c6 0 14-4 18-15 4-12 2-33-1-51l-4-21c0-1 0-1 0-1l-32-172c-3-13 6-25 19-28 2 0 3 0 5 0 11 0 20 8 23 20l20 120 0 0c0 0 7 31 19 31l2 0c12 0 17-31 17-31l0 0 21-120c3-12 13-20 24-20 2 0 3 0 5 0 13 3 21 15 19 28l-32 172c0 0 0 0 0 0 0 1 0 1 0 1l-4 21c-3 18-5 39-1 51 4 11 13 15 18 15l100 0c13 0 24 11 24 24 0 13-11 24-24 24z m-336-32c-4 0-8 4-8 8 0 4 4 8 8 8l336 0c4 0 8-4 8-8 0-4-4-8-8-8l-101 0c-16 0-28-15-31-24-5-12-5-32-1-61l0 0 0 0 3-19 1-3 32-172c1-3 0-5-1-6-1-1-2-3-5-3-1 0-1 0-2 0-4 0-7 2-8 6l-21 120 0 0c0 2-2 10-5 19-2 6-5 11-8 15-7 9-15 11-20 11l-2 0c-5 0-13-2-20-11-3-4-6-9-8-15-4-9-6-17-6-18l0-1-21-120c-1-4-4-6-7-6-1 0-1 0-2 0-3 0-4 2-5 3-1 1-2 3-1 6l32 172 0 0 0 1 4 21 0 0 0 0c5 29 4 49 0 61-4 9-14 24-32 24"/>
<glyph glyph-name="bonfire" unicode="&#57388;" d="M255 160l0-1 0-1 15-75 0 0 1-1c0-1 0-3 0-4 0-10-8-14-16-14-5 0-9 1-12 4-2 3-4 6-4 10 0 1 0 2 1 3l0 1 15 78m0 16c-8 0-14-5-16-13l-15-78c-1-2-1-5-1-7 0-18 14-30 32-30 18 0 32 12 32 30 0 3 0 6-1 8l-15 75c-1 9-8 15-16 15z m78-29l41-30 1-1 1 0c0 0 1-1 1-2 1 0 1 0 2-1 0 0 1-1 1-3 0-3-1-6-2-8-2-1-4-2-7-2-2 0-4 1-5 1 0 1 0 1 0 1-1 1-1 2-1 2l-1 0 0 1-31 42m-17 29c-3 0-6-1-8-4-4-4-5-10-2-15l45-62c1-1 2-3 3-4 4-5 11-7 17-7 7 0 13 2 18 7 10 9 9 27 0 35-2 1-3 2-5 3l-60 44c-3 2-5 3-8 3z m-137-29l-31-42 0-1 0 0c-1-1-1-1-1-2-2-1-4-2-6-2-3 0-5 1-6 2-4 4-4 9 0 12 0 1 1 1 1 2l1 0 1 1 41 30m17 29c-3 0-6-1-8-3l-60-43c-1-1-3-3-5-4-9-10-9-25 0-35 5-5 11-7 18-7 6 0 12 2 17 7 1 1 2 3 3 4l45 62c3 5 3 11-1 15-3 3-6 4-9 4z m83 268c10-3 21-9 31-17 15-11 33-29 33-54 0-14-3-24-8-34-7-12-18-23-35-34-8-5-16-9-25-14-30-17-66-37-84-76-3 3-6 5-9 9-14 14-19 34-16 56 4 25 27 46 50 68 29 26 60 55 63 96m-16 20c12-81-102-113-112-181-11-69 48-91 48-91 16 57 72 76 109 100 41 26 51 51 51 81 0 58-73 91-96 91z m93-148c-4-6-8-12-13-18 0 0 2-11 2-20 1-10 0-18-1-20-7-19-16-33-27-40-10-7-22-10-38-10-7 0-17 4-25 11-7 7-11 11-11 11-4-3-7-6-11-10 12-17 32-28 47-28 36 0 64 13 80 60 5 15 2 50-3 64z m-169 118c-1 0-3 0-4 0 2-29-30-44-32-65-1-13 5-25 11-29 4 5 11 12 11 12-5 4-7 13-6 17 1 4 6 10 11 15 6 9 15 19 19 32 1-1 2-1 4-2 2-2 6-4 9-7 3-4 6-7 9-12 0 0 6 8 8 13-9 18-26 26-40 26z m-49-257l-61-13c-6-1-11 2-13 8-1 6 3 11 9 12 0 0 0 0 1 1l61 7c5 0 9-3 9-7 1-4-2-7-6-8z m236 0l61-13c6-1 11 2 13 8 1 6-3 11-9 12 0 0 0 0-1 1l-61 7c-4 0-8-3-9-7 0-4 2-7 6-8z"/>
<glyph glyph-name="book" unicode="&#57389;" d="M348 448c-41 0-79-14-92-44-13 30-51 44-92 44-55 0-100-26-100-79l0-283 22 0c13 26 44 42 78 42 41 0 74-28 82-64l20 0c8 36 41 64 82 64 34 0 61-12 78-42l22 0 0 283c0 53-45 79-100 79z m-100-347c-18 26-49 43-83 43-35 0-65-10-84-36l-1 0 0 263c3 42 40 61 84 61 45 0 82-19 84-62 0-1 0-1 0-2l0-13z m184 263l0-256c-18 26-50 36-84 36-35 0-66-17-84-43l0 267c0 44 38 64 84 64 44 0 81-11 84-53z"/>
<glyph glyph-name="bookmark" unicode="&#57390;" d="M128 464l0-416 128 96 128-96 0 416z m240-384l-112 84-112-84 0 368 224 0z"/>
<glyph glyph-name="bookmarks" unicode="&#57391;" d="M432 448l-150 0c-11 0-20-5-26-12-6 7-15 12-26 12l-150 0c-19 0-33-13-33-32l0-286c0-19 14-34 33-34 0 0 130 0 143 0 14 0 25-4 25-19 0-10 0-13 0-13l16 0c0 0 0 3 0 13 0 15 11 19 25 19 14 0 143 0 143 0 19 0 33 15 33 34l0 286c0 19-14 32-33 32z m-184-347c-5 8-13 11-24 11l-144 0c-9 0-16 8-16 18l0 286c0 9 7 16 16 16 0 0 131 0 143 0 13 0 25-13 25-22z m72 331c19 0 43 0 64 0l0-100-23 14-9 6-9-6-23-14z m128-302c0-10-7-18-16-18l-144 0c-10 0-19-2-24-11l0 309c0 9 12 22 25 22 2 0 7 0 15 0l0-131 48 32 48-32 0 131c19 0 32 0 32 0 9 0 16-7 16-16z"/>
<glyph glyph-name="bowtie" unicode="&#57392;" d="M267 310c-7 0-15-1-23-3-12-2-20-7-20-7 0 0 3-27 0-59-4-31-8-42-8-42 0 0 5-12 40-15 4 0 8-1 11-1 24 0 36 8 36 8 0 0 4 5 5 22 2 32-7 68-17 85-4 9-13 12-24 12z m25-96c0-5-1-9-1-11-5-2-13-3-24-3-3 0-6 0-10 0-12 1-19 3-23 5 2 7 4 19 6 35 2 20 2 38 1 50 2 0 4 1 6 1 6 1 14 3 20 3 9 0 10-3 11-4 4-7 8-19 10-32 4-15 5-31 4-44z m-208 186c-26 0-52-69-52-144 0-76 23-144 52-144 33 0 116 80 116 80 0 0 6 13 10 34l2 10c0 5 1 10 1 15 1 3 1 7 1 10l0 10c1 16-2 32-2 32-22 40-92 97-128 97z m60-236c-43-34-58-36-60-36-4 0-13 8-22 33-9 26-14 60-14 95 0 33 5 67 15 93 10 28 19 35 21 35 4 0 11-1 25-8 11-5 22-13 34-22 23-18 44-39 53-56 1-4 2-13 2-23-8 4-21 8-38 12-28 5-43 3-43 3-1 0-2-1-2-2 0-1 1-2 2-2 0 0 18-4 56-17 9-3 15-5 19-7 2 0 4-1 6-2 0-2 0-5-1-8 0-4-1-9-1-14l-1-2c-5-2-13-5-21-7-17-5-38-10-38-10-1 0-2-1-2-2 0-1 1-2 2-2 2 0 36 3 57 7-3-10-5-17-7-21-6-6-22-21-42-37z m284 236c-37 0-103-57-125-97l0-1c0 0 1-3 1-4 4-6 7-14 10-24l3-11c2-11 3-22 4-33l0-9c0-2 0-5 0-8-1-17-5-22-5-22 8-11 75-79 112-79 29 0 52 68 52 144 0 75-26 144-52 144z m1-272c-12 0-33 12-58 32-16 13-29 27-37 34 2 5 2 11 3 18 0 2 0 3 0 5 21-6 60-10 62-10 0 0 0 0 0 0 1 0 2 1 2 2 1 1 0 2-1 2 0 0-22 7-41 12-8 2-16 5-22 7l0 1 0 0 0 0c-1 11-2 22-4 33 20 11 63 31 63 31 1 0 2 1 2 2-1 1-2 2-3 2 0 0-15-3-35-10-10-4-21-7-30-11l-1 1 0 0c-2 9-5 16-8 23 11 16 29 36 49 52 27 22 48 30 58 30 2 0 12-7 21-35 10-26 15-60 15-93 0-35-5-69-14-95-9-25-18-33-21-33z"/>
<glyph glyph-name="briefcase" unicode="&#57393;" d="M416 384l0 16-32 0 0-16-48 0 0 32c0 18-14 32-32 32l-99 0c-19 0-29-14-29-32l0-32-48 0 0 16-32 0 0-16-48 0 0-320 416 0 0 320z m-224 0l0 30c0 10 3 18 14 18l97 0c10 0 17-8 17-18l0-30-128 0z m256-304l-384 0 0 224 384 0z m0 240l-384 0 0 48 32 0 0-16 32 0 0 16 256 0 0-16 32 0 0 16 32 0z"/>
<glyph glyph-name="browsers" unicode="&#57394;" d="M64 368l0-304 304 0 0 304z m288-288l-272 0 0 272 272 0z m96 368l-304 0 0-64 16 0 0 48 272 0 0-272-48 0 0-16 64 0z"/>
<glyph glyph-name="brush" unicode="&#57395;" d="M150 229c-52 0-84-46-84-95 0-23-10-40-34-49 14-27 62-37 96-37 8 0 16 1 22 2 35 6 80 25 90 77 13 60-39 102-90 102z m75-99c-4-20-14-35-30-46-13-9-29-15-48-19-4 0-10-1-19-1-26 0-54 6-71 17 16 12 25 30 25 52 0 21 7 42 18 56 9 11 25 24 50 24 24 0 48-11 62-29 9-10 18-28 13-54z m243 322c-8 7-17 12-26 12-7 0-13-2-19-7l-175-154c-4 1-7 1-10 1-5 0-9-1-13-4l-64-52c-1-2-1-5 0-6 1-1 1-1 2-1 1 0 1 0 2 0 0 0 0 0 0 0 48-4 92-38 90-91 0 0 0-1 0-1 0-1 1-2 1-3 1 0 2-1 3-1 1 0 2 1 3 1 0 0 0 0 0 0 0 0 0 0 0 1l55 62c4 6 4 14 2 23l154 175c12 15 8 32-5 45z m-7-35l-160-181 2-9c2-4 2-7 1-9l-36-40c-4 18-14 34-29 48-13 12-29 21-47 26l42 35c1 1 2 1 4 1 1 0 3 0 5-1l9-2 181 160c3 2 6 3 9 3 4 0 9-3 14-8 5-4 7-9 8-13 0-2 0-5-3-10z"/>
<glyph glyph-name="bug" unicode="&#57396;" d="M456 256c-5 0-9-1-13-4-5 3-14 6-27 6 0 28-5 54-15 78 9 6 16 15 22 24 0 0 1 0 1 0 13 0 24 11 24 24 0 13-11 24-24 24-13 0-24-11-24-24 0-7 3-13 8-18-3-5-7-10-13-15-28 58-80 97-139 97-59 0-111-39-139-97-6 5-10 11-13 15 5 5 8 11 8 18 0 13-11 24-24 24-13 0-24-11-24-24 0-13 11-24 24-24 0 0 1 0 1 0 6-9 13-17 22-24-9-23-15-50-15-78-13 0-22-3-27-6-4 3-8 4-13 4-13 0-24-11-24-24 0-13 11-24 24-24 13 0 24 11 24 24 0 2 0 5-1 7 4 1 10 3 17 3 3-39 15-74 33-103-6-5-14-13-19-27-13-1-22-12-22-24 0-13 11-24 24-24 13 0 24 11 24 24 0 8-4 16-11 20 4 9 10 14 14 17 27-35 66-58 109-61 1 0 2 0 3 0 1 0 1 0 1 0 1 0 3 0 4 0 1 0 2 0 4 0 0 0 0 0 1 0 1 0 2 0 3 0 43 3 82 26 109 61 4-3 10-8 14-17-7-4-11-12-11-20 0-13 11-24 24-24 13 0 24 11 24 24 0 12-9 22-21 24-6 14-14 22-20 27 18 29 30 64 33 103 7 0 13-2 17-3-1-2-1-5-1-7 0-13 11-24 24-24 13 0 24 11 24 24 0 13-11 24-24 24z m-32 136c5 0 8-4 8-8 0-4-3-8-8-8-4 0-8 4-8 8 0 4 4 8 8 8z m-336-16c-4 0-8 4-8 8 0 4 4 8 8 8 4 0 8-4 8-8 0-4-4-8-8-8z m-32-152c-4 0-8 4-8 8 0 4 4 8 8 8 4 0 8-4 8-8 0-4-4-8-8-8z m56-144c-4 0-8 4-8 8 0 4 4 8 8 8 4 0 8-4 8-8 0-4-4-8-8-8z m288 16c5 0 8-4 8-8 0-4-3-8-8-8-4 0-8 4-8 8 0 4 4 8 8 8z m-144 336c44 0 84-25 111-64-6-9-12-18-20-26-25-24-57-37-91-37-34 0-66 13-90 37-8 8-15 17-21 26 27 39 67 64 111 64z m-144-176c0 36 9 69 24 97 25-37 65-61 112-64l0-209c-76 5-136 82-136 176z m152-176l0 209c47 3 88 27 112 64 15-28 24-61 24-97 0-94-60-171-136-176z m192 144c-4 0-8 4-8 8 0 4 4 8 8 8 4 0 8-4 8-8 0-4-4-8-8-8z"/>
<glyph glyph-name="build" unicode="&#57397;" d="M348 448c4 0 9-1 14-3l-39-39-6-6 2-8 9-51 2-11 11-2 51-10 8-1 6 6 39 39c3-7 3-13 3-15-1-12-6-31-25-50-15-15-39-25-61-25-9 0-18 2-25 6-3 1-9 4-16 4-5 0-14-2-22-10-9-9-181-192-189-200l0-1c-6-6-13-7-17-7-8 0-15 3-21 8-5 6-8 13-8 21 0 5 2 11 8 16l0 1c8 7 193 181 200 188 8 8 10 17 10 22 0 7-2 13-4 16-18 42 11 77 20 87 17 18 40 24 49 25 0 0 0 0 1 0m0 16c-1 0-1 0-2 0-13-1-39-8-60-30-20-21-41-60-23-104 3-6 5-13-2-20-8-7-200-188-200-188-18-16-17-45 0-61 8-9 20-13 31-13 11 0 22 4 30 13 0 0 179 191 188 200 4 4 8 5 11 5 3 0 6-1 9-2 10-6 21-8 32-8 27 0 55 13 72 30 25 24 29 48 30 60 1 12-3 28-17 41l-52-53-51 10-10 51 53 52c-11 12-27 17-39 17z m-245-381c-6-6-15-6-20 0-6 5-6 14 0 20 5 5 14 5 20 0 5-6 5-15 0-20z"/>
<glyph glyph-name="bulb" unicode="&#57398;" d="M400 323c0 78-66 141-144 141-78 0-144-63-144-141 0-31 13-59 30-83l0 0c11-15 21-28 31-45 22-38 19-74 19-81l0-2 128 0 0 2c0 8-3 43 19 81 10 17 20 30 31 45l0 0c17 24 30 52 30 83z m-49-81c-1-1-1-2-2-3-8-11-16-22-24-36-18-30-21-58-21-75l-16 0 0 112 32 64-17 0-31-64 0-112-32 0 0 112-31 64-17 0 32-64 0-112-16 0c0 17-4 46-21 75-4 8-9 15-13 21l0 0-19 26c-16 21-27 47-27 73 0 34 16 65 40 89 23 23 55 36 88 36 33 0 65-13 88-36 24-24 40-55 40-89 0-26-11-52-27-73z m-127-178l64 0 0-16-64 0z m-16 32l96 0 0-16-96 0z"/>
<glyph glyph-name="bus" unicode="&#57399;" d="M416 96c-8-19-24-16-64-16 0-11-1-16 3-16 5 0 51 0 56 0 4 0 4 4 5 32z m-320 0c2-28 1-32 6-32 4 0 50 0 55 0 4 0 3 5 3 16-40 0-50-3-64 16z m280 64c0-13-11-24-24-24-13 0-24 11-24 24 0 13 11 24 24 24 13 0 24-11 24-24z m-192 0c0-13-11-24-24-24-13 0-24 11-24 24 0 13 11 24 24 24 13 0 24-11 24-24z m200 288l-256 0c-18 0-32-14-32-32l0-280c0-22 18-40 40-40l240 0c22 0 40 18 40 40l0 280c0 18-14 32-32 32z m16-312c0-13-11-24-24-24l-240 0c-13 0-24 11-24 24l0 72 288 0z m-288 104l0 128c0 9 7 16 16 16l120 0 0-160-120 0c-9 0-16 7-16 16z m288 0c0-9-7-16-16-16l-120 0 0 160 120 0c9 0 16-7 16-16z m-16 160l-256 0c-9 0-16 7-16 16 0 9 7 16 16 16l256 0c9 0 16-7 16-16 0-9-7-16-16-16z"/>
<glyph glyph-name="cafe" unicode="&#57400;" d="M32 112l448 0 0-16-448 0z m168 16c15 0 66 0 80 0 9 0 58 12 95 80 3 0 6 0 9 0 53 0 96 39 96 88 0 39-27 71-65 83 1 12 1 24 1 37l-352 0c0-256 121-288 136-288z m264 168c0-40-36-72-80-72 0 0-1 0-2 0 16 34 28 79 32 139 29-11 50-37 50-67z m-384 104l320 0c-1-49-7-93-19-130-9-33-23-60-40-82-24-32-50-44-60-44-10 0-69 0-80 0-12 0-38 13-62 44-17 22-31 49-40 82-11 37-18 81-19 130z"/>
<glyph glyph-name="calculator" unicode="&#57401;" d="M144 352l224 0 0 64-224 0z m16 48l192 0 0-32-192 0z m208 48l-224 0c-18 0-32-14-32-32l0-320c0-18 14-32 32-32l224 0c18 0 32 14 32 32l0 320c0 18-14 32-32 32z m16-352c0-9-7-16-16-16l-224 0c-9 0-16 7-16 16l0 320c0 9 7 16 16 16l224 0c9 0 16-7 16-16z m-224 176l0 48-16 0 0-64 64 0 0 16z m0-80l0 48-16 0 0-64 64 0 0 16z m0-80l0 48-16 0 0-64 64 0 0 16z m80 160l0 48-16 0 0-64 64 0 0 16z m80 0l0 48-16 0 0-64 64 0 0 16z m-80-80l0 48-16 0 0-64 64 0 0 16z m0-80l0 48-16 0 0-64 64 0 0 16z m80 0l0 128-16 0 0-144 64 0 0 16z"/>
<glyph glyph-name="calendar" unicode="&#57402;" d="M352 416l0 32-16 0 0-32-160 0 0 32-16 0 0-32-96 0 0-352 384 0 0 352z m80-336l-352 0 0 240 352 0z m0 256l-352 0 0 64 80 0 0-32 16 0 0 32 160 0 0-32 16 0 0 32 80 0z"/>
<glyph glyph-name="call" unicode="&#57403;" d="M416 176c-15 15-56 44-83 44-7 0-12-2-17-5-13-8-24-15-29-15-2 0-5 3-12 8l-1 1c-18 16-22 20-29 28l-2 2c-2 1-3 2-4 3-6 7-10 11-26 29l-1 1c-8 9-13 14-13 18 0 4 3 11 12 23 11 15 11 33 1 53-7 17-20 33-32 47l-1 1c-10 12-21 18-34 18-14 0-25-8-32-12 0 0-1 0-1-1-14-9-24-21-28-33-6-18-9-42 18-92 23-44 45-73 79-107 32-33 46-44 78-67 35-25 69-40 93-40 22 0 40 0 64 30 26 31 16 50 0 66z m-12-55c-20-25-31-25-52-25-20 0-52 14-84 38-31 22-45 32-76 64-33 34-54 62-76 104-24 44-22 63-17 79 3 9 11 18 21 24 1 1 1 1 2 1 5 4 14 9 23 9 8 0 16-4 22-12l1-1c26-31 46-59 31-79-11-15-16-24-16-34 1-10 8-17 18-28l0-1c16-18 21-23 27-30 1-1 3-2 4-3l2-2c7-8 11-12 30-29l1-1c8-7 14-12 23-12 8 0 18 6 37 18 2 1 4 2 8 2 22 0 59-25 72-39 12-12 18-21-1-43z"/>
<glyph glyph-name="camera" unicode="&#57404;" d="M418 352l-62 0c-32 36-42 48-55 48l-88 0c-12 0-22-12-55-48l-13 0 0 16-34 0 0-16-13 0c-18 0-34-13-34-31l0-176c0-17 16-33 34-33l320 0c17 0 30 16 30 33l0 176c0 18-13 31-30 31z m14-207c0-9-6-17-14-17l-320 0c-9 0-18 9-18 17l0 176c0 8 8 15 18 15l67 0 5 3c4 5 8 10 11 14 12 13 20 22 26 27 4 4 6 4 6 4l88 0c0 0 2 0 7-5 6-5 15-16 27-29 2-4 6-7 9-11l5-3 69 0c8 0 14-6 14-15z m-176 177c-47 0-85-38-85-85 0-47 38-86 85-86 47 0 86 39 86 86 0 47-39 85-86 85z m0-155c-38 0-69 32-69 70 0 38 31 69 69 69 38 0 70-31 70-69 0-38-32-70-70-70z m96 153l17 0 0-17-17 0z m-64-83c0-18-14-32-32-32-18 0-32 14-32 32 0 18 14 32 32 32 18 0 32-14 32-32z"/>
<glyph glyph-name="car" unicode="&#57405;" d="M435 309l15 2c7 0 23 3 26 6 3 3 4 6 4 9 0 3-2 8-5 11-3 3-16 5-24 6-2 1-3 1-5 1-3 0-4-1-5-2-3-1-3-12-3-17l-9-2c-4 13-11 36-21 54-12 21-24 28-29 29-4 2-9 3-43 6-33 4-63 4-80 4-17 0-47 0-81-4-33-3-38-4-43-6-5-1-17-8-28-29-10-18-17-41-22-54l-8 2c0 5-1 16-3 17-1 1-2 2-5 2-2 0-3 0-5-1-8-1-21-2-24-6-3-3-5-8-5-11 0-3 1-6 4-9 3-3 19-6 26-6l15-3c0 0-26-14-41-30 0 0-4-25-4-58 0-48 6-88 6-88 26-5 46-6 66-7 5 0 10 0 16 0 4 0 8 0 13 0 24 0 16 7 27 7 0 0 0 0 0 0 11 0 55-4 96-4 41 0 85 4 96 4 0 0 0 0 0 0 11 0 3-7 27-7 5 0 9 0 13 0 6 0 11 0 16 0 20 1 40 2 66 7 0 0 6 40 6 88 0 34-4 58-4 58-14 16-41 31-41 31z m-325 49c5 10 14 27 23 32 0 0 47 10 123 10 77 0 124-10 124-10 8-5 17-22 22-32 4-11 11-34 10-37-1-2 0-3-5-3-2 0-5 0-8 0-15 1-100 2-143 2-43 0-128-1-142-2-4 0-7 0-8 0-6 0-5 1-6 3-1 3 6 26 10 37z m350-212c-18-3-34-4-52-5-5 0-10 0-16 0-4 0-8 0-13 0-5 0-8 1-9 1-3 3-8 7-18 7 0 0 0 0 0 0-4-1-11-1-20-1-19-2-48-4-76-4-28 0-57 2-76 4-9 0-16 1-20 1 0 0 0 0 0 0-10 0-15-4-18-7-1 0-4-1-9-1-6 0-10 0-13 0-6 0-11 0-16 0-17 1-34 2-52 5-1 15-4 43-4 74 0 24 2 43 3 51 11 10 28 21 34 24l14 7c0 0 44 2 157 2 113 0 157-2 157-2l14-7c6-3 23-14 34-24 1-8 3-27 3-51 0-31-2-59-4-74z m-321 88c-10 0-30 1-35 1-4 0-8-4-11-4-2 0-25 4-28 15-2 11 0 23 0 23 16 0 31 0 59-8 28-8 43-23 43-23 0 0-18-4-28-4z m203-61c-12-2-58-3-86-3-28 0-73 1-86 3-13 1-30 17-19 30 8 8 21 13 49 17 30 4 49 4 56 4 7 0 26 0 56-4 28-4 43-9 48-17 11-14-5-29-18-30z m105 73c-3-11-26-15-28-15-2 0-7 4-11 4-5 0-25-1-35-1-10 0-28 4-28 4 0 0 15 15 43 23 28 8 43 8 59 8 0 0 2-12 0-23z m-46-146c0-2 1-4 3-4 0 0 53 0 57 0 5 0 6 3 6 5 1 9 2 22 2 22-26-5-49-6-68-6z m-356 1c1-2 2-5 6-5 4 0 57 0 57 0 2 0 3 2 3 4l0 17c-19 0-42 1-68 6 0 0 1-13 2-22z"/>
<glyph glyph-name="card" unicode="&#57406;" d="M432 400l-352 0c-18 0-32-14-32-32l0-224c0-18 14-32 32-32l352 0c18 0 32 14 32 32l0 224c0 18-14 32-32 32z m-352-16l352 0c9 0 16-7 16-16l0-32-384 0 0 32c0 9 7 16 16 16z m368-64l0-48-384 0 0 48z m-16-192l-352 0c-9 0-16 7-16 16l0 112 384 0 0-112c0-9-7-16-16-16z m-336 64l32 0 0-16-32 0z m64 0l192 0 0-16-192 0z"/>
<glyph glyph-name="cart" unicode="&#57407;" d="M160 112c-13 0-24-11-24-24 0-13 11-24 24-24 13 0 24 11 24 24 0 13-11 24-24 24z m0-32c-4 0-8 4-8 8 0 4 4 8 8 8 4 0 8-4 8-8 0-4-4-8-8-8z m225 32c-14 0-24-11-24-24 0-13 10-24 24-24 13 0 24 11 24 24 0 13-11 24-24 24z m0-32c-5 0-8 4-8 8 0 4 3 8 8 8 4 0 8-4 8-8 0-4-4-8-8-8z m63 304l-325 32c-1 7-4 15-12 21-9 8-24 11-47 11l0-16c19 0 31-3 37-7 5-4 6-9 7-16l0 0 43-234c2-15 7-25 13-33 7-9 17-14 28-14l240 0 0 16-240 0c-5 0-19 0-26 34l-5 30 271 48z m-29-114l-261-46-32 176 304-31z"/>
<glyph glyph-name="cash" unicode="&#57408;" d="M40 144l432 0 0-16-432 0z m8-32l416 0 0-16-416 0z m-16 304l0-256 448 0 0 256z m432-240l-416 0 0 224 416 0z m-80 208l64 0 0-16-64 0z m0-176l64 0 0-16-64 0z m-320 176l64 0 0-16-64 0z m0-176l64 0 0-16-64 0z m192 8c-40 0-72 32-72 72 0 40 32 72 72 72 40 0 72-32 72-72 0-40-32-72-72-72z m0 128c-31 0-56-25-56-56 0-31 25-56 56-56 31 0 56 25 56 56 0 31-25 56-56 56z"/>
<glyph glyph-name="chatboxes" unicode="&#57409;" d="M64 448l256 0 0-96 16 0 0 112-288 0 0-224 112 0 0 16-96 0z m112-112l0-224 163 0 64-64 13 0 0 64 48 0 0 224z m272-208l-48 0 0-55-55 55-153 0 0 192 256 0z"/>
<glyph glyph-name="chatbubbles" unicode="&#57410;" d="M431 191c0 5 1 9 3 13 1 1 2 2 2 3 18 26 28 57 28 90 0 92-77 167-174 167-84 0-154-57-170-133-2-11-4-22-4-34 0-92 75-169 171-169 16 0 36 4 48 7 11 4 22 8 25 9 3 1 6 1 9 1 4 0 7 0 10-2l57-20c0 0 2-1 4-1 4 0 8 4 8 8 0 1-1 3-1 3z m-46-33c-5 2-10 4-16 4-4 0-10-1-12-2-2-1-11-4-11-4-4-1-10-4-15-5-14-4-30-7-44-7-41 0-81 16-110 45-14 14-25 31-33 49-8 19-12 39-12 59 0 10 2 21 4 31 7 33 26 64 54 85 14 11 29 20 46 26 17 6 36 9 54 9 22 0 44-4 64-13 19-8 36-19 51-34 28-28 43-65 43-104 0-29-9-57-25-81 0 0 0-1 0-1-1-1-2-2-2-3-4-7-6-13-6-21 0-7 8-32 13-48z m-80-42c-6-6-12-10-12-10-25-20-56-32-89-32-19 0-37 4-55 11 0 0-1 0-1 1 0 0-1 0-2 0-7 2-14 2-21-1l-42-16 9 48c0 1 0 1 0 2 0 5-1 10-4 14l0 1c-1 0-1 1-2 2-14 22-22 47-22 73 0 30 11 63 38 93 0 4 1 9 2 13 1 4 2 9 4 13l-8-7c-33-28-52-69-52-112 0-29 9-57 25-82 0 0 0 0 0 0 0 0 1-1 1-1 0-1 0-1 0-1 1-2 2-4 2-6l-12-62c0-2 1-5 3-7 1-1 3-2 5-2 1 0 2 0 3 1l56 22c2 0 4 1 6 1 1 0 3-1 5-1 0 0 0 0 1 0 0 0 0 0 0 0 19-8 40-12 61-12 46 0 90 20 120 55 0 0 3 4 7 9-4-1-8-2-13-3-3-2-8-3-13-4z"/>
<glyph glyph-name="checkbox" unicode="&#57411;" d="M216 155c0 0 0 0 0 0 0 0 0 0 0 0z m124 180l-125-126-47 47-18-18 65-65 143 144z m92 97l0-352-352 0 0 352 352 0m16 16l-384 0 0-384 384 0z"/>
<glyph glyph-name="checkmark" unicode="&#57412;" d="M224 182c-2-2-6-4-9-4-3 0-6 2-9 4l-56 56 18 18 47-47 125 126 18-18z"/>
<glyph glyph-name="checkmark-circle" unicode="&#57413;" d="M340 335l-125-126-47 47-18-18 56-56c3-2 6-4 9-4 3 0 7 2 9 4l134 135z m-84 129c-115 0-208-93-208-208 0-115 93-208 208-208 115 0 208 93 208 208 0 115-93 208-208 208z m0-399c-105 0-191 86-191 191 0 105 86 191 191 191 105 0 191-86 191-191 0-105-86-191-191-191z"/>
<glyph glyph-name="clipboard" unicode="&#57414;" d="M272 416c0-9-7-16-16-16-9 0-16 7-16 16 0 9 7 16 16 16 9 0 16-7 16-16z m128 32l-92 0c4-5 7-10 9-16l75 0c4 0 8-4 8-8l0-352c0-4-4-8-8-8l-272 0c-4 0-8 4-8 8l0 352c0 4 4 8 8 8l75 0c2 6 5 11 9 16l-92 0c-9 0-16-7-16-16l0-368c0-9 7-16 16-16l288 0c9 0 16 7 16 16l0 368c0 9-7 16-16 16z m-224-47l0-17-48 0 0-304 256 0 0 304-48 0 0 17c0 9-6 15-15 15l-17 0c0 6-1 11-3 16-2 6-5 11-9 16-9 10-22 16-36 16-14 0-27-6-36-16-4-5-7-10-9-16-2-5-3-10-3-16l-14 0c-9 0-18-6-18-15z m160-49l0 16 32 0 0-272-224 0 0 272 32 0 0-16z m-112 48l0 16c0 18 14 32 32 32 18 0 32-14 32-32l0-16 32 0 0-32-128 0 0 32z"/>
<glyph glyph-name="clock" unicode="&#57415;" d="M264 424c0-4-4-8-8-8-4 0-8 4-8 8 0 4 4 8 8 8 4 0 8-4 8-8z m0-336c0-4-4-8-8-8-4 0-8 4-8 8 0 4 4 8 8 8 4 0 8-4 8-8z m168 168c0-4-4-8-8-8-4 0-8 4-8 8 0 4 4 8 8 8 4 0 8-4 8-8z m-336 0c0-4-4-8-8-8-4 0-8 4-8 8 0 4 4 8 8 8 4 0 8-4 8-8z m23 84c0-4-4-8-8-8-5 0-8 4-8 8 0 4 3 8 8 8 4 0 8-4 8-8z m291-168c0-4-4-8-8-8-5 0-8 4-8 8 0 4 3 8 8 8 4 0 8-4 8-8z m-62 229c0-4-4-8-8-8-4 0-8 4-8 8 0 5 4 8 8 8 4 0 8-3 8-8z m-168-291c0-4-4-8-8-8-4 0-8 4-8 8 0 5 4 8 8 8 4 0 8-3 8-8z m-61 62c0-4-4-8-8-8-5 0-8 4-8 8 0 4 3 8 8 8 4 0 8-4 8-8z m291 168c0-4-4-8-8-8-5 0-8 4-8 8 0 4 3 8 8 8 4 0 8-4 8-8z m-230 61c0-4-4-8-8-8-4 0-8 4-8 8 0 5 4 8 8 8 4 0 8-3 8-8z m168-291c0-4-4-8-8-8-4 0-8 4-8 8 0 5 4 8 8 8 4 0 8-3 8-8z m-78 154c-3 5-8 8-13 8l-30 55c-3 4-8 5-11 3-4-2-5-7-3-11l29-55c-2-5-3-11 0-16 2-3 4-5 6-6l0-114c0-4 4-8 8-8 5 0 8 4 8 8l0 114c8 5 10 14 6 22z m133 139c-81 81-213 81-294 0-81-81-81-213 0-294 81-81 213-81 294 0 81 81 81 213 0 294z m-12-282c-74-74-195-74-270 0-74 74-74 195 0 270 75 74 196 74 270 0 74-75 74-196 0-270z"/>
<glyph glyph-name="close" unicode="&#57416;" d="M340 352l-84-84-84 84-12-12 84-84-84-84 12-12 84 84 84-84 12 12-84 84 84 84z"/>
<glyph glyph-name="close-circle" unicode="&#57417;" d="M403 403c-81 81-213 81-294 0-81-81-81-213 0-294 81-81 213-81 294 0 81 81 81 213 0 294z m-12-282c-74-74-195-74-270 0-74 74-74 195 0 270 75 74 196 74 270 0 74-75 74-196 0-270z m-51 231l-84-84-84 84-12-12 84-84-84-84 12-12 84 84 84-84 12 12-84 84 84 84z"/>
<glyph glyph-name="closed-captioning" unicode="&#57418;" d="M480 96l-448 0 0 320 448 0z m-432 16l416 0 0 288-416 0z m222 10c-5 0-9 0-14 0-5 0-9 0-14 0-36 0-81 0-114 3-36 4-56 24-59 60l0 8c-2 25-3 42-3 63 0 24 0 39 3 71 4 36 24 56 59 60 32 3 88 3 128 3 41 0 96 0 128-3 35-4 55-24 59-60 3-32 3-47 3-71 0-21-1-38-3-63l0-8c-2-36-23-56-59-60-33-3-78-3-114-3z m-14 16c5 0 9 0 14 0 35 0 80 0 112 3 28 3 43 18 45 45l0 8c2 25 3 41 3 62 0 24 0 38-3 70-3 28-17 42-45 45-31 3-86 3-126 3-40 0-95 0-126-3-28-3-42-17-45-46-3-31-3-45-3-69 0-21 1-37 3-62l0-8c2-27 17-42 45-45 32-3 77-3 112-3 5 0 10 0 14 0z m82 196c17 0 29-5 37-14 6-6 10-15 11-27l-14 0c-5 18-20 30-38 30-11 0-20-4-27-12-7-7-11-16-13-28 0 0-1-11-1-28 0-15 1-23 1-26 2-23 19-40 40-40 11 0 21 4 29 12 4 5 8 11 9 18l15 0c-2-12-6-21-11-27-8-9-22-13-42-13-10 0-19 1-26 3-6 2-11 5-14 10-5 5-8 13-11 22-2 11-4 25-4 42 0 16 2 30 5 41 3 9 7 17 12 22 5 6 10 9 17 11 7 2 16 4 25 4m0 16c-11 0-21-2-30-5-9-3-17-8-24-15-6-7-12-17-15-29-4-12-6-27-6-45 0-18 2-33 5-46 3-12 7-21 13-28 6-8 13-13 22-15 8-3 19-5 30-5 25 0 43 7 54 19 11 12 16 30 16 54l-46 0c0 0 0-3 0-3l0-1c0-16-10-26-23-26-14 0-23 11-24 26 0 0-1 8-1 24 0 16 1 26 1 26 2 17 11 26 24 26 14 0 24-12 24-30 0 0 0 0 0 0l45 0c0 22-5 42-16 54-11 12-27 19-49 19z m-155-16c17 0 29-5 37-14 6-6 10-15 12-27l-15 0c-5 18-19 30-37 30-12 0-21-4-28-12-7-7-11-16-12-28-1 0-2-11-2-28 0-15 1-23 1-26 3-23 19-40 40-40 11 0 21 4 29 12 4 5 8 11 9 18l15 0c-2-12-6-21-11-27-8-9-22-13-42-13-10 0-19 1-26 3-6 2-11 5-14 10-5 5-8 13-10 22-3 11-4 25-4 42 0 16 1 30 4 41 3 9 7 17 12 22 5 6 10 9 17 11 7 2 16 4 25 4m0 16c-11 0-21-2-30-5-9-3-17-8-24-15-6-7-11-17-15-29-4-12-6-27-6-45 0-18 2-33 5-46 3-12 7-21 13-28 6-8 13-13 22-15 8-3 19-5 31-5 25 0 43 7 53 19 11 12 17 30 17 54l-47 0c0 0 0-3 0-3l0-1c0-16-10-26-23-26-14 0-23 11-24 26 0 0-1 8-1 24 0 16 1 26 1 26 3 17 11 26 24 26 14 0 24-12 24-30 0 0 0 0 0 0l46 0c0 22-6 42-17 54-11 12-27 19-49 19z"/>
<glyph glyph-name="cloud" unicode="&#57419;" d="M413 286c-7 64-59 114-125 114-45 0-87-23-109-58-8 4-17 6-26 6-35 0-62-27-63-62-35-11-58-42-58-78 0-44 36-80 80-80l289 0c43 0 79 36 79 80 0 40-29 72-67 78z m-12-142l-289 0c-36 0-64 29-64 64 0 14 4 27 13 39 8 11 20 20 34 24l11 4 0 11c0 12 5 24 14 33 9 8 20 13 33 13 6 0 13-1 19-4l12-6 8 12c21 31 58 50 96 50 28 0 52-10 73-29 20-18 33-43 36-71l1-12 13-2c14-2 28-10 38-21 10-12 15-26 15-41 0-35-28-64-63-64z"/>
<glyph glyph-name="cloud-circle" unicode="&#57420;" d="M274 336c14 0 28-5 38-15 10-10 16-23 18-38l1-12 12-2c15-2 25-15 25-30 0-8-3-16-9-22-5-6-13-9-20-9l-166 0c-7 0-15 3-20 9-6 6-9 14-9 22 0 14 9 27 22 31l11 4 0 11c0 11 9 20 20 20 3 0 8-1 12-2 4-2 9-4 9-4l7 11c11 16 30 26 49 26m0 16c-25 0-49-13-62-34-5 2-10 4-15 4-20 0-35-17-36-37-20-6-33-25-33-46 0-25 20-47 45-47l166 0c25 0 45 21 45 47 0 23-17 43-38 46-4 38-34 67-72 67z m-18 96c26 0 51-5 75-15 23-10 43-24 61-41 17-18 31-39 41-61 10-24 15-49 15-75 0-26-5-51-15-75-10-23-24-43-41-61-18-17-38-31-61-41-24-10-49-15-75-15-26 0-51 5-75 15-23 10-43 24-61 41-17 18-31 38-41 61-10 24-15 49-15 75 0 26 5 51 15 75 10 23 24 43 41 61 18 17 39 31 61 41 24 10 49 15 75 15m0 16c-115 0-208-93-208-208 0-115 93-208 208-208 115 0 208 93 208 208 0 115-93 208-208 208z"/>
<glyph glyph-name="cloud-done" unicode="&#57421;" d="M309 296l-77-77-29 29-11-11 35-34c1-2 3-3 5-3 2 0 4 1 6 3l82 82z m104-10c-7 64-59 114-125 114-45 0-86-23-109-58-8 4-17 6-26 6-35 0-62-28-63-62-35-11-58-42-58-78 0-44 36-80 80-80l289 0c43 0 79 36 79 80 0 40-29 72-67 78z m-12-142l-289 0c-35 0-64 29-64 64 0 14 4 27 13 39 8 11 20 20 34 24l11 4 0 11c0 12 5 24 14 33 9 8 20 13 32 13 7 0 14-1 20-4l12-6 8 11c21 32 58 51 96 51 28 0 52-10 73-29 20-18 33-43 36-71l1-12 13-2c14-2 28-10 38-21 10-12 15-26 15-41 0-35-28-64-63-64z"/>
<glyph glyph-name="cloud-download" unicode="&#57422;" d="M177 150l-11-12 90-90 91 90-12 12-71-71 0 225-16 0 0-225z m236 200c-7 64-59 114-125 114-45 0-87-23-109-58-8 4-17 6-26 6-35 0-62-27-63-62-35-11-58-42-58-78 0-44 36-80 80-80l96 0 0 16-96 0c-36 0-64 29-64 64 0 14 4 27 13 39 8 11 20 20 34 24l11 4 0 11c0 12 5 24 14 33 9 8 20 13 33 13 6 0 13-1 19-4l12-6 8 12c21 31 58 50 96 50 28 0 52-10 73-29 20-18 33-43 36-71l1-12 13-2c14-2 28-10 38-21 10-12 15-26 15-41 0-35-28-64-63-64l-97 0 0-16 97 0c43 0 79 36 79 80 0 40-29 72-67 78z"/>
<glyph glyph-name="cloud-upload" unicode="&#57423;" d="M335 250l12 12-91 90-90-90 11-12 71 71 0-257 16 0 0 257z m78 84c-7 64-59 114-125 114-45 0-87-23-109-58-8 4-17 6-26 6-35 0-62-27-63-62-35-11-58-42-58-78 0-44 36-80 80-80l96 0 0 16-96 0c-36 0-64 29-64 64 0 14 4 27 13 39 8 11 20 20 34 24l11 4 0 11c0 12 5 24 14 33 9 8 20 13 33 13 6 0 13-1 19-4l12-6 8 12c21 31 58 50 96 50 28 0 52-10 73-29 20-18 33-43 36-71l1-12 13-2c14-2 28-10 38-21 10-12 15-26 15-41 0-35-28-64-63-64l-97 0 0-16 97 0c43 0 79 36 79 80 0 40-29 72-67 78z"/>
<glyph glyph-name="cloudy" unicode="&#57424;" d="M236 400c29 0 54-9 74-27 17-16 30-38 35-63l3-13 14 0c2 1 4 1 5 1 1 0 3 0 4 0 1 0 2 0 3 0 24 0 46-10 63-28 18-18 27-41 27-65 0-25-9-48-26-65-17-18-40-28-64-28l-258 0c-18 0-35 8-48 22-13 13-20 31-20 50 0 17 7 35 19 49 11 14 27 22 43 24l17 1-2 16c0 4-1 7-1 11 0 31 12 59 33 81 22 22 50 34 79 34m0 16c-70 0-128-60-128-131 0-4 1-8 1-13-43-4-77-44-77-88 0-47 38-88 85-88l257 0c59 0 106 49 106 108 0 59-47 109-106 109-2 0-4 0-7 0-2 0-4 0-6 0-12 53-55 103-125 103z"/>
<glyph glyph-name="cloudy-night" unicode="&#57425;" d="M277 217c-1 0-1 0-2 0-3 0-5 0-8-1-9 41-45 72-89 72-50 0-91-41-91-92 0-3 0-6 0-9-31-2-55-30-55-62 0-33 27-62 60-62l185 0c41 0 75 35 75 76 0 42-34 78-75 78z m42-120c-12-11-27-18-42-18l-185 0c-12 0-23 5-31 14-8 9-13 21-13 33 0 11 4 22 12 31 8 8 18 13 28 14l17 2-2 16c0 2 0 5 0 7 0 42 33 76 75 76 17 0 34-6 47-17 14-11 23-26 27-42l3-14 14 2c2 0 4 0 6 0l2 0c15 0 30-7 42-18 11-12 17-27 17-43 0-16-6-32-17-43z m131 109c-2 0-5 0-7 0-42 0-81 16-110 44-29 29-46 67-46 107 0 23 6 46 16 66 4 9 9 17 15 25l-1 0c-10-1-20-3-30-6-62-19-108-73-114-138 2 0 3 0 5 0 4 0 7 0 11-1 3 26 12 51 28 72 18 22 42 40 69 49-10-21-14-43-14-67 0-45 17-87 50-118 32-32 75-49 121-49 1 0 1 0 2 0-21-22-48-37-77-43 0-2 0-5 0-7 0-3 0-6 0-9 37 7 70 26 94 54 7 8 13 15 18 24-10-2-20-3-30-3z"/>
<glyph glyph-name="code" unicode="&#57426;" d="M320 352l14 13 114-109-114-109-14 13 100 96z m-128 0l-14 13-114-109 114-109 14 13-100 96z"/>
<glyph glyph-name="code-download" unicode="&#57427;" d="M320 352l14 13 114-109-114-109-14 13 100 96z m-128 0l-14 13-114-109 114-109 14 13-100 96z m127-96l12-11-75-69-74 69 11 11 55-48 0 128 16 0 0-128z"/>
<glyph glyph-name="code-working" unicode="&#57428;" d="M320 352l14 13 114-109-114-109-14 13 100 96z m-128 0l-14 13-114-109 114-109 14 13-100 96z m80-96c0-9-7-16-16-16-9 0-16 7-16 16 0 9 7 16 16 16 9 0 16-7 16-16z m-64 0c0-9-7-16-16-16-9 0-16 7-16 16 0 9 7 16 16 16 9 0 16-7 16-16z m128 0c0-9-7-16-16-16-9 0-16 7-16 16 0 9 7 16 16 16 9 0 16-7 16-16z"/>
<glyph glyph-name="cog" unicode="&#57429;" d="M261 432l6-22 2-10 10-2 13-3 9-2 6 8 14 19 7-3-3-22-2-10 8-6 11-7 8-6 9 5 20 11 5-5-11-19-6-9 6-8 8-11 5-8 10 1 22 4 3-7-18-14-8-6 2-9 3-14 1-9 10-3 21-6 0-7-21-5-10-3-1-10-3-14-2-9 8-6 17-13-2-7-22 3-10 2-5-8-8-12-6-8 5-9 11-18-5-6-19 11-9 5-8-6-11-7-7-6 1-9 3-22-6-3-14 18-6 8-10-2-13-3-10-2-2-10-6-21-7 0-6 21-2 10-10 2-13 3-10 2-7-8-13-18-6 3 2 22 2 10-9 5-11 8-8 5-9-5-19-12-5 5 11 20 5 9-5 8-7 11-6 9-10-2-22-3-3 7 18 13 8 6-2 10-2 13-2 10-10 2-23 6 0 7 23 6 10 2 2 10 2 12 3 10-9 6-19 15 3 6 23-3 11-1 5 8 7 11 5 8-5 9-12 21 5 5 20-13 8-5 9 5 11 8 9 5-1 10-3 24 6 3 15-19 6-8 9 1 13 3 9 2 3 9 6 23 7 0m13 16l-32 0-10-35-12-2-21 29-30-12 5-36-12-7-31 19-23-23 19-31-6-11-36 5-12-30 29-21-3-12-35-9 0-32 35-9 2-13-28-21 12-30 35 5 8-11-18-30 22-23 30 18 12-7-5-34 30-13 20 28 14-3 9-33 32 0 8 33 13 3 21-27 30 12-5 34 10 7 29-17 23 23-17 29 8 11 33-4 13 29-27 21 2 13 33 9 0 32-33 8-2 14 27 20-12 30-34-5-8 11 18 30-23 22-30-17-11 7 6 35-30 12-21-28-13 3z m-18-64c-71 0-128-57-128-128 0-71 57-128 128-128 71 0 128 57 128 128 0 71-57 128-128 128z m-111-146c0 6-1 12-1 18 0 30 12 58 33 79 21 21 49 33 79 33 6 0 12-1 18-1 1-1 3-1 4-1l-28-104-104-28c0 1 0 3-1 4z m181-70c-20-15-44-24-70-24-30 0-58 12-79 33-11 11-20 24-25 38-1 1-1 2-1 3l103 28 75-75c-1-1-2-2-3-3z m17 17c-1-1-2-2-3-3l-75 75 28 105c1-1 2-1 3-2 15-5 28-14 39-25 21-21 33-49 33-79 0-26-9-51-25-71z"/>
<glyph glyph-name="color-fill" unicode="&#57430;" d="M411 212l-183 182-57 56c-9 9-21 14-33 14-13 0-25-5-34-14-19-19-19-49 0-68l49-49-105-104 171-165c0 0 135 131 146 142 6 5 19 7 29 7 10 0 17-1 17-1z m-296 181c-6 6-9 14-9 23 0 9 3 17 9 23 6 6 14 9 22 9 9 0 17-3 23-9l50-50-46-45z m239-176c-9-9-102-99-135-131l-148 143 150 149 152-151c-8-2-14-5-19-10z m62-41c0 0-48-53-48-80 0-27 22-48 48-48 27 0 48 22 48 48 0 27-48 80-48 80z m23-103c-6-6-14-9-23-9-18 0-32 14-32 32 0 2 1 13 21 40 4 6 8 11 11 15 3-4 7-9 11-14 20-28 21-39 21-41 0-9-3-17-9-23z"/>
<glyph glyph-name="color-filter" unicode="&#57431;" d="M366 300c1 6 2 13 2 20 0 62-50 112-112 112-62 0-112-50-112-112 0-7 1-14 2-20-47-13-82-57-82-108 0-62 50-112 112-112 31 0 60 13 80 34 20-21 49-34 80-34 62 0 112 50 112 112 0 51-35 95-82 108z m-206 20c0 53 43 96 96 96 53 0 96-43 96-96 0-6-1-11-1-17-5 1-10 1-15 1-31 0-60-13-80-34-20 21-49 34-80 34-5 0-10 0-15-1 0 6-1 11-1 17z m112-128c0-20-6-38-16-53-10 15-16 33-16 53 0 6 1 11 1 17 5-1 10-1 15-1 5 0 10 0 15 1 0-6 1-11 1-17z m-16 32c-3 0-7 0-10 1 2 7 6 14 10 20 4-6 8-13 10-20-3-1-7-1-10-1z m-26 4c-30 8-54 31-64 59 3 1 7 1 10 1 27 0 52-11 70-30-7-9-13-19-16-30z m36 30c18 18 43 30 70 30 3 0 7 0 10-1-10-28-34-51-64-59-3 11-9 21-16 30z m-90-162c-53 0-96 43-96 96 0 44 30 81 70 92 12-35 40-62 76-72-1-6-2-13-2-20 0-25 8-48 22-66-18-19-43-30-70-30z m160 0c-27 0-52 11-70 30 14 18 22 41 22 66 0 7-1 14-2 20 36 10 64 37 76 72 40-11 70-48 70-92 0-53-43-96-96-96z"/>
<glyph glyph-name="color-palette" unicode="&#57432;" d="M285 432c46 0 88-15 118-41 19-17 29-39 29-63 0-23-10-46-29-62l-31-27c-10-9-16-21-16-34 0-13 6-25 16-34 10-8 17-11 31-14l1 0c6-1 12-2 15-5 3-2 5-8 5-13 0-2-1-7-4-11-35-30-85-48-139-48 0 0-1 0-1 0-27 0-52 4-77 13-25 9-47 22-66 38-18 17-33 36-43 58-9 20-14 42-14 65 0 22 5 44 14 65 10 21 25 40 43 57 41 36 95 56 148 56m0 16c-55 0-113-20-158-60-84-74-84-195 0-269 41-36 97-55 153-55 0 0 1 0 1 0 56 0 110 18 149 52 14 13 12 37 0 48-7 6-16 8-25 9-11 2-15 4-22 10-14 13-14 31 0 44l30 27c47 41 47 108 0 149-34 30-80 45-128 45z m35-80c9 0 16-7 16-16 0-9-7-16-16-16-9 0-16 7-16 16 0 9 7 16 16 16m0 16c-18 0-32-14-32-32 0-18 14-32 32-32 18 0 32 14 32 32 0 18-14 32-32 32z m-96-5c9 0 16-7 16-16 0-9-7-16-16-16-9 0-16 7-16 16 0 9 7 16 16 16m0 16c-18 0-32-14-32-32 0-18 14-32 32-32 18 0 32 14 32 32 0 18-14 32-32 32z m-72-83c9 0 16-7 16-16 0-9-7-16-16-16-9 0-16 7-16 16 0 9 7 16 16 16m0 16c-18 0-32-14-32-32 0-18 14-32 32-32 18 0 32 14 32 32 0 18-14 32-32 32z m8-110c9 0 16-7 16-16 0-9-7-16-16-16-9 0-16 7-16 16 0 9 7 16 16 16m0 16c-18 0-32-14-32-32 0-18 14-32 32-32 18 0 32 14 32 32 0 18-14 32-32 32z m136-122c-26 0-48 21-48 48 0 26 22 48 48 48 27 0 48-22 48-48 0-27-21-48-48-48z m0 80c-18 0-32-14-32-32 0-18 14-32 32-32 18 0 32 14 32 32 0 18-14 32-32 32z"/>
<glyph glyph-name="color-wand" unicode="&#57433;" d="M192 362l-34-34 256-256 34 34z m21-66l11 12 202-202-12-11z m-29 152l16 0 0-40-16 0z m0-204l16 0 0-40-16 0z m96 92l40 0 0-16-40 0z m-216 0l40 0 0-16-40 0z m36 70l11 12 29-29-12-11z m28-133l12-11-29-28-11 11z m145 145l11-12-28-28-12 11z"/>
<glyph glyph-name="compass" unicode="&#57434;" d="M256 464c-115 0-208-93-208-208 0-115 93-208 208-208 115 0 208 93 208 208 0 115-93 208-208 208z m0-399c-105 0-191 86-191 191 0 105 86 191 191 191 105 0 191-86 191-191 0-105-86-191-191-191z m-32 223l-96-160 160 96 96 160z m-49-113l61 101 40-40z"/>
<glyph glyph-name="construct" unicode="&#57435;" d="M137 86c-5-6-14-6-20 0-5 5-5 14 0 19 6 6 15 6 20 0 6-5 6-14 0-19z m76 185l26 26c3-3-1 1 9-8 4 4 8 7 11 11-19 19-14 14-14 14-2 1-4 2-7 2-1 0-2 0-4-1l-5-3c-29 28-36 41-35 62 1 23 13 37 31 53 25 21 61 15 61 15 8 0-5 9-11 13-9 6-23 9-38 9-14 0-30-2-47-9-46-19-74-46-81-53-7-7-17-18-23-26-6-9 2-21-6-29-8-8-25 0-25 0-1 0-2-1-3-2l-35-34c-2-2-2-5 0-8l64-63c1-1 2-1 4-1 1 0 3 0 4 1l33 35c2 2 2 6 0 8 0 0-5 5-12 12-7 7 1 19 5 23 5 4 12 7 21 7 5 0 8-1 12-2 12-3 26-16 51-41l-4-6c-3-4-1-8 1-10 0 0-5 4 13-14 4 4 8 8 12 11-9 10-5 5-8 8z m-3 23l-4 4c-24 24-38 37-54 41-5 1-9 2-16 2-11 0-19-2-28-8-11-7-19-22-19-32 0-9 7-14 12-20l-19-19-46 45 19 19 8-1c13 0 23 4 29 10 9 9 8 20 8 27 0 2 0 4 0 5 5 8 14 18 20 24 12 12 37 33 76 49 12 5 24 8 36 8-7-2-13-5-17-9-23-18-36-40-37-64-1-29 11-46 39-74l2-2-7-7z m233-187l-39-38c-16 19-61 71-108 120-4-4-8-8-11-12 58-61 115-128 115-128 1-1 2-1 4-1 1 0 3 0 4 1l55 55c2 2 2 6 0 8 0 0-69 57-131 116-3-4-7-8-11-12 49-47 103-93 122-109z m37 280l-53-53-51 9-9 52 52 52c-11 12-27 17-39 17-1 0-1 0-2 0-12-1-39-8-60-30-20-21-41-61-22-104 2-6 4-13-3-20-2-1-10-9-23-21-3-4-7-7-11-11-8-8-17-17-27-26-4-3-8-7-12-11-57-54-127-119-127-119-18-16-16-45 0-61 9-9 20-13 32-13 11 0 21 4 29 13 0 0 66 70 120 127 3 4 7 8 11 12 9 10 18 19 25 27 4 4 8 8 11 12 12 12 20 20 21 22 4 4 8 5 11 5 4 0 7-1 9-3 10-5 21-7 32-7 27 0 55 12 73 30 24 24 29 48 29 60 1 12-3 28-16 41z m0-40c0-12-5-31-25-50-15-15-39-25-61-25-9 0-17 2-25 6-3 1-9 4-15 4-6 0-14-2-23-10-9-9-181-192-188-200l-1-1c-6-6-13-7-17-7-8 0-15 3-20 8-6 6-9 13-9 21 1 5 2 11 8 16l0 1 0 0c8 7 193 181 200 188 8 8 10 17 10 22 0 7-2 13-3 16-19 42 10 77 19 87 17 18 40 24 49 25 1 0 1 0 1 0 4 0 9-1 14-3l-38-39-6-6 1-9 9-51 2-11 11-2 51-9 9-1 6 5 39 40c2-7 2-13 2-15z"/>
<glyph glyph-name="contact" unicode="&#57436;" d="M256 464c-115 0-208-93-208-208 0-115 93-208 208-208 115 0 208 93 208 208 0 115-93 208-208 208z m0-17c105 0 191-86 191-191 0-47-17-89-45-122 0 0 0 0 0 0-20 8-66 24-93 32-2 0-3 1-3 10 0 9 4 17 7 24 4 7 8 20 9 31 4 5 10 15 14 33 3 16 2 22-1 28 0 0 0 1 0 2-1 3 0 23 3 38 2 11-1 33-15 52-9 11-27 26-58 28l-18 0c-31-2-49-17-58-28-14-19-17-41-15-52 3-15 4-35 3-38 0-1 0-2 0-2-3-6-4-12-1-28 4-18 10-28 14-33 1-11 5-24 9-31 3-6 4-13 4-24 0-10-1-10-3-11-28-8-72-24-90-32-28 34-45 76-45 123 0 105 86 191 191 191z m-135-326c20 8 59 22 84 29l0 0c8 3 11 9 13 13 0 3 1 7 1 13 0 13-2 23-6 30-3 7-6 18-8 27l0 5-3 4c-2 2-7 9-10 25-3 13-2 16-1 19l0 0 0 0c0 1 1 2 1 3l0 1 0 0c2 8 0 32-3 45-1 6 1 24 12 39 7 9 21 20 46 22l17 0c25-2 39-13 46-22 12-15 13-33 12-39-3-13-5-37-3-45l0 0 0 0c0-2 1-3 1-4 1-3 2-6 0-19-3-16-8-23-10-25l-3-4-1-5c-1-9-5-20-8-26-4-9-8-19-8-31 0-5 0-9 1-13 2-4 5-10 13-13l0 0c24-7 64-20 86-29-34-34-82-56-134-56-52 0-100 22-135 56z"/>
<glyph glyph-name="contacts" unicode="&#57437;" d="M256 464c-115 0-208-93-208-208 0-115 93-208 208-208 115 0 208 93 208 208 0 115-93 208-208 208z m0-399c-52 0-100 22-135 56l-11 12c-3 4-6 8-9 12 5 4 10 7 16 9 11 4 22 4 33 7 9 2 21 6 28 12 6 6 7 16 7 24 1 7 1 14 1 21 0 5-6 7-9 11-4 6-5 16-5 23-1 3-1 7-4 9-3 3-5 4-6 8-2 5-3 11-5 16-1 4 3 7 4 10 3 5-2 13-3 19-2 16-2 34 10 47 23 26 78 18 85-19 3-11 1-25-2-36-1-5-3-8 0-13 4-7 2-11 0-19-1-6-3-9-8-13-4-3-4-11-4-16-1-5-2-11-5-16-1-2-8-7-8-9 0-11-1-22 1-33 3-16 16-19 29-25 13-5 28-3 41-9 13-7 26-19 30-33 0 0 2-19 2-40-23-9-47-15-73-15z m146 69l0 0-12-13c-13-13-28-25-45-34l0 17c0 30-18 56-46 65-14 5-28 5-42 10-4 1-12 3-14 8-1 4-1 10-2 15 0 3 0 7 0 11 0 2 6 8 8 10 5 9 6 21 7 31 8-2 10 14 11 19 1 3 5 21-3 24 3 4 4 9 5 14 2 13 2 27-1 40-9 26-33 40-60 41-26 1-53-12-63-38-5-12-5-26-3-39 1-6 2-13 5-18-7-3-5-18-4-22 2-5 3-23 12-21 1-8 2-16 4-24 2-5 5-10 8-14 2-2 3-2 3-5 0-7 0-16-2-23-2-8-19-11-25-13-18-3-35-5-50-16 0 0 0-1-1-1-17 29-27 62-27 98 0 105 86 191 191 191 105 0 191-86 191-191 0-30-7-58-19-83-5 13-15 23-29 27-8 3-23 3-29 10-3 4-1 17-1 17 25 1 31 6 31 6 4 2 2 3 0 6-11 19-6 42-7 62 0 17-4 35-20 44-7 5-19 7-31 7-9 0-19-1-25-4-43-17-18-73-32-105-3-6-6-8 0-11 0 0 8-4 29-6 0 0 0-13 0-14-1-5-12-8-16-9-4-2-15-5-29-12 0 0 15-1 25-5 7 5 17 6 24 9 7 3 10 6 12 13 1 8-1 34-1 34-12-1-27 1-27 1 4 14 4 28 4 42 0 12 0 24 3 33 2 8 6 12 14 15 4 2 12 3 19 3 12 0 20-2 23-4 10-6 12-21 12-32 1-4 0-9 0-14 0-13-1-28 3-42 0 0 0 0 0 0 0 0-13-2-26 0l-1-18c-1-7-2-18 4-26 8-9 21-12 31-14 2 0 5-1 6-1 8-3 21-10 23-31-5-7-10-14-15-20z"/>
<glyph glyph-name="contract" unicode="&#57438;" d="M196 304l-100 0 0-16 128 0 0 128-16 0 0-100-133 132-11-11z m120 0l100 0 0-16-128 0 0 128 16 0 0-100 133 132 11-11z m-120-96l-100 0 0 16 128 0 0-128-16 0 0 100-133-132-11 11z m120 0l100 0 0 16-128 0 0-128 16 0 0 100 133-132 11 11z"/>
<glyph glyph-name="contrast" unicode="&#57439;" d="M256 464c-115 0-208-93-208-208 0-115 93-208 208-208 115 0 208 93 208 208 0 115-93 208-208 208z m136-344c-18-17-38-31-61-41-24-10-49-15-75-15l0 384c26 0 51-5 75-15 23-10 43-24 61-41 17-18 31-39 41-61 10-24 15-49 15-75 0-26-5-51-15-75-10-23-24-43-41-61z"/>
<glyph glyph-name="copy" unicode="&#57440;" d="M304 416l-16 0 0-80 80 0 0 16-64 0z m21 32l-165 0 0-48-48 0 0-336 240 0 0 48 48 0 0 261z m11-368l-208 0 0 304 32 0 0-272 176 0z m48 48l-208 0 0 304 143 0 65-66z"/>
<glyph glyph-name="create" unicode="&#57441;" d="M368 96l-288 0 0 272 224 0 16 16-256 0 0-304 320 0 0 240-16-16z m-130 132l-10 10 171 171-11 11-180-180 0-32 32 0 180 180-11 11z m206 204l-12 12c-3 3-6 4-10 4-4 0-8-1-10-4l-12-12 0 0 11-11 21-21 12 12c3 2 4 6 4 10 0 3-1 7-4 10z"/>
<glyph glyph-name="crop" unicode="&#57442;" d="M128 448l16 0 0-48-16 0z m16-304l0 208-16 0 0-224 224 0 0 16z m256 0l48 0 0-16-48 0z m-336 240l0-16 304 0 0-304 16 0 0 320z"/>
<glyph glyph-name="cube" unicode="&#57443;" d="M256 480l-224-96 0-224 224-128 224 128 0 224z m198-102l-198-112-197 112 197 86z m-406-12l200-114 0-197-200 114z m216-311l0 197 200 113 0-196z"/>
<glyph glyph-name="cut" unicode="&#57444;" d="M128 376c-11 28-14 55 5 72l103-138 10 13-105 141c-9 0-14-1-19-4-11-9-19-26-19-44 0-13 3-28 11-46 8-21 42-70 77-118 1-1 2-2 3-3 3 5 6 9 9 14-26 36-66 93-75 113z m262 81c-5 5-13 7-20 7l-114-154-10-13-3-4c0 0 0 0 0 0l-15-20c0 0 0 0 0 0 0-1-7-11-15-23-3-5-6-9-9-14-4-6-7-11-9-15-3-7-7-15-11-22-3-7-7-14-10-20-10 7-22 11-34 11-18 0-34-8-46-22-12-13-18-31-18-49 0-19 6-36 18-49 12-14 28-22 46-22 14 0 28 5 39 15 10 9 18 21 22 35 1 3 11 35 26 58 9 14 22 23 29 27l14 10c0 0 13 9 38 42 26 33 81 111 90 135 7 18 11 33 11 46 0 18-6 30-19 41z m-7-81c-11-28-86-132-100-147-14-16-27-28-27-28 0 0-26-11-43-37-16-25-28-61-28-61-5-23-24-39-45-39-27 0-48 24-48 55 0 30 21 55 48 55 11 0 20-4 28-11 2-2 3-3 4-4 0 0 1 0 1 0 0-1 0-1 1-2 1-1 2-1 3-1 2 0 5 3 9 11 7 13 15 30 23 46 9 16 32 51 32 51l15 19 123 165c19-17 16-44 4-72z m-11-186c-12 0-24-4-34-11-3 6-7 13-11 20-3 7-7 14-10 21l-11-14c7-14 14-28 20-39 4-8 7-11 9-11 1 0 2 0 3 1 0 1 1 1 1 2 0 0 0 0 0 0 1 1 3 2 4 4 8 7 18 11 29 11 26 0 48-25 48-55 0-31-22-55-48-55-22 0-40 16-46 39 0 0-11 36-28 61-4 8-10 14-15 19l-13-10c5-4 10-10 15-17 15-23 25-54 26-58 4-14 11-26 22-35 11-10 25-15 39-15 35 0 64 32 64 71 0 39-29 71-64 71z m-232-99c-13 0-24 12-24 28 0 15 11 28 24 28 13 0 24-13 24-28 0-16-11-28-24-28z m132 149c0-9-7-16-16-16-9 0-16 7-16 16 0 9 7 16 16 16 9 0 16-7 16-16z m100-149c-13 0-24 12-24 28 0 15 11 28 24 28 13 0 24-13 24-28 0-16-11-28-24-28z"/>
<glyph glyph-name="desktop" unicode="&#57445;" d="M496 128l0 288-480 0 0-288 175 0 0-16-64 0 0-16 257 0 0 16-64 0 0 16z m-464 272l448 0 0-256-448 0z"/>
<glyph glyph-name="disc" unicode="&#57446;" d="M256 330c41 0 74-33 74-74 0-41-33-74-74-74-20 0-38 7-52 21-14 14-22 33-22 53 0 41 33 74 74 74m0-130c31 0 56 25 56 56 0 31-25 56-56 56-31 0-56-25-56-56 0-31 25-56 56-56m0 146c-50 0-90-40-90-90 0-50 40-90 90-90 50 0 90 40 90 90 0 50-40 90-90 90z m0-130c-22 0-40 18-40 40 0 22 18 40 40 40 22 0 40-18 40-40 0-22-18-40-40-40z m0 232c26 0 51-5 75-15 23-10 43-24 61-41 17-18 31-39 41-61 10-24 15-49 15-75 0-26-5-51-15-75-10-23-24-43-41-61-18-17-38-31-61-41-24-10-49-15-75-15-26 0-51 5-75 15-23 10-43 24-61 41-17 18-31 38-41 61-10 24-15 49-15 75 0 26 5 51 15 75 10 23 24 43 41 61 18 17 39 31 61 41 24 10 49 15 75 15m0-322c35 0 67 13 92 38 24 25 38 57 38 92 0 35-13 67-38 92-25 24-57 38-92 38-35 0-67-14-92-38-24-25-38-57-38-92 0-35 14-67 38-92 25-24 57-38 92-38m0 338c-115 0-208-93-208-208 0-115 93-208 208-208 115 0 208 93 208 208 0 115-93 208-208 208z m0-322c-63 0-114 51-114 114 0 63 51 114 114 114 63 0 114-51 114-114 0-63-51-114-114-114z"/>
<glyph glyph-name="document" unicode="&#57447;" d="M272 448l-144 0 0-384 256 0 0 272z m0-23l90-89-90 0z m-128-345l0 352 112 0 0-112 112 0 0-240z"/>
<glyph glyph-name="done-all" unicode="&#57448;" d="M367 330l-114-117-46 47-18-18 55-56c2-2 6-4 9-4 3 0 6 2 8 4l123 126z m-222-70l-17-18 55-56c2-2 5-4 8-4 3 0 7 2 9 4l9 9z m153 62l-62-64 17-17 62 63z"/>
<glyph glyph-name="download" unicode="&#57449;" d="M288 368l0-16 112 0 0-272-288 0 0 272 112 0 0 16-128 0 0-304 320 0 0 304z m-95-108l-11-12 74-74 75 74-12 12-55-55 0 243-16 0 0-243z"/>
<glyph glyph-name="easel" unicode="&#57452;" d="M464 416l0-256-416 0 0 256 416 0m0 16l-416 0c-9 0-16-7-16-16l0-256c0-9 7-16 16-16l416 0c9 0 16 7 16 16l0 256c0 9-7 16-16 16z m-80-304l32-80 17 0-33 80z m-271 0l-33-80 17 0 32 80z m135 0l16 0 0-48-16 0z m184 256l0-192-352 0 0 192 352 0m16 16l-384 0 0-224 384 0z m-192 64c-9 0-16-7-16-16l32 0c0 9-7 16-16 16z"/>
<glyph glyph-name="egg" unicode="&#57453;" d="M256 464c12 0 27-7 42-19 17-14 34-33 49-56 15-24 29-51 38-79 10-30 15-59 15-87 0-29-4-55-11-77-6-21-16-40-29-54-12-14-27-25-45-33-17-7-37-11-59-11-22 0-42 4-59 11-18 8-33 19-45 33-13 14-22 33-29 54-7 23-11 48-11 77 0 28 5 57 15 87 9 28 23 55 38 79 16 23 32 42 49 56 16 12 30 19 42 19m0 16c-64 0-160-133-160-257 0-124 64-191 160-191 96 0 160 67 160 191 0 124-96 257-160 257z"/>
<glyph glyph-name="euro" unicode="&#57454;" d="M234 240l0 48 131 0 7 48-138 0 0 2c0 36 15 58 79 58 27 0 56-3 93-9l10 65c-38 9-71 12-106 12-115 0-164-41-164-117l0-11-50 0 0-48 50 0 0-48-50 0 0-48 50 0 0-27c0-76 49-117 164-117 35 0 68 3 106 12l-10 65c-37-6-67-9-93-9-64 0-79 19-79 63l0 13 117 0 7 48z"/>
<glyph glyph-name="exit" unicode="&#57455;" d="M128 288l16 0 0 112 288 0 0-288-288 0 0 112-16 0 0-128 320 0 0 320-320 0z m170 31l12 11 74-74-74-75-12 12 55 55-289 0 0 16 289 0z"/>
<glyph glyph-name="expand" unicode="&#57456;" d="M92 432l100 0 0 16-128 0 0-128 16 0 0 100 133-132 11 11z m328 0l-100 0 0 16 128 0 0-128-16 0 0 100-133-132-11 11z m-328-352l100 0 0-16-128 0 0 128 16 0 0-100 133 132 11-11z m328 0l-100 0 0-16 128 0 0 128-16 0 0-100-133 132-11-11z"/>
<glyph glyph-name="eye" unicode="&#57457;" d="M447 256c-45 52-108 112-191 112-34 0-64-10-97-30-27-17-55-41-94-81l-1-1 7-7c55-56 102-105 185-105 37 0 72 12 108 36 31 21 57 48 79 69l5 6z m-191 96c33 0 65-10 97-31 24-15 48-36 74-66-38-38-96-95-171-95-34 0-64 8-94 28-28 18-52 43-76 68 59 60 108 96 170 96z m0-176c44 0 80 36 80 80 0 44-36 80-80 80-44 0-80-36-80-80 0-44 36-80 80-80z m0 144c35 0 64-29 64-64 0-35-29-64-64-64-35 0-64 29-64 64 0 35 29 64 64 64z m32-64c0-18-14-32-32-32-17 0-32 15-32 33 0 17 16 31 32 31l0 16c-26 0-48-22-48-48 0-27 22-48 48-48 26 0 48 21 48 48l0 0z"/>
<glyph glyph-name="eye-off" unicode="&#57458;" d="M120 472l258-440 14 8-258 440z m136-104c-12 0-24-1-35-4l6-11c10 2 19 3 29 3 74 0 131-52 174-100-27-27-59-61-99-81l6-11c46 24 83 63 111 92-44 51-107 112-192 112z m0-212c-76 0-122 46-174 100 36 36 67 64 99 80l-6 11c-37-19-72-50-111-91 58-59 106-112 192-112 12 0 24 1 36 4l-7 11c-9-2-19-3-29-3z m57 50c12 13 20 31 20 50 0 41-35 75-77 75-5 0-10-1-15-2l7-11c2 0 5 0 8 0 35 0 64-28 64-62 0-14-5-28-14-38z m-114 100c-12-13-20-31-20-50 0-41 35-75 77-75 5 0 10 1 15 2l-7 11c-2 0-5 0-8 0-35 0-64 28-64 62 0 14 5 28 14 38z m17-30c-3-6-5-13-5-20 0-23 19-42 43-44l-9 15c-12 4-21 15-21 29 0 2 0 4 1 6z m80-40c3 6 5 13 5 20l-13 0c0-2 0-4-1-6z"/>
<glyph glyph-name="fastforward" unicode="&#57459;" d="M48 357l184-101-184-101 0 202m224-1l176-100-176-100 0 200m-16 28l0-123-224 123 0-256 224 123 0-123 224 128z"/>
<glyph glyph-name="female" unicode="&#57460;" d="M296 464c-93 0-168-75-168-168 0-44 17-83 44-113l-60-60-42 43c-3 3-8 3-12 0-3-4-3-9 0-12l43-42-51-50c-3-3-3-9 0-12 2-1 4-2 6-2 2 0 4 1 6 2l50 51 42-43c2-1 4-2 6-2 2 0 4 1 6 2 3 3 3 9 0 12l-43 42 60 60c30-27 70-44 113-44 93 0 168 75 168 168 0 93-75 168-168 168z m108-276c-29-28-67-44-108-44-41 0-79 16-107 44-29 29-45 67-45 108 0 41 16 79 45 107 28 29 66 45 107 45 41 0 79-16 108-45 28-28 44-66 44-107 0-41-16-79-44-108z"/>
<glyph glyph-name="filing" unicode="&#57461;" d="M369 384l-225 0-64-96 0-160 352 0 0 160z m44-96l-45 0 0 68z m-253 80l192 0 0-80-48 0c0-27-21-48-48-48-26 0-48 21-48 48l-48 0z m-16-12l0-68-45 0z m272-212l-320 0 0 128 98 0c7-28 32-48 62-48 30 0 55 20 62 48l98 0z"/>
<glyph glyph-name="film" unicode="&#57462;" d="M56 424l0-336 400 0 0 336z m72-320l-56 0 0 48 56 0z m0 64l-56 0 0 48 56 0z m0 64l-56 0 0 48 56 0z m0 64l-56 0 0 48 56 0z m0 64l-56 0 0 48 56 0z m240-256l-224 0 0 144 224 0z m0 160l-224 0 0 144 224 0z m72-160l-56 0 0 48 56 0z m0 64l-56 0 0 48 56 0z m0 64l-56 0 0 48 56 0z m0 64l-56 0 0 48 56 0z m0 64l-56 0 0 48 56 0z"/>
<glyph glyph-name="finger-print" unicode="&#57463;" d="M456 238c0 0 0 0-1 0-4 0-7 4-7 8 0 3 0 8 0 11 0 43-18 96-41 119-3 3-3 8 0 11 3 3 8 3 11 0 26-26 46-83 46-130 0-3 0-8 0-11 0-5-4-8-8-8z m-74 163c-2 0-4 0-5 2-36 29-78 45-121 45-41 0-80-12-112-35-3-2-8-2-11 2-2 4-2 9 2 11 35 25 76 38 121 38 47 0 93-17 131-49 4-3 4-8 1-12-1-1-4-2-6-2z m-311-241c-3 0-6 2-7 6-10 32-16 58-16 91 0 50 18 99 51 137 3 3 8 3 12 0 3-2 3-8 0-11-30-35-47-80-47-126 0-31 6-56 15-87 1-4-1-8-5-10-1 0-2 0-3 0z m51-72c0 0 0 0 0 0-5 1-8 4-8 9 3 49-1 66-5 89-3 16-7 34-10 68-3 43 11 83 40 113 29 32 72 50 120 50 36 0 69-12 96-36 26-22 46-55 57-94 12-43 16-97 10-157 0-4-4-7-9-7-4 1-7 4-7 9 6 57 2 110-10 151-10 36-28 66-52 86-24 21-53 32-85 32-43 0-82-16-109-44-25-28-37-64-35-102 3-33 6-50 9-66 5-23 9-42 6-93 0-4-4-8-8-8z m47-24c-1 0-1 0-1 0-5 0-8 4-7 9 8 56-1 118-10 172-6 33 1 63 19 84 20 23 52 37 86 37 29 0 55-11 75-33 20-21 34-53 40-90 5-31 7-57 8-78 0-43-5-78-6-79 0-4-4-7-9-7-4 1-7 5-6 9 0 1 5 35 5 77 0 20-3 45-8 76-10 67-48 109-99 109-30 0-57-12-73-31-16-18-21-42-16-71 9-55 18-119 10-177-1-4-4-7-8-7z m147-5c0 0-1 0-1 0-4 1-7 5-7 9 4 19 3 38 3 38 0 4 4 8 8 8 0 0 0 0 0 0 5 0 8-3 8-8 0 0 1-21-3-41 0-3-4-6-8-6z m-100-8c0 0-1 0-1 0-4 0-7 4-7 9 7 56 5 118-8 182-6 30 2 48 10 57 10 12 25 19 44 19 29 0 51-21 61-57 7-28 12-68 12-116 0-5-3-8-8-8 0 0 0 0 0 0-4 0-8 3-8 8 0 46-4 85-12 112-11 41-35 45-45 45-14 0-25-5-32-13-8-10-10-25-6-43 13-67 16-130 8-188 0-4-4-7-8-7z m50-3c0 0-1 0-1 0-4 0-7 4-7 9 8 71 2 165-13 201-2 4 0 9 4 10 5 2 9 0 11-4 16-38 22-134 14-209 0-4-4-7-8-7z"/>
<glyph glyph-name="flag" unicode="&#57464;" d="M368 400c-11-1-25-4-40-4-23 0-44 6-65 11-21 4-44 9-67 9-47 0-63-10-64-11l-4-3 0-306 16 0 0 143c6 3 22 7 52 7 22 0 42-8 64-13 22-5 45-9 69-9 15 0 28 2 39 3 6 1 11 1 16 2l0 173c-5 0-10-1-16-2z m0-157c-11-1-24-4-39-4-23 0-45 5-66 10-21 4-43 13-67 13-26 0-42-3-52-6l0 137c6 3 22 7 52 7 22 0 42-4 64-9 22-5 44-11 68-11 15 0 29 2 40 4z"/>
<glyph glyph-name="flame" unicode="&#57465;" d="M224 464c26-135-97-132-96-267 1-111 105-149 128-149 23 0 114 24 127 149 11 101-72 208-159 267z m32-409c0 0-41 34-41 75 0 41 41 74 41 74 0 0 40-33 40-74 0-41-40-75-40-75z m111 143c-3-27-9-51-20-71-9-16-20-29-34-40-6-5-13-10-20-13 10 15 19 34 19 56 0 47-43 84-45 85l-11 9-11-9c-1-1-46-38-46-85 0-21 9-39 18-53-7 4-15 9-23 15-15 12-26 25-35 41-10 19-15 40-15 64 0 59 24 88 50 120 25 29 50 60 49 113 33-27 62-58 83-92 32-48 46-97 41-140z"/>
<glyph glyph-name="flash" unicode="&#57466;" d="M274 380l-17-89-3-19 84 0-100-140 17 89 3 19-84 0 100 140m29 68l-160-224 96 0-30-160 160 224-96 0z"/>
<glyph glyph-name="flask" unicode="&#57467;" d="M437 158l-117 195 0 95 16 0 0 16-32 0 0-115 3-4 116-195c7-13 9-26 9-38 0-9-2-18-6-26-9-14-24-22-41-22l-256 0c-17 0-32 8-41 23-12 19-11 38 2 63l92 154 58 0 0 16-49 0 15 25 2 4 0 3 48 0 0 16-48 0 0 32 32 0 0 16-32 0 0 32 80 0 0 16-112 0 0-16 16 0 0-95-116-195c-8-16-12-32-12-46 1-37 29-64 65-64l256 0c36 0 62 28 63 64 0 14-3 30-11 46z m-329-5c-7-10-11-24-11-33 0-28 16-40 46-40l226 0c30 0 45 16 46 40 0 10-3 23-10 33l-72 119-153 0z m216 103l67-111 0 0 0 0c6-8 8-19 8-24 0-8-3-14-7-18-5-5-13-7-23-7l-226 0c-11 0-19 2-24 6-1 1-6 5-6 18 0 6 3 16 9 25l0 0 0 0 67 111z"/>
<glyph glyph-name="flower" unicode="&#57468;" d="M385 282c-27 0-60-7-86-14-1 3-2 6-4 9 23 14 52 33 71 52 36 36 48 63 37 74-2 3-6 4-10 4-14 0-36-14-64-42-19-18-38-47-51-70-3 2-6 3-10 4 7 26 14 59 14 86 0 52-11 79-26 79-15 0-26-27-26-79 0-27 7-60 13-86-3-1-6-2-9-4-13 23-32 52-51 70-28 28-50 42-64 42-4 0-8-1-10-4-11-11 0-38 37-74 19-19 48-38 71-52-2-2-3-6-4-9-26 7-60 14-86 14-52 0-79-11-79-26 0-15 27-26 79-26 27 0 60 7 86 13 1-3 3-6 4-9-23-13-52-32-71-51-36-37-48-64-37-74 2-3 6-4 10-4 14 0 36 13 64 41 19 19 38 48 52 71 3-2 6-3 9-4-7-26-14-60-14-86 0-52 11-79 26-79 15 0 26 27 26 79 0 27-7 60-13 86 3 1 6 2 9 4 13-23 32-52 51-71 28-28 50-41 64-41 4 0 8 1 10 4 11 10 0 37-37 74-19 19-48 38-71 51 2 3 3 6 4 9 26-6 60-13 86-13 52 0 79 11 79 26 0 15-27 26-79 26z m-46 73c33 33 49 37 53 37 0-2-1-7-6-15-6-11-17-24-31-38-12-12-32-27-56-42-1 1-1 1-2 2 15 24 30 43 42 56z m-89 79c2 9 5 13 6 14 1-1 4-5 6-14 4-12 5-29 5-49 0-18-3-42-10-70 0 0 0 0-1 0 0 0-1 0-1 0-7 28-10 52-10 70 0 20 2 37 5 49z m-37-137c-24 15-44 30-56 42-14 14-25 27-31 38-5 8-6 13-6 15 4-1 20-4 53-37 12-13 27-32 42-56-1-1-1-1-2-2z m-86-52c-20 0-37 1-49 5-9 2-13 5-14 6 1 1 5 4 14 6 12 3 29 5 49 5 18 0 42-4 70-10 0 0 0-1 0-1 0-1 0-1 0-1-28-7-52-10-70-10z m46-88c-33-33-49-37-53-37 0 2 1 6 6 14 6 11 17 24 31 38 12 13 32 27 56 43 1-1 1-1 2-2-15-24-30-44-42-56z m89-79c-2-9-5-13-6-14-1 1-4 5-6 14-3 12-5 29-5 49 0 18 3 41 10 70 0 0 1 0 1 0 1 0 1 0 1 0 7-29 10-53 10-70 0-20-1-37-5-49z m-6 146c-18 0-32 14-32 32 0 18 14 32 32 32 18 0 32-14 32-32 0-18-14-32-32-32z m43-9c24-16 44-30 56-43 14-14 25-27 31-38 5-8 6-12 6-14-4 0-20 4-53 37-12 12-27 32-42 56 1 1 1 1 2 2z m135 34c-12-3-29-4-49-4-18 0-42 3-70 10 0 0 0 1 0 1 0 0 0 1 0 1 28 6 52 10 70 10 20 0 37-2 49-5 9-2 13-5 14-6-1-2-5-4-14-7z m-116-113c-8 8-16 18-24 29 2-13 3-26 3-38 0-12-1-23-2-32 13-22 25-33 34-33 2 0 4 0 5 1 11 4 13 23 5 54-7 5-14 12-21 19z m10-59c-2 2-8 6-17 21 0 7 1 15 1 23 4-4 9-8 13-12 5-19 4-28 3-32z m-134 299c8-9 17-19 24-29-2 13-3 26-3 38 0 12 1 22 2 32-12 22-24 33-34 33-2 0-3-1-5-1-11-5-13-24-4-55 6-5 13-11 20-18z m-10 58c2-1 9-6 17-20 0-8-1-16-1-24-4 5-9 9-13 13-5 18-4 28-3 31z m-48-241c8 9 19 17 29 25-13-2-26-3-38-3-12 0-23 0-32 1-26-14-36-28-32-38 3-7 10-10 22-10 9 0 19 2 32 5 6 7 12 13 19 20z m-51-10c-4 0-6 0-7 1 1 2 5 8 20 17 8 0 15-1 24-1-5-5-9-9-13-14-9-2-18-3-24-3z m291 135c-8-8-18-17-29-25 13 2 26 4 38 4 12 0 23-1 32-2 26 14 36 28 32 39-3 6-10 10-22 10-9 0-19-2-32-6-6-6-12-13-19-20z m51 11c4 0 6-1 8-1-2-3-6-9-21-18-7 1-15 1-24 1 5 5 9 10 13 14 9 3 18 4 24 4z m-233-193c-9-9-17-16-24-22-8-28-6-45 5-50 1-1 3-1 5-1 10 0 23 12 36 36 0 9-1 18-1 28 0 12 2 25 4 38-8-11-17-21-25-29z m-13-58c-1 3-2 11 2 28 6 4 11 10 17 15 0-6 1-12 1-18-10-17-17-23-20-25z m137 298c9 8 17 15 24 21 8 29 6 46-5 50-1 1-3 1-5 1-10 0-23-12-36-36 0-8 1-17 1-27 0-12-1-25-3-39 8 11 16 21 24 30z m13 57c1-3 2-10-2-27-6-5-11-10-17-16 0 7-1 13-1 19 10 16 17 22 20 24z m-231-138c8 1 17 2 27 2 12 0 25-2 38-4-10 8-21 17-29 25-8 8-16 16-22 24-11 3-21 5-28 5-12 0-19-4-22-10-4-11 7-26 36-42z m-14 37c5 0 12-1 20-3 4-6 10-12 16-18-7 0-13 0-19 0-16 9-23 17-24 20 1 0 3 1 7 1z m326-116c-8-1-17-1-27-1-12 0-25 1-38 3 11-8 21-16 29-25 9-8 16-16 22-23 11-4 21-5 28-5 12 0 19 3 22 9 4 11-7 26-36 42z m14-36c-5 0-12 1-20 3-4 5-10 11-16 17 7 0 13 0 19 1 16-10 23-17 24-20-1-1-3-1-7-1z"/>
<glyph glyph-name="folder" unicode="&#57469;" d="M457 416l-242 0c-3 0-4 1-6 2l-23 23 0 0c-5 5-9 7-17 7l-112 0c-14 0-25-10-25-23l0-336c0-13 12-25 25-25l400 0c13 0 23 11 23 25l0 304c0 13-10 23-23 23z m-400 16l112 0c3 0 4 0 6-2l23-23c4-5 10-7 17-7l242 0c4 0 7-3 7-7l0-42c-3 1-5 1-8 1l-400 0c-3 0-5 0-8-1l0 74c0 4 5 7 9 7z m407-343c0-4-3-9-7-9l-400 0c-4 0-9 5-9 9l0 239c0 4 4 8 8 8l400 0c4 0 8-4 8-8z"/>
<glyph glyph-name="folder-open" unicode="&#57470;" d="M456 352c-1 0-4 0-8 0l0 41c0 13-9 23-23 23l-194 0c-3 0-4 1-6 2l-23 23 0 0c-5 5-9 7-17 7l-96 0c-14 0-25-10-25-23l0-73c-4 0-7 0-8 0-13 0-26-5-24-24 2-20 24-239 24-239 2-18 11-25 25-25l352 0c13 0 21 8 23 25 0 0 22 213 24 233 1 21-9 30-24 30z m-376 73c0 4 4 7 9 7l96 0c3 0 4 0 6-3l23-22c4-5 10-7 17-7l194 0c5 0 7-3 7-7l0-41c-72 0-280 0-352 0z m360-336c-1-5-3-9-8-9l-350 0c-4 0-9 3-10 9l-24 239c0 4 3 8 8 8l400 0c5 0 8-4 8-8z"/>
<glyph glyph-name="football" unicode="&#57471;" d="M256 464c-115 0-208-93-208-208 0-115 93-208 208-208 115 0 208 93 208 208 0 115-93 208-208 208z m41-394c-13-3-30-4-44-5-13 1-26 2-38 5-2 0-5 1-7 2l-25 65 20 39 106 0 0-1 20-39-24-64c-2-1-5-2-8-2z m-208 278l19-52 0 0-43-37c1 32 10 63 24 89z m101 87l57-40 0-58-71-60-49 23-5 2-22 64c22 31 53 55 90 69z m135-170l1-1-18-72-104 0-18 72 0 1 69 58z m122-6l-43 37 0 0 19 53c14-27 23-57 24-90z m-35 107l-23-65-54-24-71 60 0 58 58 40c36-14 68-38 90-69z m-346-127l54 46 49-22 1-1 20-77-21-39-70 1c-18 27-30 58-33 92z m277-93l-21 39 20 77 50 23 54-46c-3-34-15-65-33-92z m-88 263l-46 32c15 4 31 6 47 6 16 0 31-2 46-6z m-89-279l1-2 20-50c-29 12-55 30-75 53z m159-52l17 49 2 3 56 1c-20-23-46-42-75-53z"/>
<glyph glyph-name="funnel" unicode="&#57472;" d="M32 448l0-32 176-192 0-128 96-32 0 160 176 192 0 32z m432-26l-176-192 0-144-64 21 0 123-176 192 0 10 416 0z"/>
<glyph glyph-name="game-controller-a" unicode="&#57473;" d="M195 272l-35 0 0 35c0 3-3 5-5 5l-22 0c-3 0-5-2-5-5l0-35-35 0c-3 0-5-2-5-5l0-21c0-3 2-6 5-6l35 0 0-35c0-3 2-5 5-5l21 0c3 0 6 2 6 5l0 35 35 0c3 0 5 3 5 5l0 22c0 3-2 5-5 5z m167-39c-10 0-19-9-19-19 0-11 9-19 19-19 11 0 20 8 20 19 0 10-9 19-20 19z m-42 42c-11 0-20-9-20-19 0-11 9-19 20-19 11 0 19 8 19 19 0 10-8 19-19 19z m85 0c-11 0-20-9-20-19 0-11 9-19 20-19 11 0 19 8 19 19 0 10-8 19-19 19z m-43 42c-10 0-19-9-19-19 0-11 9-20 19-20 11 0 20 9 20 20 0 10-9 19-20 19z m7 33c26 0 50-9 67-26 18-17 28-41 28-67 0-27-10-51-28-68-17-18-41-27-67-27l-226 0c-26 0-50 9-67 27-18 17-28 41-28 68 0 26 10 50 28 67 17 17 41 26 67 26l226 0m0 16l-226 0c-61 0-111-45-111-109 0-64 50-111 111-111l226 0c61 0 111 47 111 111 0 64-50 109-111 109z"/>
<glyph glyph-name="game-controller-b" unicode="&#57474;" d="M308 308c-11 0-20-9-20-20 0-11 9-20 20-20 11 0 20 9 20 20 0 11-9 20-20 20z m44-44c-11 0-20-9-20-20 0-11 9-20 20-20 11 0 20 9 20 20 0 11-9 20-20 20z m-217 64c-21 0-39-18-39-40 0-22 18-40 39-40 22 0 39 18 39 40 0 22-17 40-39 40z m0-59c-11 0-19 8-19 19 0 11 8 19 19 19 11 0 19-8 19-19 0-11-8-19-19-19z m217 83c-11 0-20-9-20-20 0-11 9-20 20-20 11 0 20 9 20 20 0 11-9 20-20 20z m44-44c-11 0-20-9-20-20 0-11 9-20 20-20 11 0 20 9 20 20 0 11-9 20-20 20z m70-45c-21 89-43 136-88 149-10 3-18 4-26 4-28 0-47-15-96-15-49 0-69 15-96 15-8 0-16-1-26-4-45-13-67-60-88-149-21-88-18-152 7-164 5-2 9-3 13-3 22 0 45 24 68 52 25 32 32 33 110 33l24 0c78 0 85-1 110-33 23-28 46-52 68-52 4 0 8 1 13 3 25 12 28 76 7 164z m-14-150c-2-1-4-1-6-1-6 0-14 4-23 12-9 7-19 18-32 34-13 16-24 28-44 34-16 5-38 5-79 5l-24 0c-41 0-63 0-79-5-20-6-31-18-44-34-13-16-23-27-32-34-9-8-17-12-23-12-2 0-4 0-6 1-9 5-22 48 1 146 22 90 43 127 78 138 7 2 14 3 21 3 10 0 19-2 30-5 16-4 36-10 66-10 30 0 50 6 66 10 11 3 20 5 30 5 7 0 14-1 21-3 35-11 56-48 78-138 23-98 10-141 1-146z"/>
<glyph glyph-name="git-branch" unicode="&#57475;" d="M416 352c0 35-29 64-64 64-35 0-64-29-64-64 0-33 24-60 56-64l0 0c0-23-10-42-29-58-22-16-49-24-68-27-44-8-64-33-72-45-3 1-5 1-8 2l0 192c32 4 57 31 57 64 0 35-29 64-64 64-35 0-64-29-64-64 0-32 24-59 55-63l0-194c-31-4-55-31-55-63 0-35 29-64 64-64 35 0 64 29 64 64 0 24-14 45-34 56 8 10 26 29 59 35 21 4 51 12 75 31 24 18 36 42 36 70l0 0c32 4 56 31 56 64z m-304 64c0 26 22 48 48 48 27 0 48-22 48-48 0-27-21-48-48-48-26 0-48 21-48 48z m96-320c0-27-21-48-48-48-26 0-48 21-48 48 0 26 22 48 48 48 27 0 48-22 48-48z m144 208c-26 0-48 21-48 48 0 26 22 48 48 48 27 0 48-22 48-48 0-27-21-48-48-48z"/>
<glyph glyph-name="git-commit" unicode="&#57476;" d="M472 264l-88 0c0 0 0 0 0 0-4 67-60 120-128 120-68 0-124-53-128-120 0 0 0 0 0 0l-88 0c-4 0-8-4-8-8 0-4 4-8 8-8l88 0c0 0 0 0 0 0 4-67 60-120 128-120 68 0 124 53 128 120 0 0 0 0 0 0l88 0c4 0 8 4 8 8 0 4-4 8-8 8z m-137-87c-21-21-49-33-79-33-30 0-58 12-79 33-21 21-33 49-33 79 0 30 12 58 33 79 21 21 49 33 79 33 30 0 58-12 79-33 21-21 33-49 33-79 0-30-12-58-33-79z"/>
<glyph glyph-name="git-compare" unicode="&#57477;" d="M224 166c-3 3-8 3-12 0-3-3-3-9 0-12l52-50-104 0c-49 0-57 42-57 88l0 160c32 4 57 31 57 64 0 35-29 64-64 64-35 0-64-29-64-64 0-32 24-59 55-63l0-161c0-14 0-41 9-63 11-27 33-41 64-41l104 0-50-50c-3-4-3-9 0-12 2-1 4-2 6-2 2 0 4 1 6 2l57 58c7 6 7 16 0 22z m-176 250c0 26 22 48 48 48 27 0 48-22 48-48 0-27-21-48-48-48-26 0-48 21-48 48z m377-257l0 161c0 14 0 41-9 63-11 27-33 41-64 41l-104 0 50 50c3 3 3 9 0 12-2 1-4 2-6 2-2 0-4-1-6-2l-57-58c-7-6-7-16 0-22l59-60c3-3 9-3 12 0 3 3 3 8 0 12l-52 50 104 0c49 0 57-42 57-88l0-160c-32-4-57-31-57-64 0-35 29-64 64-64 35 0 64 29 64 64 0 32-24 59-55 63z m-9-111c-26 0-48 21-48 48 0 26 22 48 48 48 27 0 48-22 48-48 0-27-21-48-48-48z"/>
<glyph glyph-name="git-merge" unicode="&#57478;" d="M384 288c-33 0-60-25-63-56-10 0-30 1-56 11-33 13-80 42-121 111 27 7 48 32 48 62 0 35-29 64-64 64-35 0-64-29-64-64 0-32 24-59 55-63l0-194c-31-4-55-31-55-63 0-35 29-64 64-64 35 0 64 29 64 64 0 33-25 60-57 64l0 177c43-66 91-96 124-109 28-11 50-12 61-12 0 0 0 0 1 0 4-32 31-56 63-56 35 0 64 29 64 64 0 35-29 64-64 64z m-304 128c0 26 22 48 48 48 27 0 48-22 48-48 0-27-21-48-48-48-26 0-48 21-48 48z m96-320c0-27-21-48-48-48-26 0-48 21-48 48 0 26 22 48 48 48 27 0 48-22 48-48z m208 80c-26 0-48 21-48 48 0 26 22 48 48 48 27 0 48-22 48-48 0-27-21-48-48-48z"/>
<glyph glyph-name="git-network" unicode="&#57479;" d="M448 416c0 35-29 64-64 64-35 0-64-29-64-64 0-32 24-59 55-63l1 0 0-60-120-59-120 59 0 59c32 4 56 31 56 64 0 35-29 64-64 64-35 0-64-29-64-64 0-32 24-59 55-63l1 0 0-70 128-63 0-60c-32-4-56-31-56-64 0-35 29-64 64-64 35 0 64 29 64 64 0 32-24 59-55 64l-1 0 0 60 128 63 0 69c32 4 56 31 56 64z m-368 0c0 26 22 48 48 48 27 0 48-22 48-48 0-27-21-48-48-48-26 0-48 21-48 48z m224-320c0-26-21-48-48-48-26 0-48 22-48 48 0 27 22 48 48 48 27 0 48-21 48-48z m80 272c-26 0-48 21-48 48 0 26 22 48 48 48 27 0 48-22 48-48 0-27-21-48-48-48z"/>
<glyph glyph-name="git-pull-request" unicode="&#57480;" d="M192 416c0 35-29 64-64 64-35 0-64-29-64-64 0-32 24-59 55-63l0-194c-31-4-55-31-55-63 0-35 29-64 64-64 35 0 64 29 64 64 0 33-25 60-57 64l0 192c32 4 57 31 57 64z m-112 0c0 26 22 48 48 48 27 0 48-22 48-48 0-27-21-48-48-48-26 0-48 21-48 48z m96-320c0-27-21-48-48-48-26 0-48 21-48 48 0 26 22 48 48 48 27 0 48-22 48-48z m217 63l0 161c0 14 0 41-9 63-11 27-33 41-64 41l-104 0 50 50c3 3 3 9 0 12-2 1-4 2-6 2-2 0-4-1-6-2l-57-58c-7-6-7-16 0-22l59-60c3-3 9-3 12 0 3 3 3 8 0 12l-52 50 104 0c49 0 57-42 57-88l0-160c-32-4-57-31-57-64 0-35 29-64 64-64 35 0 64 29 64 64 0 32-24 59-55 63z m-9-111c-26 0-48 21-48 48 0 26 22 48 48 48 27 0 48-22 48-48 0-27-21-48-48-48z"/>
<glyph glyph-name="glasses" unicode="&#57481;" d="M465 265c-2 22-12 43-28 58-18 16-40 25-63 25-42 0-77-27-89-67-7 7-18 12-29 12-11 0-22-5-29-12-11 40-47 67-89 67-23 0-45-9-62-25-17-15-27-36-29-58l-15 0 0-18 15 0c2-22 12-43 29-58 17-16 39-25 62-25 51 0 92 41 92 92 0 0 0 0 0 0 0 10 12 22 26 22 14 0 26-12 26-22 0 0 0 0 0 0 0-51 41-92 92-92 23 0 45 9 63 25 16 15 26 36 28 58l15 0 0 18-15 0z m-91-86c-43 0-77 35-77 77 0 42 34 77 77 77 42 0 77-35 77-77 0-43-35-77-77-77z m-236 0c-42 0-77 35-77 77 0 42 35 77 77 77 43 0 77-35 77-77 0-43-34-77-77-77z"/>
<glyph glyph-name="globe" unicode="&#57482;" d="M256 464c0 0 0 0 0 0 0 0 0 0 0 0 0 0 0 0 0 0-115 0-208-93-208-208 0-115 93-208 208-208 0 0 0 0 0 0 0 0 0 0 0 0 0 0 0 0 0 0 115 0 208 93 208 208 0 115-93 208-208 208z m8-125c22 1 44 4 65 9 6-25 10-53 10-84l-75 0z m0 17l0 90c23-6 46-36 60-82-19-5-39-7-60-8z m-16 90l0-90c-21 1-41 3-60 8 14 46 37 76 60 82z m0-107l0-75-76 0c1 31 5 60 11 84 21-5 43-8 65-9z m-92-75l-91 0c2 43 18 82 43 113 19-10 38-18 59-25-7-26-11-56-11-88z m0-16c0-32 4-62 11-89-21-6-40-14-59-24-25 31-41 70-43 113z m16 0l76 0 0-75c-22-1-44-4-65-9-6 24-10 53-11 84z m76-92l0-90c-23 6-46 36-60 82 19 5 39 7 60 8z m16-90l0 90c21-1 41-3 60-8-14-46-37-76-60-82z m0 107l0 75 75 0c0-31-4-60-10-84-21 5-43 8-65 9z m92 75l91 0c-2-43-18-82-43-113-19 10-39 18-59 25 6 26 10 56 11 88z m0 16c-1 32-5 62-11 88 20 7 40 15 59 25 25-31 41-70 43-113l-91 0z m36 126c-16-9-34-16-52-22-10 32-23 57-39 74 35-8 67-27 91-52z m-181 52c-16-17-30-42-39-73-19 5-36 12-52 21 24 25 56 43 91 52z m-91-320c16 9 33 16 51 21 10-31 24-56 40-73-35 9-67 27-91 52z m181-52c16 17 29 42 39 74 19-6 36-13 53-22-25-25-57-44-92-52z"/>
<glyph glyph-name="grid" unicode="&#57483;" d="M448 320l0 16-112 0 0 112-16 0 0-112-128 0 0 112-16 0 0-112-112 0 0-16 112 0 0-128-112 0 0-16 112 0 0-112 16 0 0 112 128 0 0-112 16 0 0 112 112 0 0 16-112 0 0 128z m-128-128l-128 0 0 128 128 0z"/>
<glyph glyph-name="hammer" unicode="&#57484;" d="M462 295l-34 34c-1 1-2 2-4 2-1 0-3-1-4-2l-3-4c-6 0-14 1-18 5-7 7 1 21-5 29-7 9-16 20-23 27-7 7-35 34-82 53-16 6-32 9-46 9-27 0-47-9-55-15-5-5-11-14-3-14 1 0 2 0 3 0 4 1 13 1 23 1 16 0 34-2 44-10 16-13 30-30 31-52 1-22-7-34-35-62l-5 3c-2 1-3 1-5 1-2 0-4-1-6-2 0 0-4-4-46-46-63-62-139-124-139-124-3-2-3-6 0-8l55-54c1-2 2-2 4-2 1 0 3 0 4 2 0 0 62 76 124 137 42 42 46 46 46 46 3 3 4 7 2 11l-4 6c25 25 35 36 47 39 4 1 9 2 13 2 10 0 19-3 23-5 5-3 10-11 11-18l-10-10c-2-2-2-6 0-8l34-34c1-1 3-1 4-1 2 0 3 0 4 1l55 55c3 2 3 6 0 8z m-236-80c-49-49-99-108-118-130l-39 39c23 18 82 68 131 117 23 23 35 34 41 40l26-26c-6-6-18-17-41-40z m177 36l-19 19 2 2 3 5 2 8c-1 11-8 25-19 31-7 4-19 7-31 7-6 0-12-1-17-2-15-5-26-16-50-39l-4-4-2-2-7 7 1 2c29 28 41 45 39 73-1 25-13 46-36 65-5 4-11 7-17 9 12-1 24-3 35-8 40-16 65-38 76-49 6-6 15-16 21-24 0-1 0-4 0-5-1-7-1-18 7-27 7-7 17-10 30-10l7 1 20-19z"/>
<glyph glyph-name="hand" unicode="&#57485;" d="M273 448c11 0 19-8 19-19l0-132c0-5 4-8 8-8 4 0 8 3 8 8l0 116c0 11 9 19 19 19 11 0 19-8 19-19l0-148c0-5 4-8 8-8 4 0 8 3 8 8l0 100c0 11 9 19 19 19 11 0 19-8 19-19l0-214c0-51-29-87-70-87 0 0-30 0-52 0-21 0-36 11-36 11-39 23-85 89-102 108-18 21-35 39-24 49 5 6 11 8 18 8 12 0 26-8 41-22l25-22 0 201c0 11 9 19 19 19 11 0 19-8 19-19l0-116c0-5 4-8 8-8 4 0 8 3 8 8l0 148c0 10 9 19 19 19m0 16c-19 0-35-16-35-35l0-3c-5 4-12 6-19 6-19 0-35-16-35-35l0-165c-19 17-35 24-50 24-11 0-21-4-30-12l0 0c-6-6-14-18-2-38 5-9 13-18 21-28 2-2 3-3 4-5 4-4 9-10 15-18 23-29 58-73 91-93 4-3 21-14 45-14l52 0c25 0 47 11 63 30 15 19 23 44 23 73l0 214c0 19-16 35-35 35-7 0-13-2-19-5l0 18c0 19-16 35-35 35-8 0-15-3-21-7-5 13-18 23-33 23z"/>
<glyph glyph-name="happy" unicode="&#57486;" d="M256 448c26 0 51-5 75-15 23-10 43-24 61-41 17-18 31-39 41-61 10-24 15-49 15-75 0-26-5-51-15-75-10-23-24-43-41-61-18-17-38-31-61-41-24-10-49-15-75-15-26 0-51 5-75 15-23 10-43 24-61 41-17 18-31 38-41 61-10 24-15 49-15 75 0 26 5 51 15 75 10 23 24 43 41 61 18 17 39 31 61 41 24 10 49 15 75 15m0 16c-115 0-208-93-208-208 0-115 93-208 208-208 115 0 208 93 208 208 0 115-93 208-208 208z m96-176c0-13-11-24-24-24-13 0-24 11-24 24 0 13 11 24 24 24 13 0 24-11 24-24z m-144 0c0-13-11-24-24-24-13 0-24 11-24 24 0 13 11 24 24 24 13 0 24-11 24-24z m48-145c48 0 89 35 97 81l-193 0c8-46 48-81 96-81z"/>
<glyph glyph-name="headset" unicode="&#57487;" d="M344 300c-4 0-8 4-8 8 0 40-39 72-80 72-41 0-80-32-80-72 0-4-4-8-8-8-4 0-8 4-8 8 0 25 12 44 30 62 17 17 41 26 66 26 25 0 49-9 66-26 18-17 30-37 30-62 0-4-4-8-8-8z m64-48l-24 0 0 48c0 70-58 128-128 128-70 0-128-58-128-128l0-48-24 0c-40 0-72-32-72-72l0-16c0-39 32-72 72-72l24 0c0-4 4-8 8-8 4 0 8 4 8 8l0 208c0 30 12 58 33 79 21 21 49 33 79 33 30 0 58-12 79-33 21-21 33-49 33-79l0-208c0-4 4-8 8-8 4 0 8 4 8 8l24 0c40 0 72 33 72 72l0 16c0 40-32 72-72 72z m-280-144l-24 0c-15 0-29 6-39 17-11 10-17 24-17 39l0 16c0 15 6 29 17 39 10 11 24 17 39 17l24 0z m336 56c0-15-6-29-16-39-11-11-25-17-40-17l-24 0 0 128 24 0c15 0 29-6 40-17 10-10 16-24 16-39z"/>
<glyph glyph-name="heart" unicode="&#57488;" d="M359 432c-39 0-82-18-103-53-21 35-64 53-103 53-69 0-121-43-121-116 0-31 13-72 41-105 28-34 45-52 100-88 55-37 83-43 83-43 0 0 28 6 83 43 55 36 72 54 100 88 28 33 41 74 41 105 0 73-52 116-121 116z m68-211c-27-32-42-49-97-85-40-27-65-36-74-39-9 3-34 12-74 39-55 36-70 53-97 85-12 14-22 31-28 49-6 16-9 32-9 46 0 31 10 56 29 74 9 8 20 15 33 19 13 5 27 7 43 7 38 0 73-18 89-45l14-23 14 23c16 27 51 45 89 45 16 0 30-2 43-7 13-4 24-11 33-19 19-18 29-43 29-74 0-14-3-30-9-46-6-18-16-35-28-49z"/>
<glyph glyph-name="help" unicode="&#57489;" d="M260 146c-9 0-17 7-17 17 0 9 8 17 17 17 10 0 17-8 17-17 0-10-7-17-17-17z m34 115c-23-22-22-27-23-53l-19 0c1 28 7 44 30 64 11 11 19 23 19 39 0 23-19 39-42 39-33 0-49-16-48-46l-19 0c0 42 24 62 68 62 33 0 60-20 60-54 0-22-11-37-26-51z"/>
<glyph glyph-name="help-buoy" unicode="&#57490;" d="M256 464c-115 0-208-93-208-208 0-115 93-208 208-208 115 0 208 93 208 208 0 115-93 208-208 208z m136-72c17-18 31-38 41-61 3-7 5-13 7-20l-101-6c-8 14-20 25-34 34l7 101c6-2 13-4 19-7 23-10 43-24 61-41z m56-136c0-14-1-27-4-40l-98 7c4 11 6 22 6 33 0 11-2 22-6 33l98 7c3-13 4-27 4-40z m-192-80c-44 0-80 36-80 80 0 44 36 80 80 80 44 0 80-36 80-80 0-44-36-80-80-80z m-192 80c0 13 1 27 4 40l98-7c-4-11-6-22-6-33 0-11 2-22 6-33l-98-7c-3 13-4 26-4 40z m232 188l-7-98c-10 4-21 6-33 6-11 0-22-2-33-6l-7 98c13 3 27 4 40 4 14 0 27-1 40-4z m-176-52c18 17 38 31 61 41 7 3 13 5 20 7l6-101c-14-9-26-20-34-34l-101 6c2 7 4 13 7 20 10 23 24 43 41 61z m0-272c-17 18-31 38-41 61-3 6-5 13-7 19l101 7c9-14 20-26 34-34l-6-101c-7 2-13 4-20 7-23 10-43 24-61 41z m96-52l7 98c11-4 22-6 33-6 12 0 23 2 33 6l7-98c-13-3-26-4-40-4-13 0-27 1-40 4z m176 52c-18-17-38-31-61-41-6-3-13-5-19-7l-7 101c14 8 26 20 34 34l101-7c-2-6-4-13-7-19-10-23-24-43-41-61z"/>
<glyph glyph-name="help-circle" unicode="&#57491;" d="M256 464c-115 0-208-93-208-208 0-115 93-208 208-208 115 0 208 93 208 208 0 115-93 208-208 208z m0-399c-105 0-191 86-191 191 0 105 86 191 191 191 105 0 191-86 191-191 0-105-86-191-191-191z m4 301c-44 0-68-20-68-62l19 0c-1 30 15 46 48 46 23 0 42-16 42-40 0-15-8-27-19-38-23-20-29-36-30-64l19 0c1 26 0 31 23 53 15 14 26 28 26 50 0 35-27 55-60 55z m0-186c-9 0-17-8-17-17 0-9 8-17 17-17 10 0 17 7 17 17 0 9-7 17-17 17z"/>
<glyph glyph-name="home" unicode="&#57492;" d="M256 400l-160-128 0-208 112 0 0 128 96 0 0-128 112 0 0 208z m144-320l-80 0 0 128-128 0 0-128-80 0 0 184 144 116 144-116z m-144 368l-96-77 0 45-64 0 0-96-32-25 12-12 180 145 180-145 12 12z m-112-90l-32-25 0 67 32 0z"/>
<glyph glyph-name="ice-cream" unicode="&#57493;" d="M380 348c-6 3-12 5-12 5 0 62-50 113-112 113-62 0-112-51-112-113 0 0-6-1-12-5-13-6-20-19-20-34 0-22 18-40 40-40 12 0 32 6 39 15 15-15 38-23 65-23 27 0 50 8 65 23 7-9 26-15 39-15 22 0 40 18 40 40 0 15-9 29-20 34z m-20-58c-4 0-11 1-16 3-7 2-11 6-11 6-5 3-11 14-11 14l-12-13c-12-12-31-18-54-18-23 0-42 6-54 18l-12 13c0 0-5-9-11-14-2-2-4-4-11-6-5-2-11-3-16-3-13 0-24 11-24 24 0 8 4 16 11 20 0 0 4 2 8 4 4 1 8 2 8 2 10-8 22-11 22-11-9 6-17 22-17 22l0 2c0 26 10 50 28 68 18 19 43 29 68 29 26 0 50-10 68-29 18-18 28-42 28-68l0-2c0 0-7-16-16-22 0 0 12 3 22 11 0 0 3 0 7-2 4-1 8-4 8-4 7-5 11-12 11-20 0-13-11-24-24-24z m-169-18c0 0 0 0 0-1l0 1c0 0 0 0 0 0z m130 0c-15-15-38-23-65-23-27 0-50 8-65 23l0-1c-4-4-11-8-19-11l55-187c1-3 9-27 29-27 9 0 18 6 24 15 4 5 5 11 6 12l55 187c-8 3-16 7-20 12z m-65-44l36-24-36-25-36 25z m-58-9l-11 35 5 3c10-10 36-18 52-20l0-1-35-24-7-5z m7-26l4 3 35-25-27-19z m28-95l-5 19 16-12z m23-39c-11 0-17 18-17 18l-1 4 18 13 18-13-1-4c0 0-5-18-17-18z m23 39l-11 7 17 12z m12 39l-35-24-34 24-1 2 35 24 35-25z m4 15l-27 19 36 25 3-3z m20 67l-4-12-7 5-36 24 0 1c16 2 37 8 52 19l4-3z"/>
<glyph glyph-name="image" unicode="&#57494;" d="M64 448l0-384 384 0 0 384z m368-368l-353 0 0 352 353 0z m-112 256c0-9-7-16-16-16-9 0-16 7-16 16 0 9 7 16 16 16 9 0 16-7 16-16z m-224 80l0-256 320 0 0 256z m199-240l-142 0 71 100z m-7 37l23 31 48-68-45 0z m112-37l-22 0-67 96-32-46-55 78-90-128-22 0 0 224 288 0z"/>
<glyph glyph-name="images" unicode="&#57495;" d="M390 390l-6 90-352-24 23-320 23 2-6-79 384-27 24 352z m-321-237l-20 287 320 23 5-72-16 1-3 54-288-20 15-219-3-53z m28 257l-7-88-6 89 256 18 2-36z m344-361l-353 25 22 319 353-25z m-81 230c9 0 17 6 17 15 1 9-6 17-14 17-9 1-17-6-18-15 0-9 6-16 15-17z m-234 97l-15-224 319-22 16 223z m43-212l78 95 63-105z m161-11l-24 38 25 30 43-71z m85-6l-21 2-61 100-35-43-49 81-99-121-22 1 13 192 288-20z"/>
<glyph glyph-name="infinite" unicode="&#57496;" d="M451 324c-18 18-43 28-69 28-27 0-52-10-70-28l-42-41 13-14 43 42c15 14 34 22 55 22 22 0 41-8 56-22 31-31 31-80 0-110-15-14-34-22-56-22-21 0-40 8-55 22l-126 123c-19 18-43 28-70 28-26 0-51-10-69-28-19-19-29-43-29-68 0-25 10-49 29-68 18-18 43-28 69-28 27 0 52 10 70 28l42 41-13 14-43-42c-15-14-34-22-56-22-21 0-41 8-55 22-31 31-31 80 0 110 14 14 34 22 55 22 22 0 41-8 56-22l126-123c18-18 43-28 69-28 27 0 52 10 70 28 19 19 29 43 29 68 0 25-10 49-29 68z"/>
<glyph glyph-name="informatcircle" unicode="&#57497;" d="M272 340c0-11-9-20-20-20-12 0-20 9-20 20 0 11 8 20 20 20 11 0 20-9 20-20z m0-172l0 128-48 0 0-8 16 0 0-120-16 0 0-8 64 0 0 8z m-16 296c-115 0-208-93-208-208 0-115 93-208 208-208 115 0 208 93 208 208 0 115-93 208-208 208z m0-399c-105 0-191 86-191 191 0 105 86 191 191 191 105 0 191-86 191-191 0-105-86-191-191-191z"/>
<glyph glyph-name="information" unicode="&#57498;" d="M272 340c0-11-9-20-20-20-12 0-20 9-20 20 0 11 8 20 20 20 11 0 20-9 20-20z m0-172l0 128-48 0 0-8 16 0 0-120-16 0 0-8 64 0 0 8z"/>
<glyph glyph-name="ionic" unicode="&#57499;" d="M426 377c4 6 7 14 7 22 0 19-16 35-35 35-8 0-15-3-21-8-34 24-75 38-120 38-115 0-209-93-209-208 0-115 94-208 209-208 115 0 207 93 207 208 0 45-14 87-38 121z m-28 44c12 0 22-10 22-22 0-13-10-22-22-22-12 0-22 10-22 22 0 12 10 22 22 22z m-6-301c-18-17-38-31-61-41-24-10-48-15-74-15-26 0-52 5-76 15-23 10-43 23-61 41-18 18-31 39-41 61-10 24-15 49-15 75 0 26 5 52 15 75 10 23 23 44 41 61 18 18 38 32 61 42 24 10 50 14 76 14 25 0 50-4 74-14 12-6 24-12 36-20-2-5-4-10-4-15 0-19 16-35 35-35 5 0 10 1 15 3 8-11 15-23 20-36 10-23 15-49 15-75 0-26-5-51-15-75-10-22-23-43-41-61z m-135 232c-53 0-96-43-96-96 0-53 42-96 96-96 53 0 96 43 96 96 0 53-43 96-96 96z m0-176c-45 0-80 36-80 80 0 44 35 80 80 80 44 0 79-36 79-80 0-44-35-80-79-80z"/>
<glyph glyph-name="ionitron" unicode="&#57500;" d="M468 243c-5 31-15 57-34 57l-8 0c-30 62-94 103-166 103-4 0-7 0-11 0-86-5-154-67-171-147l-12-1c-17-3-27-35-21-73 5-36 22-64 38-64 1 0 2 0 2 0l16 3c33-54 92-89 158-89 4 0 7 0 11 0 85 5 154 66 171 145l8 1c15 2 23 31 19 65z m-362-105l-23-4c-1 1-5 3-11 13-5 10-10 23-12 38-2 14-1 28 2 39 2 11 6 14 7 15l21 3c7-13 14-30 17-49 3-21 4-41-1-55z m345 69c-2-8-4-12-5-13l-18-1-2-12c-4-18-11-35-21-51-9-15-21-29-35-41-28-25-63-39-101-41-3 0-6 0-10 0-29 0-58 8-84 22-24 14-46 35-60 59l-6 8c8 12 13 32 10 58-3 22-15 40-27 51l1 7c8 36 27 69 55 93 29 25 64 39 102 41 3 0 7 0 10 0 32 0 63-9 90-26 27-16 48-40 62-68l4-8c8-19 12-37 14-57 1 25-3 43-8 56l12 0c3 0 7-6 8-9 4-8 8-20 10-35 2-12 1-24-1-33z m-179-44c-9-1-15-8-15-17 1-8 8-15 17-14 8 0 15 8 14 16 0 9-8 15-16 15z m81 4c-9 0-15-8-15-16 1-9 8-15 17-15 8 1 15 8 14 17 0 8-8 15-16 14z m-185 271c2-1 5-2 9-3 2 0 5 0 8 0 1 0 2 0 4 0 1 0 1 0 2 0 0 0 0 1-1 1 0 0-1 0-1 0 0 0-1 0-1 0-4 0-8 1-11 1-3 1-6 2-8 4-2 1-1 3-1 3 0 3 2 5 5 8 3 2 6 4 11 7l3 1c-1-3-1-7 0-10 2-11 11-19 21-21l5-23 16 3-5 23c9 5 15 16 13 27-1 4-2 7-4 10-2 0-4 0-7 0-6 0-13 0-22-2 1 0 2 0 3 1 8 2 14 3 21 4 9 1 15 0 17 0 2 0 3-1 4-1 0-1-1-3-1-4 0-4 2-6 5-8 0 0 0 0-1-1 0 0-1-1-2-2-2-1-3-2-4-3l-6-4c-1 0-1-1-1-1 0 0 0 0 0 0l9 4c1 1 2 2 3 3 1 1 2 2 3 3 1 0 1 0 1 1 1 0 1 0 1 0 5 0 8 3 8 8 0 4-3 8-8 8-1 0-3-1-4-2-2 1-4 2-7 2-2 1-11 1-19 0-3 3-9 5-14 5-2 0-3 0-5-1-8-1-14-6-18-13 0 0-11-4-19-11-3-3-5-7-5-9-1-3 0-6 3-8z m44 28c5 0 10-5 10-11 0-6-5-10-10-10-6 0-11 4-11 10 0 6 5 11 11 11z"/>
<glyph glyph-name="jet" unicode="&#57501;" d="M464 464c0 0-20-1-53-27-16-12-162-121-162-121l-160 8-41-36 102-52-8-10-82-4-6-33 60-48-26-53 53 26 48-60 33 6 4 82 10 8 52-102 36 41-8 160c0 0 109 146 121 162 26 33 27 53 27 53z m-40-44l-124-167 8-158-17-19-40 81-9 17-31-24-4-76-12-3-49 63-23-11 11 23-63 49 3 12 76 4 25 31-18 9-81 40 19 17 159-8 167 124c4 4 8 7 12 9-2-4-5-8-9-13z"/>
<glyph glyph-name="key" unicode="&#57502;" d="M343 294c-14 0-26 0-38-4-52 43-188 157-199 167-4 5-10 7-15 7-9 0-17-5-22-10-7-6-25-26-20-32 15-15 27-26 34-32 4-5 13 0 19-4 6-3 10-10 15-14 5-6 9-8 9-16 0-8 0-14 6-20 5-5 9-8 16-8 9 0 15-2 21-10 5-7 2-14 5-22 1-5 16-18 18-20 2-2 11 0 13-2 2-2 17-16 18-20 1-5-3-9-2-14 1-6 7-12 11-17-7-16-11-33-11-51 0-69 55-124 122-124 67 0 121 55 121 124 0 68-54 122-121 122z m0-230c-59 0-106 48-106 108 0 15 3 30 9 44l4 8c0 0-8 13-11 16-2 3 3 13 0 17-3 3-20 25-25 30-5 5-14 2-17 5-2 2-7 8-8 10 0 1 0 2-1 4 0 5 0 14-7 22-8 11-18 16-33 16-1 0-2 0-4 3-2 2-2 2-2 9 0 13-7 20-12 25l-19 19c-8 5-15 5-20 5-1 0-2 0-3 0l-22 23c1 3 8 9 11 11 1 1 2 3 3 4 3 2 8 5 11 5 1 0 2 0 4-2 11-11 130-110 200-169l6-5 9 3c9 3 21 3 33 3 28 0 55-11 74-31 20-20 31-46 31-75 0-60-47-108-105-108z m41 96c-18 0-32-14-32-32 0-18 14-32 32-32 18 0 32 14 32 32 0 18-14 32-32 32z m0-48c-9 0-16 7-16 16 0 9 7 16 16 16 9 0 16-7 16-16 0-9-7-16-16-16z"/>
<glyph glyph-name="keypad" unicode="&#57503;" d="M395 171c-30 0-54-24-54-54 0-29 24-53 54-53 29 0 53 24 53 53 0 30-24 54-53 54z m0-91c-21 0-38 17-38 37 0 21 17 38 38 38 20 0 37-17 37-38 0-20-17-37-37-37z m-139 91c-29 0-53-24-53-54 0-29 24-53 53-53 30 0 53 24 53 53 0 30-23 54-53 54z m0-91c-21 0-37 17-37 37 0 21 16 38 37 38 21 0 37-17 37-38 0-20-16-37-37-37z m-139 91c-29 0-53-24-53-54 0-29 24-53 53-53 30 0 54 24 54 53 0 30-24 54-54 54z m0-91c-20 0-37 17-37 37 0 21 17 38 37 38 21 0 38-17 38-38 0-20-17-37-38-37z m278 229c-30 0-54-24-54-53 0-30 24-53 54-53 29 0 53 23 53 53 0 29-24 53-53 53z m0-90c-21 0-38 16-38 37 0 21 17 37 38 37 20 0 37-16 37-37 0-21-17-37-37-37z m-139 90c-29 0-53-24-53-53 0-30 24-53 53-53 30 0 53 23 53 53 0 29-23 53-53 53z m0-90c-21 0-37 16-37 37 0 21 16 37 37 37 21 0 37-16 37-37 0-21-16-37-37-37z m-139 90c-29 0-53-24-53-53 0-30 24-53 53-53 30 0 54 23 54 53 0 29-24 53-54 53z m0-90c-20 0-37 16-37 37 0 21 17 37 37 37 21 0 38-16 38-37 0-21-17-37-38-37z m278 122c29 0 53 24 53 54 0 29-24 53-53 53-30 0-54-24-54-53 0-30 24-54 54-54z m0 91c20 0 37-17 37-37 0-21-17-38-37-38-21 0-38 17-38 38 0 20 17 37 38 37z m-139 16c-29 0-53-24-53-53 0-30 24-54 53-54 30 0 53 24 53 54 0 29-23 53-53 53z m0-91c-21 0-37 17-37 38 0 20 16 37 37 37 21 0 37-17 37-37 0-21-16-38-37-38z m-139 91c-29 0-53-24-53-53 0-30 24-54 53-54 30 0 54 24 54 54 0 29-24 53-54 53z m0-91c-20 0-37 17-37 38 0 20 17 37 37 37 21 0 38-17 38-37 0-21-17-38-38-38z"/>
<glyph glyph-name="laptop" unicode="&#57504;" d="M448 144l0 239c0 9-8 17-17 17l-350 0c-9 0-17-8-17-17l0-239-48 0 0-15c0-3 31-17 52-17l376 0c24 0 52 14 52 16l0 16z m-192 248c2 0 4-2 4-4 0-2-2-4-4-4-2 0-4 2-4 4 0 2 2 4 4 4z m-176-16l352 0 0-216-352 0z m218-240c0 0-79 0-84 0-6 0-10 6-10 8l104 0c0-2-3-8-10-8z"/>
<glyph glyph-name="leaf" unicode="&#57505;" d="M454 129c-52 8-55 13-55 13 16 74-23 154-77 199-72 59-181 16-266 106-1 1-1 1-2 1-17 0-2-241 100-334 43-39 90-50 128-50 31 0 55 7 67 12 22 11 38 34 38 34 37-11 58-12 62-12 0 0 0 0 0 0 1 0 1 0 2 0 13 0 20 29 3 31z m-112-38c-9-4-32-11-60-11-20 0-39 3-57 9-22 8-42 20-60 37-20 18-39 45-54 79-13 29-24 62-33 99-6 30-11 62-13 90-1 9-1 17-1 23 47-38 98-46 144-53 39-7 76-13 104-36 25-21 47-50 59-80 14-34 16-67 13-101-180 63-264 170-264 170 0 0 72-125 252-200-5-7-13-18-30-26z"/>
<glyph glyph-name="link" unicode="&#57506;" d="M279 165l-68-67c-15-15-35-24-57-24-21 0-41 9-56 24-15 15-24 35-24 56 0 22 9 42 24 57l67 68c4 4 9 7 13 10 5 3 11 6 16 8 6 2 11 3 17 4 3 1 7 1 11 1 2 0 3 0 5 0 20-1 38-10 52-23 13-14 21-32 23-52 5 1 10 3 15 5-2 21-11 42-27 58-16 16-37 25-58 27-6 1-12 1-17 1-6-1-12-2-18-3-6-2-12-4-18-7-9-4-17-10-25-18l-68-68c-37-37-37-98 0-136 37-37 98-37 136 0l68 68c7 8 13 16 18 25-7-1-13-1-19-1-3-5-6-9-10-13z m147 261c-38 37-99 37-136 0l-68-68c-8-8-14-16-18-26 6 1 13 2 19 2 3 4 6 9 10 12l68 68c15 15 35 24 57 24 21 0 41-9 56-24 15-15 24-35 24-56 0-22-9-42-24-57l-67-68c-4-4-9-7-13-10-5-3-11-6-16-8-6-2-11-3-17-4-3-1-7-1-11-1-2 0-3 0-5 0-20 1-38 9-52 23-13 14-21 32-23 52-5-1-10-3-15-5 2-21 11-42 27-58 16-16 37-25 58-28 6 0 12 0 17 0 6 1 12 2 18 3 6 2 12 4 18 7 9 4 17 10 25 18l68 68c37 37 37 98 0 136z"/>
<glyph glyph-name="list" unicode="&#57507;" d="M192 360l192 0 0-16-192 0z m0-96l192 0 0-16-192 0z m0-96l192 0 0-16-192 0z m-32 184c0-9-7-16-16-16-9 0-16 7-16 16 0 9 7 16 16 16 9 0 16-7 16-16z m0-96c0-9-7-16-16-16-9 0-16 7-16 16 0 9 7 16 16 16 9 0 16-7 16-16z m0-96c0-9-7-16-16-16-9 0-16 7-16 16 0 9 7 16 16 16 9 0 16-7 16-16z"/>
<glyph glyph-name="list-box" unicode="&#57508;" d="M432 432l0-352-352 0 0 352 352 0m16 16l-384 0 0-384 384 0z m-256-88l192 0 0-16-192 0z m0-96l192 0 0-16-192 0z m0-96l192 0 0-16-192 0z m-32 184c0-9-7-16-16-16-9 0-16 7-16 16 0 9 7 16 16 16 9 0 16-7 16-16z m0-96c0-9-7-16-16-16-9 0-16 7-16 16 0 9 7 16 16 16 9 0 16-7 16-16z m0-96c0-9-7-16-16-16-9 0-16 7-16 16 0 9 7 16 16 16 9 0 16-7 16-16z"/>
<glyph glyph-name="locate" unicode="&#57509;" d="M320 256c0-35-29-64-64-64-35 0-64 29-64 64 0 35 29 64 64 64 35 0 64-29 64-64z m152 8l-24 0c-4 100-84 180-184 184l0 24c0 4-4 8-8 8-4 0-8-4-8-8l0-24c-100-4-180-84-184-184l-24 0c-4 0-8-4-8-8 0-4 4-8 8-8l24 0c4-100 84-180 184-184l0-24c0-4 4-8 8-8 4 0 8 4 8 8l0 24c100 4 180 84 184 184l24 0c4 0 8 4 8 8 0 4-4 8-8 8z m-92-132c-31-32-72-50-116-52l0 40c0 4-4 8-8 8-4 0-8-4-8-8l0-40c-44 2-85 20-116 52-32 31-50 72-52 116l40 0c4 0 8 4 8 8 0 4-4 8-8 8l-40 0c2 44 20 85 52 116 31 32 72 50 116 52l0-40c0-4 4-8 8-8 4 0 8 4 8 8l0 40c44-2 85-20 116-52 32-31 50-72 52-116l-40 0c-4 0-8-4-8-8 0-4 4-8 8-8l40 0c-2-44-20-85-52-116z"/>
<glyph glyph-name="lock" unicode="&#57510;" d="M360 288l0 72c0 57-47 104-104 104-57 0-104-47-104-104l0-72-56 0 0-240 320 0 0 240z m-192 72c0 49 39 88 88 88 49 0 88-39 88-88l0-72-176 0z m232-296l-288 0 0 208 288 0z m-144 160c-18 0-32-14-32-32 0-15 10-27 24-31l0-33 16 0 0 33c14 4 24 16 24 31 0 18-14 32-32 32z m0-48c-9 0-16 7-16 16 0 9 7 16 16 16 9 0 16-7 16-16 0-9-7-16-16-16z"/>
<glyph glyph-name="log-in" unicode="&#57511;" d="M137 432l286 0c22 0 40-18 40-40l0-272c0-22-18-40-40-40l-286 0c-22 0-40 18-40 40 0 4 4 8 8 8 4 0 8-4 8-8 0-13 11-24 24-24l286 0c13 0 24 11 24 24l0 272c0 13-11 24-24 24l-286 0c-13 0-24-11-24-24 0-4-4-8-8-8-4 0-8 4-8 8 0 22 18 40 40 40z m179-167l-84 85c-3 3-8 3-12 0-3-3-3-9 0-12l76-74-239 0c-4 0-8-4-8-8 0-4 4-8 8-8l239 0-74-74c-3-4-3-9 0-12 2-1 4-2 6-2 2 0 4 1 6 2l82 83c7 6 7 14 0 20z"/>
<glyph glyph-name="log-out" unicode="&#57512;" d="M280 80l-192 0c-22 0-40 18-40 40l0 272c0 22 18 40 40 40l192 0c22 0 40-18 40-40 0-4-4-8-8-8-4 0-8 4-8 8 0 13-11 24-24 24l-192 0c-13 0-24-11-24-24l0-272c0-13 11-24 24-24l192 0c13 0 24 11 24 24 0 4 4 8 8 8 4 0 8-4 8-8 0-22-18-40-40-40z m179 185l-84 85c-3 3-8 3-12 0-3-3-3-9 0-12l76-74-271 0c-4 0-8-4-8-8 0-4 4-8 8-8l271 0-74-74c-3-4-3-9 0-12 2-1 4-2 6-2 2 0 4 1 6 2l82 83c7 6 7 14 0 20z"/>
<glyph glyph-name="magnet" unicode="&#57513;" d="M190 379c16-2 33-11 47-25l168-168 59 60-178 177c-54 55-143 55-197 0-55-54-55-143 0-197l178-178 59 59-168 168c-14 14-23 31-25 46-2 16 3 31 15 43 12 12 26 17 42 15z m254-134l-39-39-30 30 40 39z m-138-138l-39-39-30 29 39 40z m-158 158l119-118-40-40-128 129c-24 23-37 55-37 88 0 34 13 66 37 89 23 24 55 37 89 37 33 0 65-13 88-37l129-128-40-40-118 119c-33 32-78 41-109 10-32-32-22-76 10-109z"/>
<glyph glyph-name="mail" unicode="&#57514;" d="M64 384l0-256 384 0 0 256z m192-140l-163 124 326 0z m-176-100l0 214 115-88-68-77 2-2 79 70 48-37 48 37 79-70 2 2-68 77 115 88 0-214z"/>
<glyph glyph-name="mail-open" unicode="&#57515;" d="M256 448l-192-128 0-256 384 0 0 256z m176-368l-352 0 0 214 115-88-68-77 2-2 79 70 48-37 48 37 79-70 2 2-68 77 115 88 0-214z m-176 100l-153 118 89 0 0 3-110 13 0 0 174 114 175-114-111-13 0-3 90 0z"/>
<glyph glyph-name="male" unicode="&#57516;" d="M456 464l-112 0c-4 0-8-4-8-8 0-4 4-8 8-8l92 0-107-108c-30 27-69 44-113 44-93 0-168-75-168-168 0-93 75-168 168-168 93 0 168 75 168 168 0 43-16 83-44 113l108 107 0-92c0-4 4-8 8-8 4 0 8 4 8 8l0 112c0 4-4 8-8 8z m-88-248c0-41-16-79-44-108-29-28-67-44-108-44-41 0-79 16-107 44-29 29-45 67-45 108 0 41 16 79 45 107 28 29 66 45 107 45 41 0 79-16 108-45 28-28 44-66 44-107z"/>
</font>
</defs>
</svg>
